<svg width="24" height="24" viewBox="0 0 24 24" fill="none" xmlns="http://www.w3.org/2000/svg">
<mask id="path-1-inside-1_2008_24548" fill="white">
<path d="M4 17.27V16.27H20V17.27H4ZM4 12.5V11.5H20V12.5H4ZM4 7.72998V6.72998H20V7.72998H4Z"/>
</mask>
<path d="M4 17.27V16.27H20V17.27H4ZM4 12.5V11.5H20V12.5H4ZM4 7.72998V6.72998H20V7.72998H4Z" fill="#FDFDFD"/>
<path d="M4 17.27H3V18.27H4V17.27ZM4 16.27V15.27H3V16.27H4ZM20 16.27H21V15.27H20V16.27ZM20 17.27V18.27H21V17.27H20ZM4 12.5H3V13.5H4V12.5ZM4 11.5V10.5H3V11.5H4ZM20 11.5H21V10.5H20V11.5ZM20 12.5V13.5H21V12.5H20ZM4 7.72998H3V8.72998H4V7.72998ZM4 6.72998V5.72998H3V6.72998H4ZM20 6.72998H21V5.72998H20V6.72998ZM20 7.72998V8.72998H21V7.72998H20ZM4 17.27H5V16.27H4H3V17.27H4ZM4 16.27V17.27H20V16.27V15.27H4V16.27ZM20 16.27H19V17.27H20H21V16.27H20ZM20 17.27V16.27H4V17.27V18.27H20V17.27ZM4 12.5H5V11.5H4H3V12.5H4ZM4 11.5V12.5H20V11.5V10.5H4V11.5ZM20 11.5H19V12.5H20H21V11.5H20ZM20 12.5V11.5H4V12.5V13.5H20V12.5ZM4 7.72998H5V6.72998H4H3V7.72998H4ZM4 6.72998V7.72998H20V6.72998V5.72998H4V6.72998ZM20 6.72998H19V7.72998H20H21V6.72998H20ZM20 7.72998V6.72998H4V7.72998V8.72998H20V7.72998Z" fill="#FDFDFD" mask="url(#path-1-inside-1_2008_24548)"/>
</svg>
