<svg width="24" height="24" viewBox="0 0 24 24" fill="none" xmlns="http://www.w3.org/2000/svg">
<path d="M21 6.616V17.385C21 17.845 20.846 18.2293 20.538 18.538C20.23 18.8467 19.8457 19.0007 19.385 19H4.615C4.155 19 3.771 18.846 3.463 18.538C3.155 18.23 3.00067 17.8453 3 17.384V6.616C3 6.15533 3.15433 5.771 3.463 5.463C3.77167 5.155 4.15567 5.00067 4.615 5H19.385C19.845 5 20.229 5.15433 20.537 5.463C20.845 5.77167 20.9993 6.156 21 6.616ZM4 8.808H20V6.616C20 6.462 19.936 6.32067 19.808 6.192C19.68 6.06333 19.539 5.99933 19.385 6H4.615C4.46167 6 4.32067 6.064 4.192 6.192C4.06333 6.32 3.99933 6.46133 4 6.616V8.808ZM4 11.192V17.385C4 17.5383 4.064 17.6793 4.192 17.808C4.32 17.9367 4.461 18.0007 4.615 18H19.385C19.5383 18 19.6793 17.936 19.808 17.808C19.9367 17.68 20.0007 17.539 20 17.385V11.192H4Z" fill="#FDFDFD"/>
</svg>
