<svg width="24" height="24" viewBox="0 0 24 24" fill="none" xmlns="http://www.w3.org/2000/svg">
<path d="M4.23 19.3849V10.2299H4.038C3.74467 10.2299 3.49833 10.1299 3.299 9.92994C3.09967 9.72994 3 9.48427 3 9.19294V6.84594C3 6.55261 3.09967 6.30594 3.299 6.10594C3.49833 5.90594 3.745 5.80661 4.039 5.80794H8.142C7.94333 5.63194 7.806 5.42327 7.73 5.18194C7.654 4.94127 7.616 4.68827 7.616 4.42294C7.616 3.76027 7.84767 3.19727 8.311 2.73394C8.77433 2.27061 9.33733 2.03894 10 2.03894C10.3833 2.03894 10.7353 2.12894 11.056 2.30894C11.376 2.48894 11.6523 2.72327 11.885 3.01194C12.117 2.71927 12.393 2.48394 12.713 2.30594C13.033 2.12794 13.385 2.03894 13.769 2.03894C14.4317 2.03894 14.995 2.27061 15.459 2.73394C15.923 3.19727 16.1547 3.76027 16.154 4.42294C16.154 4.68294 16.1147 4.93394 16.036 5.17594C15.9573 5.41794 15.821 5.62861 15.627 5.80794H19.962C20.2553 5.80794 20.5017 5.90761 20.701 6.10694C20.9003 6.30627 21 6.55294 21 6.84694V9.19194C21 9.48527 20.9003 9.73194 20.701 9.93194C20.5017 10.1319 20.255 10.2316 19.961 10.2309H19.769V19.3849C19.769 19.8289 19.611 20.2089 19.295 20.5249C18.979 20.8409 18.5987 20.9993 18.154 20.9999H5.846C5.402 20.9999 5.022 20.8416 4.706 20.5249C4.39 20.2083 4.23067 19.8283 4.23 19.3849ZM13.769 3.03894C13.377 3.03894 13.0483 3.17161 12.783 3.43694C12.5177 3.70227 12.385 4.03094 12.385 4.42294C12.385 4.81494 12.5177 5.14394 12.783 5.40994C13.0483 5.67594 13.377 5.80861 13.769 5.80794C14.161 5.80727 14.49 5.67461 14.756 5.40994C15.022 5.14527 15.1547 4.81627 15.154 4.42294C15.1533 4.02961 15.0207 3.70094 14.756 3.43694C14.4913 3.17294 14.1623 3.04027 13.769 3.03894ZM8.615 4.42294C8.615 4.81561 8.74767 5.14461 9.013 5.40994C9.27833 5.67527 9.60733 5.80794 10 5.80794C10.3927 5.80794 10.7213 5.67527 10.986 5.40994C11.2507 5.14461 11.3833 4.81561 11.384 4.42294C11.3847 4.03027 11.252 3.70161 10.986 3.43694C10.72 3.17227 10.3913 3.03961 10 3.03894C9.60867 3.03827 9.28 3.17094 9.014 3.43694C8.748 3.70294 8.61533 4.03161 8.616 4.42294M4 6.80794V9.22994H11.5V6.80794H4ZM11.5 19.9999V10.2299H5.23V19.3849C5.23 19.5643 5.288 19.7116 5.404 19.8269C5.51933 19.9423 5.66667 19.9999 5.846 19.9999H11.5ZM12.5 19.9999H18.154C18.3333 19.9999 18.4807 19.9423 18.596 19.8269C18.7113 19.7116 18.769 19.5643 18.769 19.3849V10.2299H12.5V19.9999ZM20 9.22994V6.80894H12.5V9.22994H20Z" fill="#FF0633"/>
</svg>
