<svg width="24" height="24" viewBox="0 0 24 24" fill="none" xmlns="http://www.w3.org/2000/svg">
<path d="M4.23 19.3851V10.2301H4.038C3.74467 10.2301 3.49833 10.1301 3.299 9.93006C3.09967 9.73006 3 9.4844 3 9.19306V6.84606C3 6.55273 3.09967 6.30606 3.299 6.10606C3.49833 5.90606 3.745 5.80673 4.039 5.80806H8.142C7.94333 5.63206 7.806 5.4234 7.73 5.18206C7.654 4.9414 7.616 4.6884 7.616 4.42306C7.616 3.7604 7.84767 3.1974 8.311 2.73406C8.77433 2.27073 9.33733 2.03906 10 2.03906C10.3833 2.03906 10.7353 2.12906 11.056 2.30906C11.376 2.48906 11.6523 2.7234 11.885 3.01206C12.117 2.7194 12.393 2.48406 12.713 2.30606C13.033 2.12806 13.385 2.03906 13.769 2.03906C14.4317 2.03906 14.995 2.27073 15.459 2.73406C15.923 3.1974 16.1547 3.7604 16.154 4.42306C16.154 4.68306 16.1147 4.93406 16.036 5.17606C15.9573 5.41806 15.821 5.62873 15.627 5.80806H19.962C20.2553 5.80806 20.5017 5.90773 20.701 6.10706C20.9003 6.3064 21 6.55306 21 6.84706V9.19206C21 9.4854 20.9003 9.73206 20.701 9.93206C20.5017 10.1321 20.255 10.2317 19.961 10.2311H19.769V19.3851C19.769 19.8291 19.611 20.2091 19.295 20.5251C18.979 20.8411 18.5987 20.9994 18.154 21.0001H5.846C5.402 21.0001 5.022 20.8417 4.706 20.5251C4.39 20.2084 4.23067 19.8284 4.23 19.3851ZM13.769 3.03906C13.377 3.03906 13.0483 3.17173 12.783 3.43706C12.5177 3.7024 12.385 4.03106 12.385 4.42306C12.385 4.81506 12.5177 5.14406 12.783 5.41006C13.0483 5.67606 13.377 5.80873 13.769 5.80806C14.161 5.8074 14.49 5.67473 14.756 5.41006C15.022 5.1454 15.1547 4.8164 15.154 4.42306C15.1533 4.02973 15.0207 3.70106 14.756 3.43706C14.4913 3.17306 14.1623 3.0404 13.769 3.03906ZM8.615 4.42306C8.615 4.81573 8.74767 5.14473 9.013 5.41006C9.27833 5.6754 9.60733 5.80806 10 5.80806C10.3927 5.80806 10.7213 5.6754 10.986 5.41006C11.2507 5.14473 11.3833 4.81573 11.384 4.42306C11.3847 4.0304 11.252 3.70173 10.986 3.43706C10.72 3.1724 10.3913 3.03973 10 3.03906C9.60867 3.0384 9.28 3.17106 9.014 3.43706C8.748 3.70306 8.61533 4.03173 8.616 4.42306M4 6.80806V9.23006H11.5V6.80806H4ZM11.5 20.0001V10.2301H5.23V19.3851C5.23 19.5644 5.288 19.7117 5.404 19.8271C5.51933 19.9424 5.66667 20.0001 5.846 20.0001H11.5ZM12.5 20.0001H18.154C18.3333 20.0001 18.4807 19.9424 18.596 19.8271C18.7113 19.7117 18.769 19.5644 18.769 19.3851V10.2301H12.5V20.0001ZM20 9.23006V6.80906H12.5V9.23006H20Z" fill="#FDFDFD"/>
</svg>
