<svg width="24" height="24" viewBox="0 0 24 24" fill="none" xmlns="http://www.w3.org/2000/svg">
<path d="M22.0176 13.298L18.0986 15.516L14.5836 12.023L18.1266 8.50202L22.0176 10.704C22.2472 10.8339 22.4383 11.0224 22.5712 11.2502C22.7042 11.4781 22.7742 11.7372 22.7742 12.001C22.7742 12.2648 22.7042 12.5239 22.5712 12.7518C22.4383 12.9797 22.2472 13.1682 22.0176 13.298ZM1.33661 0.92402C1.26275 1.10428 1.2247 1.29721 1.22461 1.49202V22.509C1.22461 22.726 1.26961 22.928 1.34861 23.109L12.5036 12.022L1.33661 0.92402ZM13.5436 10.989L16.8016 7.75102L3.44961 0.19502C3.16331 0.0308526 2.8301 -0.0321974 2.50361 0.0160202L13.5436 10.989ZM13.5436 13.056L2.54361 23.989C2.84161 24.025 3.15561 23.973 3.44961 23.806L16.7736 16.266L13.5436 13.056Z" fill="#FDFDFD"/>
</svg>
