<svg width="24" height="24" viewBox="0 0 24 24" fill="none" xmlns="http://www.w3.org/2000/svg">
<path d="M19.9197 16.734C20.1464 16.8248 20.3418 16.9796 20.4822 17.1795C20.6072 17.3675 20.6972 17.594 20.7522 17.859C20.7822 18.014 20.8172 18.159 20.8572 18.294C20.9313 18.5467 21.0419 18.7873 21.1857 19.008C21.2557 19.117 21.3497 19.238 21.4677 19.371C21.5677 19.481 21.6577 19.6215 21.7377 19.7925C21.8107 19.9464 21.85 20.1142 21.8532 20.2845C21.8578 20.4481 21.8089 20.6088 21.7137 20.742C21.6146 20.8698 21.4956 20.9807 21.3612 21.0705C21.1812 21.1955 20.9937 21.305 20.7987 21.399C20.6037 21.492 20.4087 21.5895 20.2137 21.6915C19.922 21.8303 19.6434 21.9949 19.3812 22.1835C19.1462 22.3555 18.9117 22.5745 18.6777 22.8405C18.4051 23.1463 18.0893 23.4106 17.7402 23.625C17.5617 23.7375 17.3683 23.8244 17.1657 23.883C16.9707 23.938 16.7757 23.973 16.5807 23.988C16.1277 23.988 15.7527 23.91 15.4557 23.754C15.1587 23.598 14.9007 23.313 14.6817 22.899C14.6197 22.781 14.5572 22.7065 14.4942 22.6755C14.3967 22.6347 14.2944 22.607 14.1897 22.593L13.0032 22.5C12.6132 22.47 12.2152 22.4545 11.8092 22.4535C11.4715 22.4521 11.1343 22.4792 10.8012 22.5345C10.4572 22.5895 10.1172 22.656 9.78117 22.734C9.71117 22.75 9.64117 22.8085 9.57117 22.9095C9.48183 23.0302 9.38356 23.144 9.27717 23.25C9.13117 23.3893 8.96085 23.5007 8.77467 23.5785C8.50925 23.6812 8.22676 23.7326 7.94217 23.73C7.68417 23.73 7.40667 23.703 7.10967 23.649C6.8317 23.6012 6.56294 23.5101 6.31317 23.379C5.8621 23.1488 5.38089 22.9832 4.88367 22.887C4.41467 22.801 3.91867 22.723 3.39567 22.653C3.22198 22.6316 3.04969 22.6 2.87967 22.5585C2.72275 22.5219 2.57481 22.454 2.44467 22.359C2.32562 22.2712 2.22645 22.1593 2.15367 22.0305C2.07471 21.8663 2.03419 21.6862 2.03517 21.504C2.03517 21.261 2.06667 21.0265 2.12967 20.8005C2.19267 20.5745 2.22767 20.3365 2.23467 20.0865C2.23467 19.9135 2.22317 19.7455 2.20017 19.5825C2.1764 19.4073 2.16039 19.2311 2.15217 19.0545C2.15217 18.6575 2.24617 18.3645 2.43417 18.1755C2.62117 17.9885 2.89467 17.84 3.25467 17.73C3.4145 17.6813 3.56507 17.6063 3.70017 17.508C3.82487 17.4157 3.94222 17.3139 4.05117 17.2035C4.16209 17.0907 4.2639 16.9693 4.35567 16.8405C4.44967 16.7065 4.55517 16.5735 4.67217 16.4415C4.69716 16.4124 4.71004 16.3748 4.70817 16.3365C4.70817 16.2415 4.70417 16.1515 4.69617 16.0665L4.67217 15.7845C4.67217 15.2545 4.75417 14.7195 4.91817 14.1795C5.08317 13.6405 5.29817 13.113 5.56317 12.597C5.82797 12.0824 6.12559 11.5854 6.45417 11.109C6.78217 10.633 7.10617 10.1915 7.42617 9.7845C7.8591 9.24048 8.20334 8.63147 8.44617 7.98C8.67217 7.355 8.78917 6.675 8.79717 5.94C8.79717 5.629 8.78167 5.321 8.75067 5.016C8.71888 4.70452 8.70336 4.3916 8.70417 4.0785C8.70417 3.4525 8.77417 2.89 8.91417 2.391C9.05517 1.891 9.27417 1.461 9.57117 1.101C10.0167 0.561 10.2552 0.4725 10.7307 0.2925C11.2087 0.1125 11.7792 0.015 12.4422 0C13.2322 0 13.8617 0.1565 14.3307 0.4695C14.7987 0.7815 15.1577 1.1915 15.4077 1.6995C15.6577 2.2065 15.8177 2.773 15.8877 3.399C15.9597 4.023 15.9992 4.6555 16.0062 5.2965V5.496C16.0062 5.817 16.0102 6.102 16.0182 6.351C16.031 6.85738 16.1464 7.35591 16.3572 7.8165C16.4672 8.0585 16.6312 8.32 16.8492 8.601C17.2242 9.095 17.6072 9.5915 17.9982 10.0905C18.3882 10.5905 18.7432 11.1055 19.0632 11.6355C19.3842 12.1675 19.6462 12.7225 19.8492 13.3005C20.0522 13.8785 20.1577 14.5035 20.1657 15.1755C20.1677 15.7053 20.0846 16.2305 19.9197 16.734ZM10.0887 4.524C10.1967 4.524 10.2867 4.551 10.3587 4.605C10.4317 4.66402 10.488 4.74106 10.5222 4.8285C10.5582 4.91914 10.5854 5.01309 10.6032 5.109C10.6192 5.203 10.6272 5.301 10.6272 5.403C10.6287 5.46736 10.6164 5.53129 10.5912 5.5905C10.5645 5.63965 10.5289 5.6834 10.4862 5.7195L10.3452 5.8365C10.2957 5.87989 10.2491 5.92649 10.2057 5.976C10.1508 6.06473 10.0738 6.13763 9.98217 6.1875C9.8891 6.24112 9.79897 6.29971 9.71217 6.363C9.62904 6.42324 9.5508 6.48994 9.47817 6.5625C9.44156 6.60145 9.41334 6.64752 9.39528 6.69784C9.37722 6.74816 9.36969 6.80165 9.37317 6.855C9.37317 6.925 9.40817 6.9835 9.47817 7.0305C9.65332 7.14039 9.79212 7.29954 9.87717 7.488C9.95617 7.668 10.0422 7.844 10.1352 8.016C10.2282 8.186 10.3492 8.3305 10.4982 8.4495C10.6472 8.5665 10.8772 8.625 11.1882 8.625H11.2602C11.5722 8.61 11.8692 8.528 12.1512 8.379C12.4322 8.231 12.7132 8.0745 12.9942 7.9095C13.0438 7.88366 13.0949 7.86063 13.1472 7.8405C13.2014 7.82044 13.2524 7.79265 13.2987 7.758L14.1537 7.0905C14.1683 7.04016 14.1804 6.98909 14.1897 6.9375L14.2137 6.7725C14.2159 6.69798 14.1949 6.6246 14.1537 6.5625C14.1153 6.50809 14.0682 6.46044 14.0142 6.4215C13.9542 6.38061 13.8862 6.35299 13.8147 6.3405C13.7433 6.32563 13.6731 6.30558 13.6047 6.2805C13.4179 6.24156 13.2392 6.17051 13.0767 6.0705C12.9152 5.97107 12.7418 5.89245 12.5607 5.8365C12.5307 5.8285 12.5072 5.805 12.4902 5.766C12.4724 5.7198 12.4568 5.67274 12.4437 5.625C12.4265 5.5759 12.4223 5.52318 12.4317 5.472C12.4398 5.43269 12.4356 5.39184 12.4197 5.355C12.4197 5.262 12.4277 5.1645 12.4437 5.0625C12.4614 4.95965 12.497 4.86067 12.5487 4.77C12.5936 4.68612 12.6579 4.61414 12.7362 4.56C12.8283 4.50531 12.9335 4.4763 13.0407 4.476C13.2837 4.476 13.4597 4.566 13.5687 4.746C13.6787 4.926 13.7372 5.121 13.7442 5.331C13.7459 5.42432 13.7259 5.51678 13.6857 5.601C13.6467 5.68146 13.6262 5.7696 13.6257 5.859C13.6257 5.922 13.6457 5.965 13.6857 5.988C13.7335 6.01251 13.7853 6.02826 13.8387 6.0345C14.0187 6.0345 14.1357 5.992 14.1897 5.907C14.253 5.78797 14.285 5.6548 14.2827 5.52C14.2827 5.34 14.2677 5.1405 14.2377 4.9215C14.2085 4.7095 14.1447 4.50375 14.0487 4.3125C13.9601 4.13339 13.8367 3.97376 13.6857 3.843C13.5232 3.71319 13.3189 3.64706 13.1112 3.657C12.7062 3.657 12.4132 3.7585 12.2322 3.9615C12.0522 4.1635 11.9587 4.468 11.9517 4.875C11.9517 4.992 11.9592 5.109 11.9742 5.226C11.9892 5.343 11.9972 5.4605 11.9982 5.5785C11.9982 5.6175 11.9942 5.637 11.9862 5.637C11.9618 5.63196 11.9381 5.6239 11.9157 5.613L11.7762 5.5545C11.7184 5.53135 11.6593 5.51181 11.5992 5.496C11.4996 5.4712 11.3959 5.46712 11.2947 5.484C11.2325 5.49191 11.1699 5.49592 11.1072 5.496C10.9972 5.496 10.9422 5.4765 10.9422 5.4375C10.9422 5.3205 10.9347 5.172 10.9197 4.992C10.9047 4.812 10.8657 4.632 10.8027 4.452C10.7502 4.29191 10.6711 4.14181 10.5687 4.008C10.4747 3.891 10.3342 3.8285 10.1472 3.8205C10.0211 3.81711 9.89883 3.86345 9.80667 3.9495C9.71172 4.03982 9.62902 4.14219 9.56067 4.254C9.4888 4.37587 9.44475 4.51212 9.43167 4.653C9.41933 4.77837 9.40382 4.90341 9.38517 5.028C9.392 5.23486 9.42733 5.4398 9.49017 5.637C9.53017 5.762 9.57317 5.8715 9.61917 5.9655C9.66617 6.0585 9.72117 6.105 9.78417 6.105C9.82217 6.105 9.87267 6.078 9.93567 6.024C9.99867 5.969 10.0302 5.918 10.0302 5.871C10.0302 5.847 10.0182 5.8315 9.99417 5.8245C9.97124 5.8177 9.94757 5.81367 9.92367 5.8125C9.86967 5.8125 9.82267 5.785 9.78267 5.73C9.74306 5.67215 9.71176 5.60904 9.68967 5.5425L9.61917 5.3205C9.57188 5.11815 9.60127 4.90544 9.70167 4.7235C9.77167 4.5975 9.90067 4.531 10.0887 4.524ZM7.53267 22.77C7.72067 22.77 7.90467 22.754 8.08467 22.722C8.2626 22.6904 8.43334 22.6268 8.58867 22.5345C8.73792 22.4495 8.85971 22.3235 8.93967 22.1715C9.02687 21.9964 9.07498 21.8045 9.08067 21.609C9.08116 21.4694 9.05731 21.3309 9.01017 21.1995C8.9618 21.0657 8.89463 20.9394 8.81067 20.8245C8.71738 20.6782 8.61571 20.5375 8.50617 20.403C8.39659 20.268 8.29492 20.1268 8.20167 19.98L7.76667 19.335C7.62667 19.125 7.48667 18.9025 7.34667 18.6675C7.22325 18.468 7.1057 18.2649 6.99417 18.0585C6.87911 17.8481 6.74559 17.6483 6.59517 17.4615C6.5 17.3426 6.39012 17.2362 6.26817 17.145C6.14287 17.051 5.98981 17.0014 5.83317 17.004C5.66986 17.0022 5.51166 17.061 5.38917 17.169C5.24817 17.2893 5.11862 17.4223 5.00217 17.5665C4.8647 17.7294 4.71582 17.8822 4.55667 18.024C4.39267 18.173 4.18167 18.29 3.92367 18.375C3.74899 18.4216 3.58833 18.5102 3.45567 18.633C3.34567 18.743 3.29067 18.911 3.29067 19.137C3.29067 19.293 3.30267 19.449 3.32667 19.605C3.34967 19.761 3.36517 19.9175 3.37317 20.0745C3.37317 20.2845 3.34167 20.4835 3.27867 20.6715C3.21923 20.849 3.18785 21.0348 3.18567 21.222C3.18567 21.434 3.25967 21.5825 3.40767 21.6675C3.55767 21.7545 3.72567 21.813 3.91167 21.843C4.14667 21.883 4.36967 21.9145 4.58067 21.9375C4.79067 21.9615 4.99767 21.9965 5.20167 22.0425C5.40367 22.0895 5.60667 22.1405 5.81067 22.1955C6.01367 22.2495 6.22867 22.3355 6.45567 22.4535C6.50167 22.4765 6.57167 22.5035 6.66567 22.5345L6.98217 22.6395C7.09917 22.6795 7.20867 22.711 7.31067 22.734C7.38367 22.7515 7.45788 22.7636 7.53267 22.77ZM11.8227 21.363C12.0417 21.363 12.2762 21.3395 12.5262 21.2925C13.0364 21.1978 13.5298 21.0279 13.9902 20.7885C14.2046 20.6791 14.4085 20.55 14.5992 20.403C14.6185 20.3819 14.6346 20.3582 14.6472 20.3325C14.6622 20.3024 14.6737 20.2707 14.6817 20.238V20.226C14.7277 20.054 14.7667 19.8665 14.7987 19.6635C14.831 19.4572 14.8585 19.2501 14.8812 19.0425C14.9039 18.8349 14.9314 18.6278 14.9637 18.4215C14.9937 18.2185 15.0207 18.0195 15.0447 17.8245C15.0767 17.6145 15.1157 17.4115 15.1617 17.2155C15.2087 17.0205 15.2712 16.8365 15.3492 16.6635C15.4254 16.4931 15.5327 16.3385 15.6657 16.2075C15.819 16.0586 15.9927 15.9324 16.1817 15.8325V15.8085L16.1697 15.774C16.173 15.6946 16.1973 15.6175 16.2402 15.5505C16.2927 15.4644 16.3513 15.3822 16.4157 15.3045C16.4785 15.226 16.5541 15.1585 16.6392 15.105C16.7175 15.0586 16.7998 15.0195 16.8852 14.988C16.8378 14.7995 16.7868 14.612 16.7322 14.4255C16.6779 14.2399 16.6309 14.0522 16.5912 13.863C16.5529 13.6235 16.5064 13.3853 16.4517 13.149C16.408 12.9657 16.3529 12.7854 16.2867 12.609C16.2198 12.437 16.1289 12.2754 16.0167 12.129C15.9007 11.972 15.7567 11.7845 15.5847 11.5665C15.5182 11.4945 15.4589 11.4161 15.4077 11.3325C15.3683 11.2391 15.345 11.1397 15.3387 11.0385C15.3205 10.9358 15.2969 10.8342 15.2682 10.734C15.162 10.3544 15.0409 9.97908 14.9052 9.609C14.8327 9.41171 14.7465 9.21974 14.6472 9.0345C14.5673 8.88645 14.4812 8.74182 14.3892 8.601C14.3112 8.484 14.2292 8.4255 14.1432 8.4255C13.9552 8.4255 13.7322 8.5 13.4742 8.649C13.2172 8.797 12.9442 8.961 12.6552 9.141C12.3662 9.321 12.0847 9.489 11.8107 9.645C11.5377 9.801 11.2917 9.875 11.0727 9.867C10.839 9.86685 10.612 9.78872 10.4277 9.645C10.2287 9.49399 10.0476 9.32088 9.88767 9.129C9.72367 8.934 9.58717 8.766 9.47817 8.625C9.36917 8.484 9.28717 8.406 9.23217 8.391C9.17017 8.391 9.13517 8.4375 9.12717 8.5305C9.11946 8.63583 9.11546 8.74139 9.11517 8.847V9.0465C9.11517 9.0935 9.10717 9.125 9.09117 9.141C9.00517 9.321 8.91167 9.4965 8.81067 9.6675C8.70967 9.8395 8.60817 10.0155 8.50617 10.1955C8.30348 10.5411 8.19054 10.932 8.17767 11.3325C8.17767 11.4495 8.18567 11.5665 8.20167 11.6835C8.21667 11.8005 8.25567 11.914 8.31867 12.024L8.29467 12.069C8.2345 12.1526 8.16779 12.2314 8.09517 12.3045C8.0207 12.3793 7.95433 12.4618 7.89717 12.5505C7.61037 12.9744 7.40348 13.4472 7.28667 13.9455C7.16967 14.4455 7.10717 14.953 7.09917 15.468C7.09917 15.602 7.10717 15.735 7.12317 15.867C7.13917 16 7.14717 16.133 7.14717 16.266L7.13517 16.395L7.12317 16.524C7.28991 16.5428 7.45033 16.5987 7.59267 16.6875C7.77267 16.7895 7.96767 16.9185 8.17767 17.0745C8.38767 17.2305 8.58717 17.4105 8.77617 17.6145C8.96317 17.8165 9.14267 18.0155 9.31467 18.2115C9.48667 18.4065 9.61167 18.6015 9.68967 18.7965C9.76767 18.9915 9.81817 19.1515 9.84117 19.2765C9.84556 19.3672 9.83118 19.4579 9.79891 19.5428C9.76665 19.6277 9.71721 19.7051 9.65367 19.77C9.51811 19.8999 9.35936 20.0032 9.18567 20.0745C9.31867 20.3085 9.48267 20.5075 9.67767 20.6715C9.87267 20.8365 10.0837 20.9695 10.3107 21.0705C10.5377 21.1715 10.7837 21.2455 11.0487 21.2925C11.3137 21.3395 11.5717 21.363 11.8227 21.363ZM16.5222 23.028C16.6862 23.028 16.8462 23.0045 17.0022 22.9575C17.2382 22.8887 17.463 22.7861 17.6697 22.653C17.8727 22.52 18.0602 22.3555 18.2322 22.1595C18.6405 21.6903 19.1388 21.3077 19.6977 21.0345L20.0847 20.859C20.2178 20.8019 20.3467 20.7352 20.4702 20.6595C20.5594 20.6024 20.6424 20.5361 20.7177 20.4615C20.7551 20.4248 20.7848 20.3809 20.8049 20.3324C20.825 20.284 20.8351 20.232 20.8347 20.1795C20.8346 20.1192 20.8223 20.0595 20.7987 20.004C20.7705 19.9417 20.7352 19.8828 20.6937 19.8285C20.5866 19.6798 20.4851 19.5272 20.3892 19.371C20.3024 19.229 20.2277 19.0799 20.1657 18.9255L19.9782 18.4575C19.9124 18.2851 19.8573 18.1087 19.8132 17.9295C19.7962 17.8743 19.7687 17.8228 19.7322 17.778C19.6568 17.6653 19.5538 17.5737 19.433 17.512C19.3123 17.4503 19.1777 17.4205 19.0422 17.4255C18.9023 17.4248 18.7646 17.461 18.6432 17.5305L18.2442 17.754C18.1054 17.8312 17.9648 17.9052 17.8227 17.976C17.6844 18.0453 17.5318 18.0813 17.3772 18.081C17.2387 18.0884 17.102 18.0476 16.9902 17.9655C16.8811 17.8812 16.7928 17.7729 16.7322 17.649C16.6646 17.5243 16.606 17.395 16.5567 17.262L16.4157 16.875C16.3543 16.9751 16.284 17.0695 16.2057 17.157C16.1262 17.247 16.0628 17.35 16.0182 17.4615C15.9162 17.6955 15.8537 17.957 15.8307 18.246C15.7917 18.699 15.7407 19.1405 15.6777 19.5705C15.6135 20.0095 15.508 20.4414 15.3627 20.8605C15.3216 20.9946 15.2901 21.1315 15.2682 21.27C15.2452 21.4136 15.2292 21.5583 15.2202 21.7035C15.2202 22.0865 15.3377 22.403 15.5727 22.653C15.8077 22.903 16.1242 23.028 16.5222 23.028Z" fill="#FDFDFD"/>
</svg>
