<svg width="118" height="44" viewBox="0 0 118 44" fill="none" xmlns="http://www.w3.org/2000/svg">
<path d="M25.4296 7.992V35.008H28.2016V38H19.1376V35.008H21.8216V22.424H9.58961V35.008H12.2736V38H3.20961V35.008H5.98161V7.992H3.20961V5H12.2736V7.992H9.58961V19.476H21.8216V7.992H19.1376V5H28.2016V7.992H25.4296ZM40.9723 35.008H43.8323V38H34.5923V35.008H37.3643V7.992H34.5923V5H43.8323V7.992H40.9723V35.008ZM75.1214 35.008V38H66.4094V35.008H68.7854L61.2614 22.908L56.5974 25.768V35.008H59.4574V38H50.2174V35.008H52.9894V7.992H50.2174V5H65.9254C67.8614 5 69.1668 5.38133 69.8414 6.144C70.5161 6.87733 70.8534 8.32933 70.8534 10.5V13.228C70.8534 14.3427 70.7508 15.2227 70.5454 15.868C70.3401 16.5133 69.9734 17.1 69.4454 17.628C68.9174 18.1267 68.2134 18.64 67.3334 19.168C66.4534 19.696 65.3388 20.3707 63.9894 21.192L72.6574 35.008H75.1214ZM56.5974 22.248L67.6414 15.428V7.992H56.5974V22.248ZM91.9067 5C93.6961 5 94.9867 5.49866 95.7787 6.496C96.6001 7.464 97.0107 8.916 97.0107 10.852V32.016C97.0107 34.128 96.6587 35.6533 95.9547 36.592C95.2507 37.5307 93.9747 38 92.1267 38H83.6787C80.8627 38 79.2054 36.944 78.7067 34.832C78.5307 34.1867 78.4427 33.468 78.4427 32.676V10.852C78.4427 8.88667 78.7654 7.464 79.4107 6.584C80.1441 5.528 81.4494 5 83.3267 5H91.9067ZM81.9627 35.008H93.4907V7.992H81.9627V35.008Z" fill="#FDFDFD"/>
<path d="M101.5 39.1193V35.8253H102.724V36.7613L113.776 33.7913L102.724 30.8393V31.9733H101.5V28.4993H102.724V29.4713L115 32.7653V34.8353L102.724 38.1113V39.1193H101.5ZM101.5 20.4597C101.5 19.6677 101.65 19.1337 101.95 18.8577C102.25 18.5817 102.844 18.4437 103.732 18.4437H105.046C105.73 18.4437 106.228 18.5877 106.54 18.8757C106.696 19.0197 106.846 19.2117 106.99 19.4517C107.134 19.6797 107.308 19.9617 107.512 20.2977L109.996 24.2757H113.776V23.1057H115V26.8857H113.776V25.7517H102.742V26.8857H101.5V20.4597ZM102.742 19.7577V24.2757H108.556L105.766 19.7577H102.742ZM102.724 5.59616V6.73016H115V8.49416L104.488 13.5882H113.776V12.4182H115V16.1982H113.776V15.0642H102.724V16.1982H101.5V13.4262L112.228 8.20616H102.724V9.37616H101.5V5.59616H102.724Z" fill="#FDFDFD"/>
</svg>
