<svg width="24" height="24" viewBox="0 0 24 24" fill="none" xmlns="http://www.w3.org/2000/svg">
<g clip-path="url(#clip0_2036_3293)">
<path d="M11.1529 14.5694C11.1529 16.5882 10.1012 17.8588 8.42118 17.8588C6.74118 17.8588 5.68941 16.5812 5.68941 14.5694C5.68941 12.5435 6.74118 11.2729 8.42118 11.2729C10.1012 11.2729 11.1529 12.5435 11.1529 14.5694ZM13.4965 7.44706L12.7624 7.49647C12.3459 7.52471 12.1624 7.67294 12.1624 7.94118C12.1624 8.22353 12.3953 8.37882 12.72 8.37882C13.1647 8.37882 13.4965 8.08941 13.4965 7.70118V7.44706ZM24 12C24 18.6988 18.6988 24 12 24C5.30118 24 0 18.6988 0 12C0 5.30118 5.30118 0 12 0C18.6988 0 24 5.30118 24 12ZM14.7812 7.29882C14.7812 8.27294 15.3176 8.86588 16.1929 8.86588C16.9341 8.86588 17.4 8.44941 17.4776 7.85647H16.8988C16.8212 8.18118 16.5671 8.35765 16.1929 8.35765C15.6988 8.35765 15.3953 7.95529 15.3953 7.29882C15.3953 6.64941 15.6988 6.26118 16.1929 6.26118C16.5882 6.26118 16.8353 6.48706 16.8988 6.77647H17.4776C17.4 6.19765 16.9482 5.76 16.1929 5.76C15.3176 5.75294 14.7812 6.34588 14.7812 7.29882ZM6.71294 5.81647V8.80941H7.30588V6.97412C7.30588 6.58588 7.58118 6.27529 7.94118 6.27529C8.29412 6.27529 8.52 6.48706 8.52 6.82588V8.80941H9.09882V6.91765C9.09882 6.55765 9.34588 6.27529 9.73412 6.27529C10.1224 6.27529 10.3129 6.47294 10.3129 6.88941V8.80941H10.9059V6.74118C10.9059 6.12 10.5529 5.75294 9.94588 5.75294C9.52941 5.75294 9.18353 5.96471 9.03529 6.28941H8.98588C8.85176 5.96471 8.56941 5.75294 8.16 5.75294C7.75765 5.75294 7.45412 5.95059 7.32706 6.28941H7.28471V5.80941L6.71294 5.81647ZM12.2047 14.5694C12.2047 11.9647 10.7506 10.3271 8.42118 10.3271C6.09176 10.3271 4.63765 11.9647 4.63765 14.5694C4.63765 17.1741 6.09176 18.8047 8.42118 18.8047C10.7506 18.8047 12.2047 17.1671 12.2047 14.5694ZM12.5718 8.85882C12.9671 8.85882 13.2918 8.68941 13.4753 8.38588H13.5247V8.80941H14.0965V6.76235C14.0965 6.13412 13.6729 5.76 12.9176 5.76C12.2329 5.76 11.7529 6.09176 11.6894 6.59294H12.2612C12.3247 6.37412 12.5576 6.25412 12.8894 6.25412C13.2918 6.25412 13.5035 6.43765 13.5035 6.76941V7.03059L12.6918 7.08C11.9788 7.12235 11.5765 7.43294 11.5765 7.97647C11.5694 8.51294 11.9929 8.85882 12.5718 8.85882ZM19.0447 16.3341C19.0447 15.1694 18.3671 14.4918 16.6588 14.1176L15.7482 13.92C14.6259 13.6729 14.1882 13.2282 14.1882 12.5859C14.1882 11.7529 14.9788 11.2518 16.0024 11.2518C17.0753 11.2518 17.7812 11.8024 17.8729 12.7059H18.8965C18.8471 11.3153 17.6682 10.3341 16.0306 10.3341C14.3294 10.3341 13.1365 11.2871 13.1365 12.6353C13.1365 13.8 13.8494 14.5482 15.4941 14.9082L16.4047 15.1059C17.5412 15.3529 18 15.8118 18 16.4965C18 17.3012 17.1882 17.8871 16.08 17.8871C14.9012 17.8871 14.0824 17.3506 13.9624 16.4682H12.9388C13.0376 17.8871 14.2306 18.8047 16.0235 18.8047C17.8518 18.8047 19.0447 17.8518 19.0447 16.3341Z" fill="#FDFDFD"/>
</g>
<defs>
<clipPath id="clip0_2036_3293">
<rect width="24" height="24" fill="white"/>
</clipPath>
</defs>
</svg>
