<svg width="24" height="24" viewBox="0 0 24 24" fill="none" xmlns="http://www.w3.org/2000/svg">
<mask id="mask0_2036_3322" style="mask-type:luminance" maskUnits="userSpaceOnUse" x="0" y="6" width="24" height="12">
<path d="M24 6H0V18H24V6Z" fill="white"/>
</mask>
<g mask="url(#mask0_2036_3322)">
<path d="M0.25 12C0.25 8.82308 2.82308 6.25 6 6.25H18C21.1745 6.25 23.75 8.82315 23.75 12C23.75 15.1744 21.1744 17.75 18 17.75H6C2.82315 17.75 0.25 15.1745 0.25 12Z" stroke="#FDFDFD" stroke-width="0.5"/>
<path d="M11.9675 12.6501V14.0201H11.1825V9.62256H12.645C14.0325 9.62256 14.6225 10.1201 14.6225 11.1126C14.6225 12.1351 13.9325 12.6501 12.645 12.6501H11.9675ZM11.9675 10.3451V11.9276H12.705C13.4325 11.9276 13.81 11.6901 13.81 11.0926C13.81 10.5526 13.4825 10.3451 12.7175 10.3451H11.9675ZM15.0375 11.1001C15.245 10.9451 15.62 10.8176 16.1625 10.8176C17.08 10.8176 17.53 11.1326 17.53 11.9476V14.0201H16.84V13.4551C16.69 13.8176 16.3075 14.0701 15.805 14.0701C15.17 14.0701 14.7925 13.7126 14.7925 13.0976C14.7925 12.3801 15.315 12.1801 16.0875 12.1801H16.795V12.0426C16.795 11.5951 16.5825 11.4576 16.1625 11.4576C15.585 11.4576 15.2525 11.6826 15.0375 12.0176V11.1001ZM16.795 12.9126V12.6576H16.175C15.74 12.6576 15.5325 12.7401 15.5325 13.0201C15.5325 13.2601 15.71 13.4101 16.035 13.4101C16.5325 13.4101 16.765 13.1276 16.795 12.9126ZM17.8925 10.8801H18.7125L19.5725 13.0326L20.275 10.8801H21.055L19.8 14.3526C19.5225 15.1051 19.24 15.2751 18.825 15.2751C18.63 15.2751 18.415 15.2201 18.3225 15.1376V14.4526C18.425 14.5526 18.56 14.6076 18.7 14.6101C18.925 14.6101 19.095 14.4601 19.215 14.0376L17.8925 10.8801ZM4.71997 11.1026V12.0676L5.99747 12.8676L9.05747 10.6151C8.94997 10.3776 8.81497 10.1551 8.65497 9.94756L5.99747 11.9026L4.71997 11.1026Z" fill="#FDFDFD"/>
<path d="M8.58005 11.9277V11.9977C8.58005 12.5752 8.38755 13.1352 8.03255 13.5927C7.67703 14.0479 7.17943 14.371 6.61898 14.5105C6.05853 14.65 5.4675 14.598 4.94005 14.3627C4.41255 14.1252 3.98005 13.7202 3.71005 13.2102C3.44083 12.6995 3.34935 12.1137 3.45005 11.5452C3.55255 10.9752 3.84255 10.4577 4.27255 10.0727C4.70303 9.68741 5.25025 9.45759 5.82673 9.41996C6.40323 9.38236 6.97568 9.53911 7.45255 9.86521L8.11005 9.38521C7.51743 8.90609 6.77963 8.64251 6.01755 8.63771C5.25505 8.63521 4.51505 8.89021 3.91505 9.36271C3.31673 9.83481 2.89695 10.4965 2.72473 11.239C2.55253 11.9814 2.63815 12.7604 2.96755 13.4477C3.29563 14.1352 3.84783 14.6907 4.53343 15.0228C5.219 15.3549 5.99718 15.4439 6.74005 15.2752C7.48328 15.1069 8.14715 14.6908 8.62255 14.0952C9.09755 13.5002 9.35755 12.7602 9.35755 11.9977C9.35755 11.7977 9.33755 11.5952 9.30255 11.3952L8.58005 11.9277Z" fill="#FDFDFD"/>
</g>
</svg>
