<svg width="24" height="24" viewBox="0 0 24 24" fill="none" xmlns="http://www.w3.org/2000/svg">
<g clip-path="url(#clip0_2036_3309)">
<path d="M2.00024 5.22388L4.90664 10.4189V13.5877L2.00364 18.7725L2.00024 5.22388Z" fill="#FDFDFD"/>
<path d="M13.1597 8.52865L15.8831 6.85945L21.4567 6.85425L13.1597 11.937V8.52865Z" fill="#FDFDFD"/>
<path d="M13.1441 5.1934L13.1595 12.0714L10.2463 10.2814V0L13.1441 5.1934Z" fill="#FDFDFD"/>
<path d="M21.4565 6.8542L15.8827 6.8594L13.1441 5.1934L10.2463 0L21.4565 6.8542Z" fill="#FDFDFD"/>
<path d="M13.1595 18.8015V15.4645L10.2463 13.7085L10.2479 24.0001L13.1595 18.8015Z" fill="#FDFDFD"/>
<path d="M15.8762 17.1473L4.90644 10.4189L2.00024 5.22388L21.4448 17.1405L15.8762 17.1473Z" fill="#FDFDFD"/>
<path d="M10.2483 24L13.1595 18.8014L15.8761 17.1474L21.4447 17.1406L10.2483 24Z" fill="#FDFDFD"/>
<path d="M2.00366 18.7726L10.2703 13.7086L7.49106 12.0034L4.90666 13.5878L2.00366 18.7726Z" fill="#FDFDFD"/>
</g>
<defs>
<clipPath id="clip0_2036_3309">
<rect width="24" height="24" fill="white"/>
</clipPath>
</defs>
</svg>
