<svg width="24" height="24" viewBox="0 0 24 24" fill="none" xmlns="http://www.w3.org/2000/svg">
<path d="M6.616 21.9999C6.15533 21.9999 5.771 21.8459 5.463 21.5379C5.155 21.2299 5.00067 20.8456 5 20.3849V10.6149C5 10.1549 5.15433 9.7709 5.463 9.46289C5.77167 9.15489 6.156 9.00056 6.616 8.99989H8.73V9.99989H6.616C6.462 9.99989 6.32067 10.0639 6.192 10.1919C6.06333 10.3199 5.99933 10.4612 6 10.6159V20.3849C6 20.5382 6.064 20.6792 6.192 20.8079C6.32 20.9366 6.461 21.0006 6.615 20.9999H17.385C17.5383 20.9999 17.6793 20.9359 17.808 20.8079C17.9367 20.6799 18.0007 20.5389 18 20.3849V10.6149C18 10.4616 17.936 10.3206 17.808 10.1919C17.68 10.0632 17.5387 9.99923 17.384 9.99989H15.27V8.99989H17.385C17.8457 8.99989 18.23 9.15423 18.538 9.46289C18.846 9.77156 19 10.1559 19 10.6159V20.3849C19 20.8449 18.8457 21.2292 18.537 21.5379C18.2283 21.8466 17.8443 22.0006 17.385 21.9999H6.616ZM11.5 15.4999V4.61389L9.4 6.71389L8.692 5.99989L12 2.69189L15.308 5.99989L14.6 6.71389L12.5 4.61389V15.4999H11.5Z" fill="#FF0633"/>
</svg>
