<svg width="24" height="24" viewBox="0 0 24 24" fill="none" xmlns="http://www.w3.org/2000/svg">
<path d="M17.4195 3C17.772 3.00011 18.1182 3.09341 18.4231 3.27042C18.728 3.44744 18.9806 3.70189 19.1555 4.008L22.4895 9.84C22.7071 10.2209 22.7934 10.6627 22.7352 11.0974C22.6771 11.5322 22.4776 11.9358 22.1675 12.246L12.8845 21.529C12.7684 21.6451 12.6306 21.7372 12.4789 21.8001C12.3272 21.8629 12.1647 21.8952 12.0005 21.8952C11.8363 21.8952 11.6737 21.8629 11.5221 21.8001C11.3704 21.7372 11.2326 21.6451 11.1165 21.529L1.83348 12.246C1.5234 11.9358 1.32391 11.5322 1.26572 11.0974C1.20754 10.6627 1.29389 10.2209 1.51148 9.84L4.84448 4.007C5.01938 3.70123 5.27194 3.44707 5.5766 3.27024C5.88126 3.09341 6.22722 3.00019 6.57948 3H17.4195ZM14.9995 6H8.99948C8.7446 6.00028 8.49945 6.09788 8.31412 6.27285C8.12878 6.44782 8.01725 6.68695 8.00231 6.94139C7.98737 7.19584 8.07016 7.44638 8.23375 7.64183C8.39734 7.83729 8.62939 7.9629 8.88248 7.993L8.99948 8H10.9995V9.545C10.2415 9.615 9.55248 9.762 8.99548 9.971C8.60048 10.119 8.24648 10.307 7.98248 10.542C7.71848 10.777 7.49948 11.099 7.49948 11.5C7.49948 11.901 7.71848 12.224 7.98248 12.458C8.24648 12.693 8.60048 12.881 8.99548 13.028C9.58948 13.251 10.3335 13.405 11.1525 13.468C11.0735 13.5941 11.0236 13.7362 11.0065 13.884L10.9995 14V16C10.9998 16.2549 11.0974 16.5 11.2723 16.6854C11.4473 16.8707 11.6864 16.9822 11.9409 16.9972C12.1953 17.0121 12.4459 16.9293 12.6413 16.7657C12.8368 16.6021 12.9624 16.3701 12.9925 16.117L12.9995 16V14C12.9996 13.8118 12.9465 13.6274 12.8465 13.468C13.6655 13.405 14.4095 13.252 15.0035 13.028C15.3985 12.881 15.7525 12.693 16.0165 12.458C16.2805 12.223 16.4995 11.901 16.4995 11.5C16.4995 11.099 16.2805 10.776 16.0165 10.542C15.7525 10.307 15.3985 10.119 15.0035 9.972C14.4595 9.77693 13.8947 9.64539 13.3205 9.58L12.9995 9.545V8H14.9995C15.2544 7.99972 15.4995 7.90212 15.6849 7.72715C15.8702 7.55218 15.9817 7.31305 15.9967 7.05861C16.0116 6.80416 15.9288 6.55362 15.7652 6.35817C15.6016 6.16271 15.3696 6.0371 15.1165 6.007L14.9995 6ZM12.9985 10.55C13.5625 10.5997 14.1182 10.7196 14.6525 10.907C14.9815 11.031 15.2125 11.166 15.3525 11.29C15.4133 11.3367 15.4614 11.3979 15.4925 11.468L15.4995 11.5L15.4925 11.532C15.4614 11.6021 15.4133 11.6633 15.3525 11.71C15.2125 11.834 14.9815 11.97 14.6525 12.092C13.9975 12.338 13.0595 12.5 11.9995 12.5C10.9395 12.5 10.0015 12.338 9.34648 12.092C9.01748 11.969 8.78648 11.834 8.64548 11.71C8.58471 11.6633 8.53659 11.6021 8.50548 11.532L8.49948 11.5C8.49948 11.487 8.50448 11.415 8.64548 11.29C8.78648 11.165 9.01748 11.03 9.34648 10.908C9.78648 10.743 10.3535 10.615 11.0005 10.55C11.012 10.8072 11.1223 11.0501 11.3084 11.228C11.4945 11.406 11.742 11.5053 11.9995 11.5053C12.257 11.5053 12.5045 11.406 12.6906 11.228C12.8767 11.0501 12.987 10.8072 12.9985 10.55Z" fill="#FDFDFD"/>
</svg>
