<svg width="24" height="24" viewBox="0 0 24 24" fill="none" xmlns="http://www.w3.org/2000/svg">
<path d="M12.3323 10.5095H10.3423V13.6879H11.3102V12.8329H12.3315C12.5715 12.8329 12.8053 12.8258 13.0327 12.7529C13.4735 12.6125 13.8006 12.2187 13.8006 11.6845C13.8006 11.1504 13.4798 10.7629 13.0461 10.6099C12.8061 10.5229 12.5786 10.5095 12.3315 10.5095H12.3323ZM11.311 12.0854V11.2774H12.1926C12.3793 11.2774 12.4868 11.2978 12.573 11.3308C12.7268 11.3912 12.7998 11.5308 12.7998 11.6783C12.7998 11.8383 12.7127 11.992 12.5464 12.0454C12.4664 12.072 12.373 12.0854 12.1926 12.0854H11.311Z" fill="#FDFDFD"/>
<path d="M15.1889 12.5262L15.6493 11.2445H15.723L16.1834 12.5262H15.1889ZM14.9488 13.2274H16.418L16.6046 13.6879H17.6926L16.3905 10.5095H14.9747L13.6726 13.6879H14.7676L14.948 13.2274H14.9488Z" fill="#FDFDFD"/>
<path d="M20.0489 10.5095L19.2614 11.9583H19.2277L18.4331 10.5095H17.3052L18.7406 12.8462V13.6879H19.7423V12.7662L21.1048 10.5095H20.0489Z" fill="#FDFDFD"/>
<path d="M2.896 9.56641H8.27381V12.271C8.27381 12.9644 7.90356 13.6052 7.30349 13.9519L5.58489 14.9442L3.86629 13.9519C3.26545 13.6052 2.896 12.9644 2.896 12.271V9.56641Z" fill="#FDFDFD"/>
<path fill-rule="evenodd" clip-rule="evenodd" d="M4.37139 10.9902V11.8311C4.4867 11.7009 4.69534 11.613 4.93458 11.613H5.19422V12.5912C5.19422 12.8516 5.12362 13.0791 5.01851 13.2046H6.14882C6.0445 13.0791 5.9739 12.8516 5.9739 12.592V11.6138H6.23353C6.47277 11.6138 6.68221 11.7017 6.79673 11.8319V10.991H4.37061L4.37139 10.9902Z" fill="#1E2025"/>
<path d="M5.87207 6.25H18.1279C21.2268 6.25015 23.75 8.81816 23.75 12C23.75 15.1794 21.2267 17.7499 18.1279 17.75H5.87207C2.77093 17.7499 0.25 15.1795 0.25 12C0.25 8.81802 2.77079 6.25015 5.87207 6.25Z" stroke="#FDFDFD" stroke-width="0.5"/>
</svg>
