<svg width="120" height="120" viewBox="0 0 120 120" fill="none" xmlns="http://www.w3.org/2000/svg">
<path d="M49.8155 34.2419C50.1933 34.6317 50.1243 35.2659 50.5673 35.6873L50.7438 35.5633C50.9093 35.1453 50.9622 31.4723 51.2313 30.7354C51.3953 30.287 51.1102 30.0639 51.6698 29.5883C52.0713 30.0013 52.0643 32.354 52.6278 33.1482L52.8463 33.1738C54.1078 31.8617 57.5978 13.3847 57.8658 10.5671C57.9968 9.18812 58.3408 6.86417 58.4858 5.40387C58.5073 5.18402 58.6368 5.08842 58.7963 5.00977C58.9638 5.43892 59.2467 8.80747 59.4533 9.80567C60.8438 16.5125 62.5322 23.0567 64.4738 29.6234C64.7593 30.5878 65.3848 33.2558 65.8322 33.9774C66.4067 33.1039 62.9523 26.9184 67.0818 20.9893L67.8178 19.6865C68.6483 19.9811 67.8363 21.1317 67.7933 21.8087C67.6168 24.5893 67.4203 26.6669 68.7988 29.1644C69.1618 28.7104 69.4953 28.285 69.8953 27.86C70.1923 27.4463 70.7592 26.5835 71.2247 26.4699C71.3622 26.846 71.2517 26.8778 71.0822 27.3607C70.5862 28.8826 70.6067 29.8564 70.8452 31.3969C71.8962 30.934 74.3962 29.7628 75.0617 28.7682C75.6402 27.9029 73.9762 27.5892 73.7882 26.7588C73.5647 25.7701 74.3862 24.5778 74.8742 23.7105C76.8022 22.7999 77.2912 22.3093 79.4812 21.6742C81.5217 20.6367 81.8248 19.9819 83.6077 18.8255C83.1497 19.5974 82.6637 20.4704 82.1003 21.1573C80.9597 23.1122 79.1068 22.8192 77.5342 25.0262C77.9617 25.7801 78.2167 26.2354 78.4272 27.1025C78.0642 28.7577 77.6227 29.0915 76.8753 30.5334C77.3553 30.1033 77.7532 29.7453 78.1997 29.2757C78.6452 28.7764 79.6188 27.9392 80.1458 27.46C82.7753 25.0006 85.3268 22.5976 87.6253 19.8214C87.9717 19.4031 88.3418 19.0641 88.7682 18.7267C87.4723 20.8825 85.8828 22.9414 84.5732 25.0853C85.9368 24.0537 87.5052 22.614 88.8237 21.4765L95.6263 15.5938C96.5892 14.7466 98.5187 12.8441 99.4372 12.2338C98.7127 13.3928 97.8917 14.4108 97.1452 15.5434C95.2627 18.4529 93.4152 21.3847 91.6027 24.3383C90.9637 25.3761 89.9987 26.7992 89.4302 27.7919C89.9622 27.353 91.4512 25.8443 91.9627 25.8137C91.8627 26.321 89.0928 29.9797 88.5612 31.0025C89.1468 30.4852 89.4392 30.2244 89.9447 29.6201L90.4857 29.6261C88.9402 32.3275 86.5703 34.3482 85.0322 36.5445C86.1308 35.8459 86.5847 35.1767 87.5443 34.4177C86.2738 36.6985 83.7438 39.2342 82.2757 41.5292C82.0382 41.9009 81.8777 43.1672 81.6357 43.776C81.2197 44.8221 80.6612 45.6028 80.1012 46.5718L80.2022 46.7469C81.2472 46.4553 81.6673 44.3356 82.5693 43.6415C82.8408 43.4944 83.7627 42.5769 84.1953 42.3122C86.3477 40.996 88.1067 40.1155 90.4552 39.2425C89.6702 40.3733 87.8893 42.145 87.6328 43.2684C87.7243 43.7024 87.6287 43.5635 87.9757 43.7975C89.6272 43.999 90.3232 43.8512 91.8232 43.2613C92.7548 42.0688 92.9668 40.7585 93.6702 39.747C95.4682 37.1628 99.6417 37.3222 102.601 36.7983C103.041 36.7712 103.445 36.6813 103.775 36.945C103.859 37.1182 103.935 37.2431 103.96 37.4342C102.936 38.4038 102.598 38.7843 101.288 39.3418C99.9443 39.9136 97.9817 39.3606 97.0457 40.4049C95.3462 42.3025 96.8432 45.0302 94.2257 46.5877C92.7657 46.6044 91.2428 46.5278 90.1413 47.6374C89.7113 48.0706 89.5003 48.9962 89.2552 49.6024C89.6437 51.0289 93.7507 49.4917 94.2738 49.7062C93.8067 50.4724 92.4297 51.3984 91.5423 51.7224C91.1302 51.9089 90.2732 52.1814 90.0557 52.4479C91.4987 52.9914 96.3187 53.6609 98.0662 53.9999C101.57 54.6794 105.253 55.3579 108.77 56.0504C109.989 56.2904 113.405 56.7434 114.307 57.1954C106.162 57.6234 98.0687 58.9484 90.2552 61.3404C89.7237 61.5029 85.3157 63.8864 84.5607 64.2604L84.4702 64.4529L84.5822 64.5824C84.9602 64.9869 85.0297 65.0609 85.2062 65.5794L85.1387 65.5514C84.2527 65.1764 84.3387 64.8959 83.1267 65.0229L83.0033 65.1809C83.4443 65.8084 84.6597 66.1554 85.4002 66.3764L82.5157 67.1404C84.3247 69.1339 83.7458 68.3079 85.3887 69.5424C84.1697 69.1509 82.5452 67.9499 81.4863 67.9524L81.2552 68.0749C81.2783 68.3379 85.2577 75.1809 85.6717 75.7994C84.8107 75.2219 83.9743 74.5144 83.1898 73.9999C84.4857 75.9149 87.2783 79.0859 88.1338 80.8559C87.1862 79.9614 86.4582 79.1444 85.3282 78.4849C89.0902 84.1064 93.2452 89.6284 97.3357 95.0149C98.4257 96.4499 99.9463 97.7924 100.863 99.3209C99.3153 98.2154 97.8353 96.7809 96.2923 95.5714C89.1787 89.9939 82.0082 85.3399 74.3087 80.6229C74.9847 81.4759 76.6702 83.3679 76.9753 84.2679C77.4902 85.0389 77.9613 85.7184 78.3832 86.5444C76.8158 85.4519 73.8207 81.7174 72.4187 81.9654C72.1612 83.1694 74.3952 85.8924 75.1608 86.7514C76.1848 87.9009 75.9982 89.2519 76.0617 90.7499C75.3782 90.3689 73.8662 89.3494 73.3487 90.6359C73.0723 91.3244 73.4312 92.7469 73.7452 93.4284C73.8057 93.5609 73.8688 93.6919 73.9333 93.8224C76.0283 95.0044 78.2667 95.2309 79.7137 96.9944C79.7392 99.3409 78.8477 100.053 78.5498 102.258C79.8213 105.582 82.9587 104.953 83.9437 108.593C84.1322 109.29 84.3242 109.307 84.1888 110.073L84.0747 110.178C83.6602 109.446 82.7972 107.8 82.2438 107.243C80.7648 105.757 78.6257 105.684 77.3887 103.803C76.4297 102.344 77.5133 99.6604 76.4297 98.7119C74.6082 97.1164 72.4882 97.7489 70.7752 95.5874C69.5477 94.0384 69.5213 90.7669 68.0568 89.8464C67.5403 90.0879 67.3033 90.8334 67.1108 91.3709C67.0563 91.5224 67.0068 91.6759 66.9633 91.8314C66.6963 91.3624 66.1323 90.4299 65.9288 89.9774C65.7983 89.8664 64.7417 87.8674 64.5392 87.5209C64.2183 87.1889 63.7993 86.5489 63.5213 86.1524L62.9543 87.2199C62.5882 88.1439 62.3868 88.7459 62.1193 89.7034C62.1423 90.2474 62.1693 90.4264 61.9988 90.9359L61.8643 90.9909C61.0628 89.7869 61.1283 87.3309 61.2788 85.9574C60.3258 87.5549 58.7778 91.1764 58.0968 92.8694C55.9123 98.3174 54.0578 103.892 52.5433 109.562C52.1668 111.002 51.9398 112.37 51.5923 113.797C51.4798 112.737 51.5463 111.549 51.5408 110.477C51.4903 101.021 50.6448 91.6914 49.7081 82.2854C49.3228 83.6074 48.5828 85.6139 47.6725 86.6604C47.3423 87.2154 46.4378 88.8944 45.9235 89.0649C45.8658 88.7849 46.3302 85.0139 46.3583 84.2249C43.3371 86.2634 44.1921 86.9659 42.2799 89.5789C41.7342 90.3244 39.0178 90.7194 38.5279 91.8974C37.3759 93.9439 37.6572 96.2049 35.8525 98.0174C33.4188 100.461 30.2294 99.2894 28.4832 102.842C28.0431 103.155 27.6365 103.957 27.1499 103.997C26.9976 103.651 27.1866 103.231 27.3003 102.852C28.637 98.1894 30.7983 99.5684 33.9068 97.6779C35.1395 96.8629 35.6852 94.7874 35.239 93.4464C34.7435 91.9569 34.4505 91.8864 34.6716 90.3484C35.3323 88.4604 37.7299 88.0109 39.4205 86.7654C39.6385 86.1854 40.0454 85.2794 39.9336 84.6924C39.859 84.5054 39.7573 84.0579 39.5942 83.9629C38.2045 83.1509 36.5837 85.3129 35.6724 86.1904C35.8288 85.5989 36.0717 85.0399 36.3012 84.4729C36.733 83.4359 37.2314 82.4084 37.711 81.3909C37.2637 81.7109 36.8565 81.9184 36.3878 82.1924C30.0316 85.9124 23.4922 89.2779 17.342 93.3504C15.8083 94.3659 14.2208 95.6424 12.6018 96.4929C13.6867 95.2404 15.5909 93.6914 16.8346 92.4314C20.8314 88.3834 25.0228 84.2999 28.5374 79.8229C29.1613 79.0279 29.8352 78.5239 30.3955 77.6229L30.2997 77.5109C28.8223 78.0174 27.2463 79.7799 25.7229 80.3509C27.398 78.3404 33.1045 73.1469 34.03 71.3484C34.5202 70.8619 34.9545 70.3679 35.4135 69.8534C34.8999 70.0694 34.4435 70.3829 33.9737 70.6824C33.0059 71.2214 30.1331 73.4434 29.6639 73.3614C29.6941 72.9659 30.6677 71.9159 31.0252 71.8204C31.5038 70.9754 32.2459 70.2604 32.9215 69.5709C31.105 70.3384 30.362 71.3154 28.1807 71.5099C27.5549 71.6329 26.4875 71.5474 25.8979 71.6369C23.4179 72.0119 23.0165 72.2579 20.5021 71.9389C21.0789 71.5964 21.792 71.2884 22.1999 70.7774L22.1228 70.5364C18.3966 69.5449 17.8032 72.0449 14.8531 73.4314C12.8404 74.3769 11.4068 73.5119 9.3317 73.7394C8.59445 73.8204 7.0534 74.5284 6.4541 74.3049C6.8568 73.5884 9.2552 72.3549 10.081 72.3619C12.2661 72.3799 13.1533 72.4239 15.0453 71.1759C15.1233 70.7354 15.16 70.1149 15.2009 69.6564C14.7271 69.0414 14.5728 68.7759 14.2086 68.0964C16.0077 66.7994 19.0019 64.7584 21.2819 66.0224C22.7211 66.6909 23.1052 67.1039 24.575 66.3089C26.2138 65.4229 26.7017 65.4014 26.7253 63.4564C27.2121 62.4024 30.0245 62.2009 31.1281 61.8339C31.8752 61.5854 32.1739 61.4794 32.9275 61.1304C32.2124 60.0949 29.3065 59.4654 28.5237 58.8284C28.718 58.6269 28.7452 58.6064 28.8727 58.3609C27.3396 56.8914 15.2174 51.3589 12.6008 50.5974C11.4049 50.2494 7.25175 49.2448 6.5513 48.8718C6.65515 48.6697 6.8352 48.6792 7.07305 48.7213C14.7091 50.0734 22.4736 51.0454 30.2428 50.8304C30.8201 50.8144 32.847 50.7959 33.2803 50.5644C33.2619 50.3864 33.3108 50.4639 33.1026 50.3704C31.6681 49.7244 30.7803 49.4824 29.6048 48.3986C30.0139 48.5774 30.6531 49.0154 31.1504 49.2516C33.2041 50.2274 34.6217 50.2854 36.7899 50.4954C35.7518 49.5969 34.7214 48.7437 33.7984 47.7247C34.9323 48.3923 36.2868 49.2497 37.5047 49.6865C36.4863 48.0898 35.063 47.0692 34.1502 45.5145C34.9771 46.1383 37.8665 50.0439 38.759 49.8324C38.7149 49.0706 37.7652 48.215 37.8299 47.6063C38.0757 47.626 38.3219 47.6399 38.5683 47.648C38.6019 47.1139 33.0671 38.7688 32.2057 37.4494C31.2281 35.9518 29.1593 33.7116 28.1093 32.021C28.7172 32.3847 29.9636 33.5005 30.5888 34.0141C31.6204 34.8615 32.493 35.4807 33.5965 36.2398C29.5015 30.4611 26.1794 24.1593 21.8404 18.5666C20.8807 17.3297 19.7605 16.2697 18.8454 14.9646C19.9794 15.7818 21.8597 17.6228 22.7436 18.3686C25.0125 20.283 41.3185 33.2704 42.8238 33.2511L42.8827 33.2918C45.3541 35.0291 46.2658 35.9277 49.249 37.3336L49.4667 37.3442L49.6544 36.9795C49.9017 37.1395 49.9506 37.2052 50.2263 37.1845C50.5558 36.4414 49.9357 35.096 49.8155 34.2419ZM20.704 89.6694C25.7725 85.1619 30.9876 78.4594 35.3305 73.0814C34.5775 73.5124 33.6073 74.2619 32.776 74.7789C33.3678 73.7649 34.2143 72.9289 34.868 72.0139C36.9258 69.1319 38.3835 67.5254 40.955 65.1249C40.8798 65.1369 40.8044 65.1474 40.7289 65.1569C40.0627 65.2419 38.2703 65.3489 37.7509 64.9499C37.9914 64.4149 39.9327 63.6589 40.5711 63.3709C35.4514 60.6374 30.9729 57.8194 25.5883 55.1884C23.8744 54.3624 22.1363 53.5874 20.3764 52.8649C18.8482 52.2499 17.1681 51.6844 15.7471 50.8854L15.754 50.8004C16.316 50.7229 16.5521 50.8384 17.0763 50.9024C19.5396 51.2034 22.116 51.5114 24.5878 51.6614C29.907 51.9329 35.2389 51.8099 40.5399 51.2939C39.3931 49.9985 39.1474 49.723 38.4886 48.1407C39.5092 48.3277 41.0036 49.081 41.9833 49.5392C38.8873 46.223 38.1004 44.266 36.0126 40.4072C35.2505 38.9985 34.1092 37.5302 33.3032 36.045C34.2746 36.7262 34.7603 37.3613 35.5337 38.2567L35.9898 38.0768C33.9447 35.2705 32.7703 33.0595 30.9718 30.155C29.1593 27.2698 27.2717 24.4324 25.3111 21.6457C26.0801 22.0927 27.26 23.0867 27.9979 23.6629L32.5078 27.1503C39.5618 32.5626 44.1408 36.1994 52.1918 40.1365C51.9798 38.1168 51.9653 35.8202 51.9143 33.7682C52.4468 34.6721 52.6803 35.4606 52.9743 36.4547C56.0728 29.2443 57.9622 18.4375 58.6533 10.6248C59.2013 12.4743 59.5123 15.0236 59.9933 17.0243C61.0388 21.3743 62.1803 25.5636 63.5193 29.8298C64.2733 32.2323 64.8122 34.9986 65.8088 37.3111L66.1838 37.8968C66.3927 38.2634 66.4783 38.4404 66.7748 38.7457C67.8518 38.7695 77.3317 31.7764 78.8792 30.6047C77.9007 29.9131 78.6717 30.1683 78.1997 29.2757C77.7532 29.7453 77.3553 30.1033 76.8753 30.5334C77.6227 29.0915 78.0642 28.7577 78.4272 27.1025C78.2167 26.2354 77.9617 25.7801 77.5342 25.0262C79.1068 22.8192 80.9597 23.1122 82.1003 21.1573C82.6637 20.4704 83.1497 19.5974 83.6077 18.8255C81.8248 19.9819 81.5217 20.6367 79.4812 21.6742C77.2912 22.3093 76.8022 22.7999 74.8742 23.7105C74.3862 24.5778 73.5647 25.7701 73.7882 26.7588C73.9762 27.5892 75.6402 27.9029 75.0617 28.7682C74.3962 29.7628 71.8962 30.934 70.8452 31.3969C70.6067 29.8564 70.5862 28.8826 71.0822 27.3607C71.2517 26.8778 71.3622 26.846 71.2247 26.4699C70.7592 26.5835 70.1923 27.4463 69.8953 27.86C69.4953 28.285 69.1618 28.7104 68.7988 29.1644C67.4203 26.6669 67.6168 24.5893 67.7933 21.8087C67.8363 21.1317 68.6483 19.9811 67.8178 19.6865L67.0818 20.9893C62.9523 26.9184 66.4067 33.1039 65.8322 33.9774C65.3848 33.2558 64.7593 30.5878 64.4738 29.6234C62.5322 23.0567 60.8438 16.5125 59.4533 9.80567C59.2467 8.80747 58.9638 5.43892 58.7963 5.00977C58.6368 5.08842 58.5073 5.18402 58.4858 5.40387C58.3408 6.86417 57.9968 9.18812 57.8658 10.5671C57.5978 13.3847 54.1078 31.8617 52.8463 33.1738L52.6278 33.1482C52.0643 32.354 52.0713 30.0013 51.6698 29.5883C51.1102 30.0639 51.3953 30.287 51.2313 30.7354C50.9622 31.4723 50.9093 35.1453 50.7438 35.5633L50.5673 35.6873C50.1243 35.2659 50.1933 34.6317 49.8155 34.2419C49.9357 35.096 50.5558 36.4414 50.2263 37.1845C49.9506 37.2052 49.9017 37.1395 49.6544 36.9795L49.4667 37.3442L49.249 37.3336C46.2658 35.9277 45.3541 35.0291 42.8827 33.2918L42.8238 33.2511C41.3185 33.2704 25.0125 20.283 22.7436 18.3686C21.8597 17.6228 19.9794 15.7818 18.8454 14.9646C19.7605 16.2697 20.8807 17.3297 21.8404 18.5666C26.1794 24.1593 29.5015 30.4611 33.5965 36.2398C32.493 35.4807 31.6204 34.8615 30.5888 34.0141C29.9636 33.5005 28.7172 32.3847 28.1093 32.021C29.1593 33.7116 31.2281 35.9518 32.2057 37.4494C33.0671 38.7688 38.6019 47.1139 38.5683 47.648C38.3219 47.6399 38.0757 47.626 37.8299 47.6063C37.7652 48.215 38.7149 49.0706 38.759 49.8324C37.8665 50.0439 34.9771 46.1383 34.1502 45.5145C35.063 47.0692 36.4863 48.0898 37.5047 49.6865C36.2868 49.2497 34.9323 48.3923 33.7984 47.7247C34.7214 48.7437 35.7518 49.5969 36.7899 50.4954C34.6217 50.2854 33.2041 50.2274 31.1504 49.2516C30.6531 49.0154 30.0139 48.5774 29.6048 48.3986C30.7803 49.4824 31.6681 49.7244 33.1026 50.3704C33.3108 50.4639 33.2619 50.3864 33.2803 50.5644C32.847 50.7959 30.8201 50.8144 30.2428 50.8304C22.4736 51.0454 14.7091 50.0734 7.07305 48.7213C6.8352 48.6792 6.65515 48.6697 6.5513 48.8718C7.25175 49.2448 11.4049 50.2494 12.6008 50.5974C15.2174 51.3589 27.3396 56.8914 28.8727 58.3609C28.7452 58.6064 28.718 58.6269 28.5237 58.8284C29.3065 59.4654 32.2124 60.0949 32.9275 61.1304C32.1739 61.4794 31.8752 61.5854 31.1281 61.8339C30.0245 62.2009 27.2121 62.4024 26.7253 63.4564C26.7017 65.4014 26.2138 65.4229 24.575 66.3089C23.1052 67.1039 22.7211 66.6909 21.2819 66.0224C19.0019 64.7584 16.0077 66.7994 14.2086 68.0964C14.5728 68.7759 14.7271 69.0414 15.2009 69.6564C15.16 70.1149 15.1233 70.7354 15.0453 71.1759C13.1533 72.4239 12.2661 72.3799 10.081 72.3619C9.2552 72.3549 6.8568 73.5884 6.4541 74.3049C7.0534 74.5284 8.59445 73.8204 9.3317 73.7394C11.4068 73.5119 12.8404 74.3769 14.8531 73.4314C17.8032 72.0449 18.3966 69.5449 22.1228 70.5364L22.1999 70.7774C21.792 71.2884 21.0789 71.5964 20.5021 71.9389C23.0165 72.2579 23.4179 72.0119 25.8979 71.6369C26.4875 71.5474 27.5549 71.6329 28.1807 71.5099C30.362 71.3154 31.105 70.3384 32.9215 69.5709C32.2459 70.2604 31.5038 70.9754 31.0252 71.8204C30.6677 71.9159 29.6941 72.9659 29.6639 73.3614C30.1331 73.4434 33.0059 71.2214 33.9737 70.6824C34.4435 70.3829 34.8999 70.0694 35.4135 69.8534C34.9545 70.3679 34.5202 70.8619 34.03 71.3484C33.1045 73.1469 27.398 78.3404 25.7229 80.3509C27.2463 79.7799 28.8223 78.0174 30.2997 77.5109L30.3955 77.6229C29.8352 78.5239 29.1613 79.0279 28.5374 79.8229C25.0228 84.2999 20.8314 88.3834 16.8346 92.4314C15.5909 93.6914 13.6867 95.2404 12.6018 96.4929C14.2208 95.6424 15.8083 94.3659 17.342 93.3504C23.4922 89.2779 30.0316 85.9124 36.3878 82.1924C36.8565 81.9184 37.2637 81.7109 37.711 81.3909C37.2314 82.4084 36.733 83.4359 36.3012 84.4729C36.0717 85.0399 35.8288 85.5989 35.6724 86.1904C36.5837 85.3129 38.2045 83.1509 39.5942 83.9629C39.7573 84.0579 39.859 84.5054 39.9336 84.6924C40.0454 85.2794 39.6385 86.1854 39.4205 86.7654C37.7299 88.0109 35.3323 88.4604 34.6716 90.3484C34.4505 91.8864 34.7435 91.9569 35.239 93.4464C35.6852 94.7874 35.1395 96.8629 33.9068 97.6779C30.7983 99.5684 28.637 98.1894 27.3003 102.852C27.1866 103.231 26.9976 103.651 27.1499 103.997C27.6365 103.957 28.0431 103.155 28.4832 102.842C30.2294 99.2894 33.4188 100.461 35.8525 98.0174C37.6572 96.2049 37.3759 93.9439 38.5279 91.8974C39.0178 90.7194 41.7342 90.3244 42.2799 89.5789C44.1921 86.9659 43.3371 86.2634 46.3583 84.2249C46.3302 85.0139 45.8658 88.7849 45.9235 89.0649C46.4378 88.8944 47.3423 87.2154 47.6725 86.6604C48.5828 85.6139 49.3228 83.6074 49.7081 82.2854C50.6448 91.6914 51.4903 101.021 51.5408 110.477C51.5463 111.549 51.4798 112.737 51.5923 113.797C51.9398 112.37 52.1668 111.002 52.5433 109.562C54.0578 103.892 55.9123 98.3174 58.0968 92.8694C58.7778 91.1764 60.3258 87.5549 61.2788 85.9574C61.1283 87.3309 61.0628 89.7869 61.8643 90.9909L61.9988 90.9359C62.1693 90.4264 62.1423 90.2474 62.1193 89.7034C62.3868 88.7459 62.5882 88.1439 62.9543 87.2199L63.5213 86.1524C63.7993 86.5489 64.2183 87.1889 64.5392 87.5209C64.7417 87.8674 65.7983 89.8664 65.9288 89.9774C66.1323 90.4299 66.6963 91.3624 66.9633 91.8314C67.0068 91.6759 67.0563 91.5224 67.1108 91.3709C67.3033 90.8334 67.5403 90.0879 68.0568 89.8464C69.5213 90.7669 69.5477 94.0384 70.7752 95.5874C72.4882 97.7489 74.6082 97.1164 76.4297 98.7119C77.5133 99.6604 76.4297 102.344 77.3887 103.803C78.6257 105.684 80.7648 105.757 82.2438 107.243C82.7972 107.8 83.6602 109.446 84.0747 110.178L84.1888 110.073C84.3242 109.307 84.1322 109.29 83.9437 108.593C82.9587 104.953 79.8213 105.582 78.5498 102.258C78.8477 100.053 79.7392 99.3409 79.7137 96.9944C78.2667 95.2309 76.0283 95.0044 73.9333 93.8224C73.8688 93.6919 73.8057 93.5609 73.7452 93.4284C73.4312 92.7469 73.0723 91.3244 73.3487 90.6359C73.8662 89.3494 75.3782 90.3689 76.0617 90.7499C75.9982 89.2519 76.1848 87.9009 75.1608 86.7514C74.3952 85.8924 72.1612 83.1694 72.4187 81.9654C73.8207 81.7174 76.8158 85.4519 78.3832 86.5444C77.9613 85.7184 77.4902 85.0389 76.9753 84.2679C76.6702 83.3679 74.9847 81.4759 74.3087 80.6229C82.0082 85.3399 89.1787 89.9939 96.2923 95.5714C97.8353 96.7809 99.3153 98.2154 100.863 99.3209C99.9463 97.7924 98.4257 96.4499 97.3357 95.0149C93.2452 89.6284 89.0902 84.1064 85.3282 78.4849C86.4582 79.1444 87.1862 79.9614 88.1338 80.8559C87.2783 79.0859 84.4857 75.9149 83.1898 73.9999C83.9743 74.5144 84.8107 75.2219 85.6717 75.7994C85.2577 75.1809 81.2783 68.3379 81.2552 68.0749L81.4863 67.9524C82.5452 67.9499 84.1697 69.1509 85.3887 69.5424C83.7458 68.3079 84.3247 69.1339 82.5157 67.1404L85.4002 66.3764C84.6597 66.1554 83.4443 65.8084 83.0033 65.1809L83.1267 65.0229C84.3387 64.8959 84.2527 65.1764 85.1387 65.5514L85.2062 65.5794C85.0297 65.0609 84.9602 64.9869 84.5822 64.5824L84.4702 64.4529L84.5607 64.2604C85.3157 63.8864 89.7237 61.5029 90.2552 61.3404C98.0687 58.9484 106.162 57.6234 114.307 57.1954C113.405 56.7434 109.989 56.2904 108.77 56.0504C105.253 55.3579 101.57 54.6794 98.0662 53.9999C96.3187 53.6609 91.4987 52.9914 90.0557 52.4479C90.2732 52.1814 91.1302 51.9089 91.5423 51.7224C92.4297 51.3984 93.8067 50.4724 94.2738 49.7062C93.7507 49.4917 89.6437 51.0289 89.2552 49.6024C89.5003 48.9962 89.7113 48.0706 90.1413 47.6374C91.2428 46.5278 92.7657 46.6044 94.2257 46.5877C96.8432 45.0302 95.3462 42.3025 97.0457 40.4049C97.9817 39.3606 99.9443 39.9136 101.288 39.3418C102.598 38.7843 102.936 38.4038 103.96 37.4342C103.935 37.2431 103.859 37.1182 103.775 36.945C103.445 36.6813 103.041 36.7712 102.601 36.7983C99.6417 37.3222 95.4682 37.1628 93.6702 39.747C92.9668 40.7585 92.7548 42.0688 91.8232 43.2613C90.3232 43.8512 89.6272 43.999 87.9757 43.7975C87.6287 43.5635 87.7243 43.7024 87.6328 43.2684C87.8893 42.145 89.6702 40.3733 90.4552 39.2425C88.1067 40.1155 86.3477 40.996 84.1953 42.3122C83.7627 42.5769 82.8408 43.4944 82.5693 43.6415C81.6673 44.3356 81.2472 46.4553 80.2022 46.7469L80.1012 46.5718C80.6612 45.6028 81.2197 44.8221 81.6357 43.776C81.8777 43.1672 82.0382 41.9009 82.2757 41.5292C83.7438 39.2342 86.2738 36.6985 87.5443 34.4177C86.5847 35.1767 86.1308 35.8459 85.0322 36.5445C86.5703 34.3482 88.9402 32.3275 90.4857 29.6261L89.9447 29.6201C89.4392 30.2244 89.1468 30.4852 88.5612 31.0025C89.0928 29.9797 91.8627 26.321 91.9627 25.8137C91.4512 25.8443 89.9622 27.353 89.4302 27.7919C89.9987 26.7992 90.9637 25.3761 91.6027 24.3383C93.4152 21.3847 95.2627 18.4529 97.1452 15.5434C97.8917 14.4108 98.7127 13.3928 99.4372 12.2338C98.5187 12.8441 96.5892 14.7466 95.6263 15.5938L88.8237 21.4765C87.5052 22.614 85.9368 24.0537 84.5732 25.0853C85.8828 22.9414 87.4723 20.8825 88.7682 18.7267C88.3418 19.0641 87.9717 19.4031 87.6253 19.8214C85.3268 22.5976 82.7753 25.0006 80.1458 27.46L80.8242 27.6256C81.8702 26.7454 82.7957 25.9127 83.9557 25.1841C83.6352 25.8703 82.2463 27.8747 82.2513 28.1433L82.3012 28.2088C85.3807 26.3304 91.4528 20.3453 94.0573 17.6111L94.4272 18.0832C91.5422 21.5634 89.1652 26.0124 86.5297 29.7183C86.0788 30.3519 85.5707 31.0906 85.1782 31.7588C86.5972 30.6901 86.9473 29.7153 88.5563 28.6758C88.0778 29.4985 87.5117 30.2609 86.9412 31.021C85.7012 32.6719 84.5837 34.4061 83.4122 36.1052L83.5518 36.335L84.3102 36.1467L84.4248 36.2832L84.1787 36.5261C83.2117 37.9405 80.9832 41.1049 79.8732 42.3258L80.3602 42.4391L80.6292 42.4081C80.6413 42.4791 80.6532 42.5501 80.6652 42.6211C79.4012 44.5594 77.6357 48.2451 76.4217 49.9574C76.3727 50.0269 76.3232 50.0959 76.2728 50.1644C76.8108 50.0834 78.2262 49.7795 78.6348 49.99C78.5182 50.5164 77.9377 50.9039 77.4992 51.2694C86.2617 52.8534 94.8873 54.9829 103.694 56.3004C104.74 56.4564 106.117 56.4094 107.092 56.6984L107.047 56.8369C106.179 57.1199 105.026 57.1379 104.075 57.2639C102.781 57.4419 101.492 57.6549 100.209 57.9019C93.9868 59.0754 88.3772 60.2659 82.7732 63.2514C82.4077 63.4459 79.1492 64.7519 79.0677 64.8539C80.1413 65.4644 81.3607 65.7669 82.3913 66.3209C81.3808 66.4559 79.7742 66.7224 78.8012 66.7764C80.1617 68.8209 81.4952 70.8839 82.8002 72.9644C81.6302 72.3634 80.9267 71.6194 79.9507 70.7399C83.4422 77.1454 87.3613 83.3084 91.6813 89.1879C92.1042 89.7569 93.8988 92.1994 94.3142 92.5934L94.1612 93.1674C92.7857 91.9719 91.1702 90.8344 89.7267 89.7104C85.3247 86.2809 80.6728 83.1439 75.9323 80.1979C73.1298 78.4559 70.0018 76.4129 67.1138 74.8274C67.9118 75.9829 68.9183 76.8479 69.5313 77.7584C68.5733 77.3164 67.6222 76.8589 66.6792 76.3859L67.8748 79.0849C66.7748 78.1119 65.7533 77.2169 64.6063 76.2994L63.8753 80.7359C63.6343 80.2294 63.3828 79.5744 62.9713 79.2179L62.7918 79.2414C59.3118 88.2064 55.0903 96.1179 52.7048 105.754L52.3868 105.648C52.1003 104.917 52.4433 103.128 52.1618 102.053C52.1128 95.7154 51.5483 89.1584 51.0983 82.8339C50.9067 80.1399 49.8717 77.0644 49.9194 74.4019C48.1232 75.5914 46.4803 77.2064 44.6585 78.3744C45.0522 77.5229 45.4666 76.6814 45.901 75.8499C44.3865 76.5924 42.9523 77.4379 41.5816 78.4164C41.139 78.7324 40.6867 79.0764 40.2014 79.3209C40.1872 79.1029 40.1953 78.9269 40.2027 78.7084C39.5323 78.6849 22.3883 89.1199 20.6534 90.4844L20.4744 90.2124L20.704 89.6694Z" fill="#EC0100"/>
<path d="M20.7043 89.6689L20.4747 90.2119L20.6537 90.4839C20.3128 90.9324 19.0002 91.5549 18.4365 91.8454C19.1777 91.0239 19.8847 90.4034 20.7043 89.6689Z" fill="#C10001" fill-opacity="0.976471"/>
<path d="M52.1622 102.053C52.4437 103.128 52.1007 104.916 52.3872 105.647L52.7052 105.754C52.6107 106.181 52.3212 106.777 52.1377 107.193L52.1622 102.053Z" fill="#C10001" fill-opacity="0.964706"/>
<path d="M95.8881 16.0215C95.4721 16.6212 94.8731 17.54 94.4276 18.0831L94.0576 17.6109C94.6561 16.9402 95.1631 16.5554 95.8881 16.0215Z" fill="#C10001" fill-opacity="0.968627"/>
<path d="M94.3141 92.5928C94.8671 93.2393 95.2421 93.6883 95.7206 94.3888C95.2116 94.0053 94.6301 93.5893 94.1611 93.1668L94.3141 92.5928Z" fill="#C10001" fill-opacity="0.980392"/>
<path d="M49.8155 34.2419C50.1933 34.6317 50.1243 35.2659 50.5673 35.6873L50.7438 35.5633C50.9093 35.1453 50.9622 31.4723 51.2313 30.7354C51.3953 30.287 51.1102 30.0639 51.6698 29.5883C52.0713 30.0013 52.0643 32.354 52.6278 33.1482L52.8463 33.1738C54.1078 31.8617 57.5978 13.3847 57.8658 10.5671C57.9968 9.18812 58.3408 6.86417 58.4858 5.40387C58.5073 5.18402 58.6368 5.08842 58.7963 5.00977C58.9638 5.43892 59.2467 8.80747 59.4533 9.80567C60.8438 16.5125 62.5322 23.0567 64.4738 29.6234C64.7593 30.5878 65.3848 33.2558 65.8322 33.9774C66.4067 33.1039 62.9523 26.9184 67.0818 20.9893L67.8178 19.6865C68.6483 19.9811 67.8363 21.1317 67.7933 21.8087C67.6168 24.5893 67.4203 26.6669 68.7988 29.1644C69.1618 28.7104 69.4953 28.285 69.8953 27.86C70.1923 27.4463 70.7592 26.5835 71.2247 26.4699C71.3622 26.846 71.2517 26.8778 71.0822 27.3607C70.5862 28.8826 70.6067 29.8564 70.8452 31.3969C71.8962 30.934 74.3962 29.7628 75.0617 28.7682C75.6402 27.9029 73.9762 27.5892 73.7882 26.7588C73.5647 25.7701 74.3862 24.5778 74.8742 23.7105C76.8022 22.7999 77.2912 22.3093 79.4812 21.6742C81.5217 20.6367 81.8248 19.9819 83.6077 18.8255C83.1497 19.5974 82.6637 20.4704 82.1003 21.1573C80.9597 23.1122 79.1068 22.8192 77.5342 25.0262C77.9617 25.7801 78.2167 26.2354 78.4272 27.1025C78.0642 28.7577 77.6227 29.0915 76.8753 30.5334C77.3553 30.1033 77.7532 29.7453 78.1997 29.2757C78.6717 30.1683 77.9007 29.9131 78.8792 30.6047C77.3317 31.7764 67.8518 38.7695 66.7748 38.7457C66.4783 38.4404 66.3927 38.2634 66.1838 37.8968L65.8088 37.3111C64.8122 34.9986 64.2733 32.2323 63.5193 29.8298C62.1803 25.5636 61.0388 21.3743 59.9933 17.0243C59.5123 15.0236 59.2013 12.4743 58.6533 10.6248C57.9622 18.4375 56.0728 29.2443 52.9743 36.4547C52.6803 35.4606 52.4468 34.6721 51.9143 33.7682C51.9653 35.8202 51.9798 38.1168 52.1918 40.1365C44.1408 36.1994 39.5618 32.5626 32.5078 27.1503L27.9979 23.6629C27.26 23.0867 26.0801 22.0927 25.3111 21.6457C27.2717 24.4324 29.1593 27.2698 30.9718 30.155C32.7703 33.0595 33.9447 35.2705 35.9898 38.0768L35.5337 38.2567C34.7603 37.3613 34.2746 36.7262 33.3032 36.045C34.1092 37.5302 35.2505 38.9985 36.0126 40.4072C38.1004 44.266 38.8873 46.223 41.9833 49.5392C41.0036 49.081 39.5092 48.3277 38.4886 48.1407C39.1474 49.723 39.3931 49.9985 40.5399 51.2939C35.2389 51.8099 29.907 51.9329 24.5878 51.6614C22.116 51.5114 19.5396 51.2034 17.0763 50.9024C16.5521 50.8384 16.316 50.7229 15.754 50.8004L15.7471 50.8854C17.1681 51.6844 18.8482 52.2499 20.3764 52.8649C22.1363 53.5874 23.8744 54.3624 25.5883 55.1884C30.9729 57.8194 35.4514 60.6374 40.5711 63.3709C39.9327 63.6589 37.9914 64.4149 37.7509 64.9499C38.2703 65.3489 40.0627 65.2419 40.7289 65.1569C40.8044 65.1474 40.8798 65.1369 40.955 65.1249C38.3835 67.5254 36.9258 69.1319 34.868 72.0139C34.2143 72.9289 33.3678 73.7649 32.776 74.7789C33.6073 74.2619 34.5775 73.5124 35.3305 73.0814C30.9876 78.4594 25.7725 85.1619 20.704 89.6694C19.8845 90.4039 19.1774 91.0244 18.4363 91.8459C18.9999 91.5554 20.3126 90.9329 20.6534 90.4844C22.3883 89.1199 39.5323 78.6849 40.2027 78.7084C40.1953 78.9269 40.1872 79.1029 40.2014 79.3209C40.6867 79.0764 41.139 78.7324 41.5816 78.4164C42.9523 77.4379 44.3865 76.5924 45.901 75.8499C45.4666 76.6814 45.0522 77.5229 44.6585 78.3744C46.4803 77.2064 48.1232 75.5914 49.9194 74.4019C49.8717 77.0644 50.9067 80.1399 51.0983 82.8339C51.5483 89.1584 52.1128 95.7154 52.1618 102.053L52.1373 107.194C52.3208 106.778 52.6103 106.182 52.7048 105.754C55.0903 96.1179 59.3118 88.2064 62.7918 79.2414L62.9713 79.2179C63.3828 79.5744 63.6343 80.2294 63.8753 80.7359L64.6063 76.2994C65.7533 77.2169 66.7748 78.1119 67.8748 79.0849L66.6792 76.3859C67.6222 76.8589 68.5733 77.3164 69.5313 77.7584C68.9183 76.8479 67.9118 75.9829 67.1138 74.8274C70.0018 76.4129 73.1298 78.4559 75.9323 80.1979C80.6728 83.1439 85.3247 86.2809 89.7267 89.7104C91.1702 90.8344 92.7857 91.9719 94.1612 93.1674C94.6302 93.5899 95.2117 94.0059 95.7207 94.3894C95.2422 93.6889 94.8672 93.2399 94.3142 92.5934C93.8988 92.1994 92.1042 89.7569 91.6813 89.1879C87.3613 83.3084 83.4422 77.1454 79.9507 70.7399C80.9267 71.6194 81.6302 72.3634 82.8002 72.9644C81.4952 70.8839 80.1617 68.8209 78.8012 66.7764C79.7742 66.7224 81.3808 66.4559 82.3913 66.3209C81.3607 65.7669 80.1413 65.4644 79.0677 64.8539C79.1492 64.7519 82.4077 63.4459 82.7732 63.2514C88.3772 60.2659 93.9868 59.0754 100.209 57.9019C101.492 57.6549 102.781 57.4419 104.075 57.2639C105.026 57.1379 106.179 57.1199 107.047 56.8369L107.092 56.6984C106.117 56.4094 104.74 56.4564 103.694 56.3004C94.8873 54.9829 86.2617 52.8534 77.4992 51.2694C77.9377 50.9039 78.5182 50.5164 78.6348 49.99C78.2262 49.7795 76.8108 50.0834 76.2728 50.1644C76.3232 50.0959 76.3727 50.0269 76.4217 49.9574C77.6357 48.2451 79.4012 44.5594 80.6652 42.6211C80.6532 42.5501 80.6413 42.4791 80.6292 42.4081L80.3602 42.4391L79.8732 42.3258C80.9832 41.1049 83.2117 37.9405 84.1787 36.5261L84.4248 36.2832L84.3102 36.1467L83.5518 36.335L83.4122 36.1052C84.5837 34.4061 85.7012 32.6719 86.9412 31.021C87.5117 30.2609 88.0778 29.4985 88.5563 28.6758C86.9473 29.7153 86.5972 30.6901 85.1782 31.7588C85.5707 31.0906 86.0788 30.3519 86.5297 29.7183C89.1652 26.0124 91.5422 21.5634 94.4272 18.0832C94.8727 17.5401 95.4717 16.6214 95.8877 16.0216C95.1628 16.5556 94.6558 16.9403 94.0573 17.6111C91.4528 20.3453 85.3807 26.3304 82.3012 28.2088L82.2513 28.1433C82.2463 27.8747 83.6352 25.8703 83.9557 25.1841C82.7957 25.9127 81.8702 26.7454 80.8242 27.6256L80.1458 27.46C82.7753 25.0006 85.3268 22.5976 87.6253 19.8214C87.9717 19.4031 88.3418 19.0641 88.7682 18.7267C87.4723 20.8825 85.8828 22.9414 84.5732 25.0853C85.9368 24.0537 87.5052 22.614 88.8237 21.4765L95.6263 15.5938C96.5892 14.7466 98.5187 12.8441 99.4372 12.2338C98.7127 13.3928 97.8917 14.4108 97.1452 15.5434C95.2627 18.4529 93.4152 21.3847 91.6027 24.3383C90.9637 25.3761 89.9987 26.7992 89.4302 27.7919C89.9622 27.353 91.4512 25.8443 91.9627 25.8137C91.8627 26.321 89.0928 29.9797 88.5612 31.0025C89.1468 30.4852 89.4392 30.2244 89.9447 29.6201L90.4857 29.6261C88.9402 32.3275 86.5703 34.3482 85.0322 36.5445C86.1308 35.8459 86.5847 35.1767 87.5443 34.4177C86.2738 36.6985 83.7438 39.2342 82.2757 41.5292C82.0382 41.9009 81.8777 43.1672 81.6357 43.776C81.2197 44.8221 80.6612 45.6028 80.1012 46.5718L80.2022 46.7469C81.2472 46.4553 81.6673 44.3356 82.5693 43.6415C82.8408 43.4944 83.7627 42.5769 84.1953 42.3122C86.3477 40.996 88.1067 40.1155 90.4552 39.2425C89.6702 40.3733 87.8893 42.145 87.6328 43.2684C87.7243 43.7024 87.6287 43.5635 87.9757 43.7975C89.6272 43.999 90.3232 43.8512 91.8232 43.2613C92.7548 42.0688 92.9668 40.7585 93.6702 39.747C95.4682 37.1628 99.6417 37.3222 102.601 36.7983C103.041 36.7712 103.445 36.6813 103.775 36.945C103.859 37.1182 103.935 37.2431 103.96 37.4342C102.936 38.4038 102.598 38.7843 101.288 39.3418C99.9443 39.9136 97.9817 39.3606 97.0457 40.4049C95.3462 42.3025 96.8432 45.0302 94.2257 46.5877C92.7657 46.6044 91.2428 46.5278 90.1413 47.6374C89.7113 48.0706 89.5003 48.9962 89.2552 49.6024C89.6437 51.0289 93.7507 49.4917 94.2738 49.7062C93.8067 50.4724 92.4297 51.3984 91.5423 51.7224C91.1302 51.9089 90.2732 52.1814 90.0557 52.4479C91.4987 52.9914 96.3187 53.6609 98.0662 53.9999C101.57 54.6794 105.253 55.3579 108.77 56.0504C109.989 56.2904 113.405 56.7434 114.307 57.1954C106.162 57.6234 98.0687 58.9484 90.2552 61.3404C89.7237 61.5029 85.3157 63.8864 84.5607 64.2604L84.4702 64.4529L84.5822 64.5824C84.9602 64.9869 85.0297 65.0609 85.2062 65.5794L85.1387 65.5514C84.2527 65.1764 84.3387 64.8959 83.1267 65.0229L83.0033 65.1809C83.4443 65.8084 84.6597 66.1554 85.4002 66.3764L82.5157 67.1404C84.3247 69.1339 83.7458 68.3079 85.3887 69.5424C84.1697 69.1509 82.5452 67.9499 81.4863 67.9524L81.2552 68.0749C81.2783 68.3379 85.2577 75.1809 85.6717 75.7994C84.8107 75.2219 83.9743 74.5144 83.1898 73.9999C84.4857 75.9149 87.2783 79.0859 88.1338 80.8559C87.1862 79.9614 86.4582 79.1444 85.3282 78.4849C89.0902 84.1064 93.2452 89.6284 97.3357 95.0149C98.4257 96.4499 99.9463 97.7924 100.863 99.3209C99.3153 98.2154 97.8353 96.7809 96.2923 95.5714C89.1787 89.9939 82.0082 85.3399 74.3087 80.6229C74.9847 81.4759 76.6702 83.3679 76.9753 84.2679C77.4902 85.0389 77.9613 85.7184 78.3832 86.5444C76.8158 85.4519 73.8207 81.7174 72.4187 81.9654C72.1612 83.1694 74.3952 85.8924 75.1608 86.7514C76.1848 87.9009 75.9982 89.2519 76.0617 90.7499C75.3782 90.3689 73.8662 89.3494 73.3487 90.6359C73.0723 91.3244 73.4312 92.7469 73.7452 93.4284C73.8057 93.5609 73.8688 93.6919 73.9333 93.8224C76.0283 95.0044 78.2667 95.2309 79.7137 96.9944C79.7392 99.3409 78.8477 100.053 78.5498 102.258C79.8213 105.582 82.9587 104.953 83.9437 108.593C84.1322 109.29 84.3242 109.307 84.1888 110.073L84.0747 110.178C83.6602 109.446 82.7972 107.8 82.2438 107.243C80.7648 105.757 78.6257 105.684 77.3887 103.803C76.4297 102.344 77.5133 99.6604 76.4297 98.7119C74.6082 97.1164 72.4882 97.7489 70.7752 95.5874C69.5477 94.0384 69.5213 90.7669 68.0568 89.8464C67.5403 90.0879 67.3033 90.8334 67.1108 91.3709C67.0563 91.5224 67.0068 91.6759 66.9633 91.8314C66.6963 91.3624 66.1323 90.4299 65.9288 89.9774C65.7983 89.8664 64.7417 87.8674 64.5392 87.5209C64.2183 87.1889 63.7993 86.5489 63.5213 86.1524L62.9543 87.2199C62.5882 88.1439 62.3868 88.7459 62.1193 89.7034C62.1423 90.2474 62.1693 90.4264 61.9988 90.9359L61.8643 90.9909C61.0628 89.7869 61.1283 87.3309 61.2788 85.9574C60.3258 87.5549 58.7778 91.1764 58.0968 92.8694C55.9123 98.3174 54.0578 103.892 52.5433 109.562C52.1668 111.002 51.9398 112.37 51.5923 113.797C51.4798 112.737 51.5463 111.549 51.5408 110.477C51.4903 101.021 50.6448 91.6914 49.7081 82.2854C49.3228 83.6074 48.5828 85.6139 47.6725 86.6604C47.3423 87.2154 46.4378 88.8944 45.9235 89.0649C45.8658 88.7849 46.3302 85.0139 46.3583 84.2249C43.3371 86.2634 44.1921 86.9659 42.2799 89.5789C41.7342 90.3244 39.0178 90.7194 38.5279 91.8974C37.3759 93.9439 37.6572 96.2049 35.8525 98.0174C33.4188 100.461 30.2294 99.2894 28.4832 102.842C28.0431 103.155 27.6365 103.957 27.1499 103.997C26.9976 103.651 27.1866 103.231 27.3003 102.852C28.637 98.1894 30.7983 99.5684 33.9068 97.6779C35.1395 96.8629 35.6852 94.7874 35.239 93.4464C34.7435 91.9569 34.4505 91.8864 34.6716 90.3484C35.3323 88.4604 37.7299 88.0109 39.4205 86.7654C39.6385 86.1854 40.0454 85.2794 39.9336 84.6924C39.859 84.5054 39.7573 84.0579 39.5942 83.9629C38.2045 83.1509 36.5837 85.3129 35.6724 86.1904C35.8288 85.5989 36.0717 85.0399 36.3012 84.4729C36.733 83.4359 37.2314 82.4084 37.711 81.3909C37.2637 81.7109 36.8565 81.9184 36.3878 82.1924C30.0316 85.9124 23.4922 89.2779 17.342 93.3504C15.8083 94.3659 14.2208 95.6424 12.6018 96.4929C13.6867 95.2404 15.5909 93.6914 16.8346 92.4314C20.8314 88.3834 25.0228 84.2999 28.5374 79.8229C29.1613 79.0279 29.8352 78.5239 30.3955 77.6229L30.2997 77.5109C28.8223 78.0174 27.2463 79.7799 25.7229 80.3509C27.398 78.3404 33.1045 73.1469 34.03 71.3484C34.5202 70.8619 34.9545 70.3679 35.4135 69.8534C34.8999 70.0694 34.4435 70.3829 33.9737 70.6824C33.0059 71.2214 30.1331 73.4434 29.6639 73.3614C29.6941 72.9659 30.6677 71.9159 31.0252 71.8204C31.5038 70.9754 32.2459 70.2604 32.9215 69.5709C31.105 70.3384 30.362 71.3154 28.1807 71.5099C27.5549 71.6329 26.4875 71.5474 25.8979 71.6369C23.4179 72.0119 23.0165 72.2579 20.5021 71.9389C21.0789 71.5964 21.792 71.2884 22.1999 70.7774L22.1228 70.5364C18.3966 69.5449 17.8032 72.0449 14.8531 73.4314C12.8404 74.3769 11.4068 73.5119 9.3317 73.7394C8.59445 73.8204 7.0534 74.5284 6.4541 74.3049C6.8568 73.5884 9.2552 72.3549 10.081 72.3619C12.2661 72.3799 13.1533 72.4239 15.0453 71.1759C15.1233 70.7354 15.16 70.1149 15.2009 69.6564C14.7271 69.0414 14.5728 68.7759 14.2086 68.0964C16.0077 66.7994 19.0019 64.7584 21.2819 66.0224C22.7211 66.6909 23.1052 67.1039 24.575 66.3089C26.2138 65.4229 26.7017 65.4014 26.7253 63.4564C27.2121 62.4024 30.0245 62.2009 31.1281 61.8339C31.8752 61.5854 32.1739 61.4794 32.9275 61.1304C32.2124 60.0949 29.3065 59.4654 28.5237 58.8284C28.718 58.6269 28.7452 58.6064 28.8727 58.3609C27.3396 56.8914 15.2174 51.3589 12.6008 50.5974C11.4049 50.2494 7.25175 49.2448 6.5513 48.8718C6.65515 48.6697 6.8352 48.6792 7.07305 48.7213C14.7091 50.0734 22.4736 51.0454 30.2428 50.8304C30.8201 50.8144 32.847 50.7959 33.2803 50.5644C33.2619 50.3864 33.3108 50.4639 33.1026 50.3704C31.6681 49.7244 30.7803 49.4824 29.6048 48.3986C30.0139 48.5774 30.6531 49.0154 31.1504 49.2516C33.2041 50.2274 34.6217 50.2854 36.7899 50.4954C35.7518 49.5969 34.7214 48.7437 33.7984 47.7247C34.9323 48.3923 36.2868 49.2497 37.5047 49.6865C36.4863 48.0898 35.063 47.0692 34.1502 45.5145C34.9771 46.1383 37.8665 50.0439 38.759 49.8324C38.7149 49.0706 37.7652 48.215 37.8299 47.6063C38.0757 47.626 38.3219 47.6399 38.5683 47.648C38.6019 47.1139 33.0671 38.7688 32.2057 37.4494C31.2281 35.9518 29.1593 33.7116 28.1093 32.021C28.7172 32.3847 29.9636 33.5005 30.5888 34.0141C31.6204 34.8615 32.493 35.4807 33.5965 36.2398C29.5015 30.4611 26.1794 24.1593 21.8404 18.5666C20.8807 17.3297 19.7605 16.2697 18.8454 14.9646C19.9794 15.7818 21.8597 17.6228 22.7436 18.3686C25.0125 20.283 41.3185 33.2704 42.8238 33.2511L42.8827 33.2918C45.3541 35.0291 46.2658 35.9277 49.249 37.3336L49.4667 37.3442L49.6544 36.9795C49.9017 37.1395 49.9506 37.2052 50.2263 37.1845C50.5558 36.4414 49.9357 35.096 49.8155 34.2419ZM82.3197 49.0154C82.1413 48.9571 82.1352 48.9767 81.9447 48.9878C81.4027 49.3019 79.9153 50.1249 79.7643 50.6674C82.1702 51.2499 81.2387 50.7469 82.2572 49.1143L82.3197 49.0154ZM28.5677 69.9294C29.4339 69.6659 31.0897 68.9379 31.0593 67.8964C30.7083 67.5819 30.6128 67.5519 30.0868 67.5814C29.8432 67.5964 29.5998 67.6149 29.3567 67.6369C28.4834 67.9359 26.7479 68.7409 26.7865 69.8294C27.2227 70.3959 27.9498 70.1204 28.5677 69.9294ZM66.0718 34.7711C66.2738 35.6222 66.4733 36.3467 66.7263 37.1843C67.8073 37.258 67.9748 33.7734 68.3253 32.8732L68.2113 32.6096C67.4148 33.272 66.6838 33.9279 66.0718 34.7711Z" fill="black"/>
<path d="M70.1996 77.9502C71.6401 78.8647 73.8966 80.8527 75.1351 82.0962C75.7281 82.6917 76.4706 83.7807 76.9756 84.2677C77.4906 85.0387 77.9616 85.7182 78.3836 86.5442C76.8161 85.4517 73.8211 81.7172 72.4191 81.9652C72.1616 83.1692 74.3956 85.8922 75.1611 86.7512C76.1851 87.9007 75.9986 89.2517 76.0621 90.7497C75.3786 90.3687 73.8666 89.3492 73.3491 90.6357C73.0726 91.3242 73.4316 92.7467 73.7456 93.4282C73.8061 93.5607 73.8691 93.6917 73.9336 93.8222C76.0286 95.0042 78.2671 95.2307 79.7141 96.9942C79.7396 99.3407 78.8481 100.053 78.5501 102.258C79.8216 105.582 82.9591 104.953 83.9441 108.593C84.1326 109.29 84.3246 109.307 84.1891 110.073L84.0751 110.178C83.6606 109.446 82.7976 107.8 82.2441 107.243C80.7651 105.757 78.6261 105.684 77.3891 103.803C76.4301 102.344 77.5136 99.6602 76.4301 98.7117C74.6086 97.1162 72.4886 97.7487 70.7756 95.5872C69.5481 94.0382 69.5216 90.7667 68.0571 89.8462C67.5406 90.0877 67.3036 90.8332 67.1111 91.3707C67.0566 91.5222 67.0071 91.6757 66.9636 91.8312C66.6966 91.3622 66.1326 90.4297 65.9291 89.9772C65.7986 89.8662 64.7421 87.8672 64.5396 87.5207C64.6691 87.2752 64.7141 86.9497 64.7711 86.6717C64.5116 86.1357 64.4531 85.9537 64.3096 85.3742L64.4626 85.3437C64.7516 84.8432 64.3771 84.3212 64.6806 83.7832C64.9241 82.1212 65.1646 80.6417 65.6376 79.0122C66.3316 79.6397 67.0181 80.2752 67.6971 80.9192L67.8806 80.8557C67.8511 80.5867 67.8246 80.3542 67.8141 80.0817C68.3141 80.2002 69.4251 82.2382 70.0816 82.9207C69.6511 81.5537 69.0776 79.6842 68.4226 78.4457C70.0721 79.2877 70.7581 79.6647 72.2486 80.8102C71.7136 80.0797 70.6166 78.6782 70.1996 77.9502Z" fill="#FD7D00"/>
<path d="M64.7706 86.6719L65.0291 86.7034C65.0926 87.2229 65.1281 87.5404 65.2546 88.0444C65.3801 88.5439 65.9866 89.6084 65.9286 89.9774C65.7981 89.8664 64.7416 87.8674 64.5391 87.5209C64.6686 87.2754 64.7136 86.9499 64.7706 86.6719Z" fill="#813301"/>
<path d="M64.3096 85.3742L64.4626 85.3437C64.7516 84.8432 64.3771 84.3212 64.6806 83.7832C64.7676 84.8192 64.8741 85.6747 65.0296 86.7032L64.7711 86.6717C64.5116 86.1357 64.4531 85.9537 64.3096 85.3742Z" fill="#191600"/>
<path d="M67.3019 85.2803C68.1504 85.6848 67.8969 86.9203 67.8299 87.6938C67.1069 87.1138 67.2609 86.1358 67.3019 85.2803Z" fill="#421A00"/>
<path d="M32.9275 61.1299C34.5186 61.8404 35.7635 62.4469 37.3086 63.2559C36.2197 63.7594 34.3944 64.6479 33.3674 65.2784C34.6968 65.2429 35.6533 65.3289 36.9695 65.4429C35.7497 66.3979 34.4421 67.2174 33.1699 68.1004L33.578 68.2594C34.5254 67.8164 35.366 67.6679 36.3978 67.5174C35.2788 68.6704 32.4701 71.4164 31.0252 71.8199C31.5038 70.9749 32.2459 70.2599 32.9215 69.5704C31.105 70.3379 30.362 71.3149 28.1807 71.5094C27.5549 71.6324 26.4875 71.5469 25.8979 71.6364C23.4179 72.0114 23.0165 72.2574 20.5021 71.9384C21.0789 71.5959 21.792 71.2879 22.1999 70.7769L22.1228 70.5359C18.3966 69.5444 17.8032 72.0444 14.8531 73.4309C12.8404 74.3764 11.4068 73.5114 9.3317 73.7389C8.59445 73.8199 7.0534 74.5279 6.4541 74.3044C6.8568 73.5879 9.2552 72.3544 10.081 72.3614C12.2661 72.3794 13.1533 72.4234 15.0453 71.1754C15.1233 70.7349 15.16 70.1144 15.2009 69.6559C14.7271 69.0409 14.5728 68.7754 14.2086 68.0959C16.0077 66.7989 19.0019 64.7579 21.2819 66.0219C22.7211 66.6904 23.1052 67.1034 24.575 66.3084C26.2138 65.4224 26.7017 65.4009 26.7253 63.4559C27.2121 62.4019 30.0245 62.2004 31.1281 61.8334C31.8752 61.5849 32.1739 61.4789 32.9275 61.1299ZM28.5677 69.9289C29.4339 69.6654 31.0897 68.9374 31.0593 67.8959C30.7083 67.5814 30.6128 67.5514 30.0868 67.5809C29.8432 67.5959 29.5998 67.6144 29.3567 67.6364C28.4834 67.9354 26.7479 68.7404 26.7865 69.8289C27.2227 70.3954 27.9498 70.1199 28.5677 69.9289Z" fill="#FD7D00"/>
<path d="M22.1227 70.5361C23.11 70.5546 23.116 70.7906 23.6229 70.8441C24.9618 70.9846 26.9337 71.4411 28.1805 71.5096C27.5547 71.6326 26.4874 71.5471 25.8978 71.6366C23.4177 72.0116 23.0164 72.2576 20.502 71.9386C21.0788 71.5961 21.7918 71.2881 22.1997 70.7771L22.1227 70.5361Z" fill="#D46C00"/>
<path d="M33.1702 68.1006L33.5783 68.2596C33.1852 68.4421 32.8109 68.6636 32.3857 68.6336C32.5847 68.3336 32.813 68.2886 33.1702 68.1006Z" fill="#6E0D01"/>
<path d="M32.1842 64.9561C32.5531 64.9861 32.6175 65.0091 32.9644 65.1416L32.9882 65.3311L32.5766 65.6091C32.2302 65.6306 32.1776 65.6376 31.8595 65.5046L31.8486 65.2881L32.1842 64.9561Z" fill="#EF7900"/>
<path d="M31.6406 62.8047C31.8403 62.8487 31.8398 62.8692 31.9862 63.0042C31.7957 63.3097 31.4221 63.4372 31.0689 63.6262C30.8648 63.6232 30.9612 63.6517 30.7842 63.5047C30.9284 63.2257 31.356 62.9932 31.6406 62.8047Z" fill="#813301"/>
<path d="M102.601 36.7976C103.041 36.7704 103.445 36.6806 103.775 36.9443C103.859 37.1174 103.935 37.2423 103.96 37.4334C102.936 38.403 102.598 38.7835 101.288 39.3411C99.9445 39.9129 97.982 39.3598 97.046 40.4041C95.3465 42.3018 96.8435 45.0294 94.226 46.5869C92.766 46.6036 91.243 46.5271 90.1415 47.6366C89.7115 48.0699 89.5005 48.9954 89.2555 49.6016C89.644 51.0282 93.751 49.491 94.274 49.7055C93.807 50.4717 92.43 51.3977 91.5425 51.7217C90.6995 51.7602 89.699 52.0527 88.8325 52.0152C86.612 51.9187 83.995 51.3657 81.786 50.9752C81.97 50.3232 82.148 49.6697 82.32 49.0146C82.6815 48.6202 83.7455 47.8006 84.21 47.4256C82.7565 48.0298 81.3445 48.5424 79.8975 49.1932C80.918 47.397 81.5545 45.565 82.5695 43.6408C82.841 43.4936 83.763 42.5761 84.1955 42.3114C86.348 40.9952 88.107 40.1147 90.4555 39.2418C89.6705 40.3726 87.8895 42.1442 87.633 43.2676C87.7245 43.7016 87.629 43.5627 87.976 43.7968C89.6275 43.9982 90.3235 43.8505 91.8235 43.2606C92.755 42.0681 92.967 40.7578 93.6705 39.7462C95.4685 37.162 99.642 37.3215 102.601 36.7976Z" fill="#FD7D00"/>
<path d="M87.6503 50.0175C87.9738 49.9827 88.5378 49.904 88.7408 50.1745C88.4253 50.502 87.8748 50.6135 87.4248 50.7485C86.9043 50.838 86.7568 50.879 86.2468 50.7715L86.1953 50.622C86.5598 50.2615 87.1438 50.159 87.6503 50.0175Z" fill="#EF7900"/>
<path d="M83.8936 43.7983C84.3471 43.4946 84.3936 43.3553 84.8606 43.3311L84.9111 43.524C84.7031 43.8731 84.4886 43.9697 84.1431 44.1834L83.8936 43.7983Z" fill="#421A00"/>
<path d="M84.1438 44.183C83.7383 44.246 83.6348 44.5179 82.9723 44.6689L82.9803 44.5371L82.9238 44.6185L83.1513 44.5556C83.2008 44.1323 83.5308 44.0504 83.8943 43.7979L84.1438 44.183Z" fill="#813301"/>
<path d="M42.6519 81.3767C44.5474 79.8757 46.5358 78.5777 48.423 77.0967C47.7796 78.5102 47.0413 80.1322 46.4672 81.5692C47.4028 80.5437 47.8949 79.3107 48.8085 78.3187C49.5035 83.3177 49.2 82.2277 47.6723 86.6597C47.3421 87.2147 46.4377 88.8937 45.9234 89.0642C45.8657 88.7842 46.33 85.0132 46.3582 84.2242C43.337 86.2627 44.192 86.9652 42.2798 89.5782C41.734 90.3237 39.0177 90.7187 38.5278 91.8967C37.3758 93.9432 37.6571 96.2042 35.8523 98.0167C33.4186 100.46 30.2293 99.2887 28.483 102.842C28.043 103.154 27.6363 103.957 27.1497 103.996C26.9974 103.651 27.1864 103.23 27.3001 102.852C28.6368 98.1887 30.7982 99.5677 33.9067 97.6772C35.1394 96.8622 35.6851 94.7867 35.2389 93.4457C34.7434 91.9562 34.4504 91.8857 34.6715 90.3477C35.3322 88.4597 37.7297 88.0102 39.4204 86.7647C39.6383 86.1847 40.0452 85.2787 39.9334 84.6917L40.2693 84.2047C40.3197 84.0687 41.2494 83.2337 41.5527 82.4782C41.4705 81.9052 41.9456 81.5872 42.3312 81.2272L42.6519 81.3767Z" fill="#FD7D00"/>
<path d="M39.9338 84.6921L40.2697 84.2051C40.9585 86.9101 38.2987 87.7841 36.4487 88.7581C35.6804 89.1631 35.2188 89.6911 34.6719 90.3481C35.3326 88.4601 37.7301 88.0106 39.4208 86.7651C39.6387 86.1851 40.0456 85.2791 39.9338 84.6921Z" fill="#2E0400"/>
<path d="M42.3319 81.2275L42.6526 81.377C42.2802 81.738 41.9137 82.1055 41.5533 82.4785C41.4711 81.9055 41.9462 81.5875 42.3319 81.2275Z" fill="#813301"/>
<path d="M44.6649 81.8223C44.8133 81.9548 44.748 81.8923 44.8225 82.1198C44.5318 82.9118 44.1179 83.4313 43.5341 84.0233L43.4199 83.8633C43.5294 83.3168 44.3093 82.2888 44.6649 81.8223Z" fill="#2E0400"/>
<path d="M79.4812 21.6739C81.5217 20.6364 81.8248 19.9816 83.6078 18.8252C83.1498 19.5971 82.6638 20.4701 82.1003 21.157C81.7798 21.437 81.0798 22.0928 80.7338 22.2494C80.5088 22.4545 80.2847 22.6083 80.0167 22.7554C77.2667 24.263 77.0253 24.0799 78.2048 27.0255C77.3478 30.1899 75.5568 32.0684 72.7238 33.6978L72.6553 33.7369C73.1333 33.0252 73.4477 32.5729 74.0027 31.9228L73.8452 31.5141C71.9197 33.4674 69.8078 35.227 67.5388 36.7678C68.3723 34.4274 68.6348 32.4629 69.5283 30.0265C68.3958 32.0824 67.9438 32.1214 66.4818 33.8536C65.7383 30.8854 64.5047 27.3236 65.6167 24.4173C66.0587 23.2621 66.7433 22.1887 67.0818 20.989L67.8178 19.6862C68.6483 19.9808 67.8363 21.1314 67.7933 21.8084C67.6168 24.589 67.4203 26.6666 68.7988 29.1641C69.1618 28.7101 69.4953 28.2847 69.8953 27.8597C70.1923 27.446 70.7592 26.5832 71.2247 26.4696C71.3622 26.8457 71.2517 26.8775 71.0822 27.3604C70.5862 28.8823 70.6067 29.8561 70.8452 31.3966C71.8962 30.9337 74.3962 29.7625 75.0617 28.7679C75.6402 27.9026 73.9762 27.5889 73.7882 26.7585C73.5647 25.7698 74.3862 24.5775 74.8742 23.7102C76.8022 22.7996 77.2913 22.309 79.4812 21.6739Z" fill="#FD7D00"/>
<path d="M79.4814 21.6739C81.5219 20.6364 81.8249 19.9816 83.6079 18.8252C83.1499 19.5971 82.6639 20.4701 82.1004 21.157C81.7799 21.437 81.0799 22.0928 80.7339 22.2494C80.8739 21.6883 81.3144 21.6026 81.8034 20.7762L81.7484 20.7123C81.6719 20.7863 81.5939 20.8588 81.5149 20.9298C80.8189 21.5504 80.3959 21.7274 79.4814 21.6739Z" fill="#D46C00"/>
<path d="M69.8955 27.8598C70.1925 27.4461 70.7595 26.5833 71.225 26.4697C71.3625 26.8458 71.252 26.8777 71.0825 27.3606C70.425 27.4238 70.4105 27.4774 69.8955 27.8598Z" fill="#D46C00"/>
<path d="M74.8047 30.4795C74.5692 30.9758 74.3517 31.5008 74.0032 31.9223L73.8457 31.5136C74.1582 31.1627 74.4782 30.8179 74.8047 30.4795Z" fill="#421A00"/>
<path d="M36.3016 84.4722C39.1832 81.0902 40.7527 80.4272 44.4201 77.9277C43.8528 79.0297 43.0949 80.2537 42.3318 81.2272C41.9462 81.5872 41.4711 81.9052 41.5533 82.4782C41.25 83.2337 40.3203 84.0687 40.2699 84.2047L39.934 84.6917C39.8595 84.5047 39.7577 84.0572 39.5946 83.9622C38.205 83.1502 36.5841 85.3122 35.6729 86.1897C35.8293 85.5982 36.0721 85.0392 36.3016 84.4722Z" fill="url(#paint0_linear_2051_27214)"/>
<path d="M63.1833 82.0918C63.4078 82.4443 63.4453 82.5368 63.8203 82.7318C64.0388 83.6638 64.1213 84.5008 64.3093 85.3743C64.4528 85.9538 64.5113 86.1358 64.7708 86.6718C64.7138 86.9498 64.6688 87.2753 64.5393 87.5208C64.2183 87.1888 63.7993 86.5488 63.5213 86.1523L62.9543 87.2198C62.3888 87.4778 62.7433 87.7168 61.8618 87.7993C61.5853 87.4378 61.6438 86.3993 61.6328 85.8588C61.6488 85.0128 62.5163 82.7403 63.1833 82.0918Z" fill="#EF7900"/>
<path d="M63.1839 82.0918C63.4084 82.4443 63.4459 82.5368 63.8209 82.7318C63.5239 83.1478 63.2479 84.3843 63.0984 84.9473C62.9829 83.9258 63.2104 83.1163 63.1839 82.0918Z" fill="#140500"/>
<path d="M61.633 85.8584C61.644 86.3989 61.5855 87.4374 61.862 87.7989C62.7435 87.7164 62.389 87.4774 62.9545 87.2194C62.5885 88.1434 62.387 88.7454 62.1195 89.7029C60.821 88.4764 61.2955 87.4564 61.633 85.8584Z" fill="#D46C00"/>
<path d="M80.1463 27.46L80.8248 27.6256C79.9313 28.4624 78.7993 29.4205 78.1348 30.42C78.7113 30.1031 79.6713 29.4236 80.2323 29.5754L78.8798 30.6047C77.9013 29.9131 78.6723 30.1683 78.2003 29.2757C78.6458 28.7764 79.6193 27.9392 80.1463 27.46Z" fill="#140500"/>
<path d="M83.4128 36.1045L83.5523 36.3342L84.3108 36.146L84.4253 36.2825L84.1793 36.5254C83.6468 36.3999 83.2898 36.9447 82.9663 37.3372L82.4043 37.3663C82.7613 36.867 83.0038 36.5616 83.4128 36.1045Z" fill="#2E0400"/>
<path d="M65.8087 37.3105L66.1837 37.8962C66.0552 38.1971 65.9647 38.5292 65.7062 38.6938C65.6197 38.301 65.7527 37.7397 65.8087 37.3105Z" fill="#C10001"/>
<path d="M78.7773 43.7372C79.1203 43.2289 79.4178 42.7386 79.8733 42.3252L80.3603 42.4385C79.8458 42.8937 79.3143 43.3097 78.7773 43.7372Z" fill="#6E0D01"/>
<path d="M35.9903 38.0762C36.3136 38.5318 36.4286 38.7335 36.6711 39.2374C36.3894 39.0028 35.7564 38.504 35.5342 38.2561L35.9903 38.0762Z" fill="#2E0400"/>
<path d="M82.4042 37.367L82.9662 37.3379C82.5967 37.7429 82.5477 37.8609 82.0907 37.9649C82.0767 37.6352 82.1382 37.6769 82.4042 37.367Z" fill="#6E0D01"/>
<path d="M59.1203 24.6328C59.4983 26.2905 59.8498 27.952 60.2343 29.6087C61.3778 34.5396 62.8133 39.3865 63.7923 44.3556C64.3673 43.8025 65.6098 42.5276 66.1863 42.1039C65.8778 43.036 65.5988 43.7312 65.2123 44.6359C67.5948 42.4743 70.3563 40.3646 72.8908 38.3615C73.9703 37.5085 75.2948 36.7616 76.4783 35.8275C78.1398 34.5139 79.7838 33.1784 81.4103 31.8214C82.1323 31.2129 83.5858 29.8904 84.2963 29.3984C83.3828 31.0291 82.1178 32.7179 81.1508 34.4214C77.9323 40.0909 74.2598 45.994 71.3443 51.7902L73.8258 50.7112C73.3733 51.4872 72.9933 52.1042 72.4858 52.8437C76.5163 53.1502 80.8513 54.2757 84.8808 54.8277C87.6598 55.2087 90.4033 56.0732 93.2493 56.4202C91.4958 57.0752 89.6993 57.3112 87.9493 57.8677L79.9228 60.4627C78.2513 61.0082 75.9118 61.8197 74.2278 62.1542C74.9493 62.4672 76.0518 62.8652 76.5693 63.4172V63.6012C76.1648 63.9102 73.1183 64.1052 72.4343 64.1612C75.7878 67.9912 78.1688 72.1582 80.7003 76.5432C81.9398 78.6902 83.7008 81.4467 84.7653 83.6962C83.5498 82.9302 82.1468 81.7962 80.9678 80.9172C79.4808 79.8207 77.9758 78.7502 76.4523 77.7052C72.5568 74.9942 68.4988 72.5157 64.7238 69.8807C65.1268 71.2292 65.3798 72.4567 65.7283 73.7997C64.7288 72.8132 63.7413 71.8137 62.7673 70.8017C59.6883 77.6887 57.4708 85.0082 55.0273 92.1387C54.7233 93.0257 54.4533 93.9037 54.1043 94.7762C53.7478 86.5182 52.5343 77.7512 52.4553 69.6667C51.4113 70.5602 49.4558 72.3907 48.466 73.1157C48.8685 71.9172 49.5974 70.8617 50.1488 69.7272C46.018 72.4462 41.8794 75.1852 37.6114 77.6842C36.2701 78.4697 33.8673 80.0152 32.5554 80.5987C33.4593 79.2132 35.0114 77.2877 36.0564 75.8872C38.0636 73.1462 40.1114 70.4347 42.199 67.7547C42.9919 66.7542 45.4448 63.9237 45.9545 63.1277C45.3299 63.1537 44.4758 63.2442 43.905 63.0542L43.7454 62.8677C43.9787 62.3447 45.1131 61.9597 45.6615 61.7267C42.2513 60.2292 38.8236 58.7712 35.3791 57.3542C33.5616 56.6252 29.2844 55.0542 27.791 54.2627C29.5254 54.2842 45.9167 53.8882 46.264 53.4487C46.2874 53.4192 46.3022 53.3837 46.3212 53.3507C46.0179 53.0217 45.4171 52.4972 45.5855 52.0487C46.0155 52.0117 46.4837 52.3687 46.8723 52.6042L47.0603 52.3217C46.8631 51.7462 45.9665 50.3797 45.6382 49.7826C44.0004 46.8046 42.0039 44.0869 40.2002 41.2373C38.1519 38.0013 36.232 34.5952 34.2921 31.2909C36.2602 32.8403 38.332 34.315 40.3209 35.8519C44.0669 38.7465 49.558 43.5092 53.7013 45.6071C53.6338 44.1322 53.6413 43.601 53.2488 42.193C53.6828 42.6129 54.8173 43.8772 55.1708 44.0885C55.7253 43.4346 58.8363 26.5982 59.1203 24.6328Z" fill="#FD7D00"/>
<path d="M46.3216 53.3506C46.0183 53.0216 45.4174 52.4971 45.5859 52.0486C46.0158 52.0116 46.4841 52.3686 46.8726 52.6041C46.9289 53.0691 46.9752 52.9146 46.7632 53.2381C46.6302 53.2776 46.4532 53.3416 46.3216 53.3506Z" fill="#FEB500"/>
<path d="M59.1593 32.7207C59.8348 33.6687 62.0108 47.5323 62.6298 48.0635C63.2393 47.8381 63.5283 46.9938 64.1443 46.7459C64.3328 46.9695 64.1323 47.3599 64.2093 47.907C64.8513 48.0259 75.5408 38.4547 77.7148 37.065C75.2898 40.6085 73.6508 44.5183 71.6203 48.2754C70.6423 50.0854 69.7123 51.8619 68.8978 53.7504C72.6818 54.7739 76.7593 55.2859 80.6013 56.0974C82.2458 56.4449 84.0048 56.7334 85.6728 56.9259C83.9158 57.5504 72.3893 60.2559 71.9153 60.8844C72.1223 61.1939 72.9328 61.3679 73.4383 61.7329L73.3808 61.8969C72.7123 62.1789 69.8413 62.7554 68.9173 62.9594C71.1168 65.5709 73.0503 68.2739 74.9628 71.0939C76.5563 73.4439 77.9133 75.0589 79.1098 77.6874C76.0568 75.6664 73.1508 73.5134 70.1788 71.3779C68.5568 70.2124 65.5988 68.7074 64.3143 67.4499C63.9593 68.0264 63.6613 68.3939 63.2428 68.9194C62.5443 68.2274 62.1808 67.7869 61.5718 67.0099C60.6218 70.7589 58.4388 76.6709 57.1363 80.4714C56.8708 81.3369 55.2873 86.8849 54.9883 87.2044C54.8528 86.9129 54.3403 68.0104 54.3308 66.6184C53.1943 67.2419 51.8333 68.2389 50.6778 68.9554L50.5848 68.8659L50.6673 68.0824L50.5288 67.9729C50.0178 68.1294 48.8559 68.9259 48.3182 69.2224C45.7989 70.6114 43.4773 72.2559 41.0918 73.8514C40.2679 74.4029 39.0107 75.3229 38.1333 75.7024L38.0825 75.5774C38.4224 74.9379 39.0066 74.5824 39.4126 74.0189C42.5809 69.6254 46.4907 65.7174 50.0818 61.6704C48.4852 61.0509 36.5507 56.2539 36.0176 55.8039L36.0721 55.6619C38.0435 55.3089 48.162 55.9214 48.7717 55.0609C48.7453 54.9734 48.7201 54.8859 48.696 54.7979C48.5639 54.3004 48.5545 54.3469 48.7516 54.0154C49.1512 53.7474 49.7605 53.8454 50.2618 53.8684C47.6388 48.7491 44.0926 44.0395 40.985 39.1687C44.3796 41.401 47.6037 44.0552 50.9783 46.3349C52.1083 47.098 53.7778 48.1333 54.6868 49.091L54.6073 46.5851C55.2138 46.8671 55.9123 47.3999 56.4708 47.7932C57.4483 43.7844 57.8828 39.6742 58.5988 35.615C58.7648 34.6756 58.8723 33.6233 59.1593 32.7207Z" fill="#FEB500"/>
<path d="M85.0771 64.5457C87.0346 63.7227 93.1666 63.5422 94.8821 64.8102L94.9551 65.0162C94.6911 65.1927 92.1461 64.9977 91.5776 64.9742C90.9156 65.1397 89.9306 65.3572 89.3086 65.5667C93.7091 66.7862 94.6006 65.9857 96.8456 70.6067C96.2196 70.1967 94.8096 69.1518 94.1426 69.2583L93.8471 69.5242C94.1546 69.8387 94.3611 69.9432 94.4556 70.3187C93.5976 70.0957 92.4181 69.1667 91.6621 70.0297C92.3996 71.9922 93.0181 73.9632 95.5301 73.3382C99.0826 72.4542 101.078 75.2527 103.186 77.5757C103.931 78.3687 104.643 79.2677 105.337 80.1122L104.73 80.4567C104.088 79.9062 102.448 78.8947 101.727 78.4692C100.125 77.9922 97.9731 77.4697 96.5316 76.7072C94.6836 75.7292 93.6521 73.9777 91.2421 74.6132C89.6551 73.5187 88.9991 72.2297 87.7331 70.8422C87.0946 70.1423 86.2411 69.9422 85.3886 69.5422C83.7456 68.3077 84.3246 69.1337 82.5156 67.1402L85.4001 66.3762L85.8966 66.4012C85.7896 66.1802 85.4761 65.8072 85.3131 65.5982L85.2061 65.5792C85.0296 65.0607 84.9601 64.9867 84.5821 64.5822L85.0771 64.5457Z" fill="#FD7D00"/>
<path d="M85.0771 64.5457C87.0346 63.7227 93.1666 63.5422 94.8821 64.8102L94.9551 65.0162C94.6911 65.1927 92.1462 64.9977 91.5777 64.9742L91.7601 64.8582C91.7276 64.5412 91.4661 64.4257 91.1591 64.1557C89.9401 64.1647 88.7867 64.1727 87.5712 64.3062C86.8847 64.3817 85.6666 64.7677 85.0771 64.5457Z" fill="#9B4F00"/>
<path d="M91.6628 70.0291C91.2558 68.9536 89.8393 68.5626 88.9863 67.7466L89.0663 67.6126C90.3123 67.4836 92.3888 69.1476 93.4288 69.4131L93.8478 69.5236C94.1553 69.8381 94.3618 69.9426 94.4563 70.3181C93.5983 70.0951 92.4188 69.1661 91.6628 70.0291Z" fill="#EF7900"/>
<path d="M103.187 77.5752C103.932 78.3682 104.644 79.2672 105.337 80.1117L104.73 80.4562C104.088 79.9057 102.449 78.8942 101.728 78.4687C102.452 78.3457 102.746 78.7687 103.27 78.5882C103.417 78.1742 103.304 78.0827 103.187 77.5752Z" fill="#EF7900"/>
<path d="M85.3135 65.5977C86 65.7517 87.584 66.5487 88.2545 66.9032C87.8085 66.8252 86.2085 66.5742 85.897 66.4007C85.79 66.1797 85.4765 65.8067 85.3135 65.5977Z" fill="#140500"/>
<path d="M85.7949 67.9004C87.0019 68.0524 87.4629 67.9714 88.3314 68.7864C87.6124 68.7724 86.2839 68.4339 85.7949 67.9004Z" fill="#813301"/>
<path d="M29.2697 11.5723C30.256 12.0379 32.0076 12.8131 32.2564 13.881C32.6041 15.3728 32.0108 17.1188 34.0604 17.9657C36.7239 19.0663 37.7632 18.4626 39.6481 21.1005C39.4679 23.0819 39.0505 24.5298 40.6443 25.8984C42.4124 26.2178 43.0445 25.9201 44.6618 26.7141C45.5028 27.9803 45.4993 28.8725 45.7026 30.3596C46.4463 32.2582 46.9078 33.4217 48.3485 34.925C48.184 34.0276 48.1185 32.7791 48.1125 31.8469L48.0488 31.3193L48.1928 31.2021C48.7023 31.5114 49.6034 33.6566 49.8161 34.2412C49.9363 35.0954 50.5564 36.4407 50.2269 37.1838C49.9512 37.2045 49.9024 37.1388 49.655 36.9789L49.4673 37.3435L49.2496 37.333C46.2664 35.9271 45.3547 35.0284 42.8833 33.2911L42.8244 33.2504C41.9178 31.7892 42.3349 30.3043 41.2784 28.6473C40.4608 28.3475 40.0336 27.8969 39.1454 27.7758C37.3654 27.5331 35.0323 25.9725 34.7347 24.117C34.8651 23.6209 34.7598 23.792 35.1155 23.4532C35.7995 23.3331 36.6164 24.2608 37.4189 23.9298L37.4848 23.6308C36.5087 19.7594 33.5479 20.8038 31.1159 18.9395C29.253 17.5114 30.1761 15.3474 30.0829 13.5166C30.0445 12.7625 29.5218 12.4106 28.958 11.9587L29.2697 11.5723Z" fill="#FD7D00"/>
<path d="M48.1125 31.8469L48.0488 31.3193L48.1928 31.2021C48.7023 31.5114 49.6034 33.6567 49.8161 34.2413C49.9363 35.0955 50.5564 36.4408 50.2269 37.1839C49.9512 37.2046 49.9024 37.1389 49.655 36.9789C49.4296 36.4179 48.7784 35.2081 48.6836 34.7472C48.4624 33.6711 48.4537 32.9489 48.1125 31.8469Z" fill="#FD7D00"/>
<path d="M45.7021 30.3594C46.4458 32.258 46.9073 33.4215 48.348 34.9248C48.1835 34.0273 48.118 32.7789 48.112 31.8466C48.4532 32.9486 48.4619 33.6708 48.6831 34.7469C48.7779 35.2078 49.4291 36.4176 49.6545 36.9786L49.4668 37.3433L49.2491 37.3327C49.6495 36.2834 45.7155 33.0825 45.7021 30.3594Z" fill="#140500"/>
<path d="M12.1182 31.0449C13.546 31.4409 14.625 32.3386 16.0694 32.875C16.9292 33.1943 18.5039 33.2261 19.0773 33.4196C20.4513 33.8832 23.2812 36.1934 24.1408 37.3705C24.5688 37.9566 25.1697 39.5758 25.7202 40.2319C26.8755 41.6062 29.1189 40.4305 30.5791 40.6791C32.6241 41.0273 32.7857 43.7921 34.1505 45.5143C35.0634 47.069 36.4867 48.0896 37.505 49.6863C36.2872 49.2495 34.9326 48.3921 33.7988 47.7245C34.7218 48.7435 35.7521 49.5967 36.7902 50.4952C34.622 50.2852 33.2045 50.2272 31.1507 49.2514C30.6535 49.0152 30.0143 48.5772 29.6052 48.3984C29.2488 48.164 29.0779 48.0769 28.829 47.7274C29.4939 47.4533 30.4483 48.2419 30.9836 47.5689C31.0742 46.902 30.3093 43.8469 29.7588 43.6074C27.5069 42.6275 25.1717 43.8321 23.037 42.0492C22.158 41.3151 20.8824 40.2925 20.6733 39.0828C21.3658 39.0303 21.734 39.9645 22.3741 39.8508C23.3592 37.9014 20.2527 35.3477 18.7656 34.9608C15.5716 34.1299 14.5455 33.1057 12.1182 31.0449Z" fill="#FD7D00"/>
<path d="M88.1245 7.49414L88.196 7.56964C88.1625 8.12604 86.2715 10.7038 86.0165 11.5032C85.0615 14.4966 84.8 15.2962 82.484 17.4507C80.711 14.7495 86.167 8.88584 88.1245 7.49414Z" fill="#FD7D00"/>
<path d="M21.2936 60.5526C22.0688 60.1876 22.6793 60.0926 23.5338 60.2526C24.1687 60.3716 26.0438 60.7226 25.7664 61.6381C25.305 61.9636 24.1653 62.0016 23.6257 61.8726L23.5143 61.8466C23.4311 61.8266 23.3717 61.8091 23.2917 61.7826C21.2508 61.4126 21.0406 61.4516 19.1328 62.2686C19.7247 61.6626 20.5482 60.9436 21.2936 60.5526Z" fill="#EF7900"/>
<path d="M19.1328 62.2687C19.7247 61.6627 20.5482 60.9437 21.2936 60.5527C22.1301 60.9662 22.6144 61.1402 23.2917 61.7827C21.2508 61.4127 21.0406 61.4517 19.1328 62.2687Z" fill="#9B4F00"/>
<path d="M63.4785 93.4434C63.569 93.4604 63.6515 93.4704 63.731 93.5194C65.949 94.8914 66.2115 96.5689 66.9015 98.7934C66.7635 98.7694 66.5915 98.7264 66.4755 98.6494C64.337 97.2284 63.9725 95.6904 63.4785 93.4434Z" fill="#EF7900"/>
<path d="M24.1254 77.4102C24.1575 77.4367 24.1992 77.5691 24.2183 77.6181C22.428 79.3266 21.4614 80.0667 19.2361 80.9617L19.1508 80.8847C19.1305 80.6797 19.1478 80.5152 19.2695 80.3427C20.5872 78.4762 22.1349 77.9577 24.1254 77.4102Z" fill="#EF7900"/>
<path d="M66.582 103.556L66.9525 103.116C67.6055 105.061 69.4155 111.639 69.0405 113.403C68.601 112.924 67.042 104.955 66.582 103.556Z" fill="black"/>
<path d="M39.5753 9.66797C40.4146 9.91202 40.8762 11.6962 41.0609 12.4846C40.6823 13.8213 40.1954 14.2725 39.3225 15.3407C39.1283 15.5003 39.0331 15.5532 38.8146 15.6799C38.1809 15.0861 39.9163 12.831 40.0247 12.0472C40.141 11.2065 39.7188 10.5862 39.5931 9.78507L39.5753 9.66797Z" fill="#D46C00"/>
<path d="M79.3047 88.5518C81.3267 88.6998 82.2677 91.0173 82.3877 92.7653C81.0817 92.1768 79.5712 89.9468 79.3047 88.5518Z" fill="#EF7900"/>
<path d="M35.026 100.944C35.4625 101.891 30.8738 108.251 29.9307 109.147C29.9276 108.187 34.1649 102.182 35.026 100.944Z" fill="black"/>
<path d="M85.3457 100.373C86.3992 100.675 89.8282 106.679 90.4967 107.937C89.4777 107.673 85.8077 101.578 85.3457 100.373Z" fill="black"/>
<path d="M46.17 91.9834L46.3357 92.1884C46.1197 93.8899 45.3111 95.1959 44.0918 96.3604C43.2383 95.2344 45.1463 92.6714 46.17 91.9834Z" fill="#EF7900"/>
<path d="M80.5315 4.0791C80.78 4.14796 80.682 4.07799 80.8225 4.31061C80.6005 5.73943 79.0925 8.09978 78.099 9.12163C78.047 9.11353 77.951 9.04033 77.8975 9.00598C78.702 6.50833 78.6865 6.22128 80.5315 4.0791Z" fill="#D46C00"/>
<path d="M46.7474 13.3672C47.8187 13.9432 48.447 16.7763 48.0811 17.9927L47.8025 17.9847C46.8438 16.9208 46.5378 14.745 46.7474 13.3672Z" fill="#D46C00"/>
<path d="M80.6333 14.9844L80.8288 15.1628C81.0358 16.9798 79.8498 17.9911 78.4293 18.7948C78.3013 18.7473 78.2873 18.7138 78.1758 18.619C78.2628 17.6764 80.0248 15.6847 80.6333 14.9844Z" fill="#EF7900"/>
<path d="M31.8421 90.0234L31.9589 90.1504L31.9376 90.4474C31.3248 91.3409 30.0598 92.5974 29.0771 93.0609L28.9082 92.8054C28.9195 91.3439 30.5423 90.2944 31.8421 90.0234Z" fill="#D46C00"/>
<path d="M108.55 47.5264C108.596 47.5325 108.742 47.6148 108.793 47.6416C108.62 48.5362 106.377 49.5963 105.523 49.8435L105.192 49.733L105.121 49.5057C105.516 48.4615 107.538 47.7589 108.55 47.5264Z" fill="#D46C00"/>
<path d="M30.3496 4.45312C31.7471 4.82858 32.6735 7.27813 32.9288 8.55123C31.6903 8.30063 30.6224 5.55517 30.3496 4.45312Z" fill="#D46C00"/>
<path d="M82.6709 69.3223C83.9424 69.6433 86.3959 71.3683 86.3954 72.7333C85.3519 72.6213 83.2644 70.1628 82.6709 69.3223Z" fill="#D46C00"/>
<path d="M27.3007 102.852C27.187 103.23 26.998 103.651 27.1503 103.996C27.6369 103.957 28.0435 103.154 28.4836 102.842C27.7346 104.461 25.2717 107.267 23.9854 108.591C24.5347 107.611 25.2341 106.626 25.8038 105.593C26.2452 104.794 26.8299 103.559 27.3007 102.852Z" fill="#9B4F00"/>
<path d="M95.575 30.3477C96.124 30.7298 95.183 31.7806 94.8995 32.0623C94.3205 32.6378 93.827 32.8826 93.0825 33.1603C92.5075 32.0951 94.747 30.7288 95.575 30.3477Z" fill="#D46C00"/>
<path d="M21.0762 29.4346C22.7646 29.5614 23.7612 31.4315 24.2979 32.8307C23.0462 32.59 21.6753 30.4428 21.0762 29.4346Z" fill="#D46C00"/>
<path d="M98.2265 68.0204C99.537 67.7934 101.445 68.9244 101.308 70.2739C100.588 69.9504 98.1725 68.8809 98.2265 68.0204Z" fill="#D46C00"/>
<path d="M65.6602 9.73887C66.0897 7.85647 66.6382 6.67712 68.0862 5.29102C67.6337 7.10537 66.9282 8.08487 66.4212 9.63302L65.6602 9.73887Z" fill="#9B4F00"/>
<path d="M50.9316 24.0215C52.2726 24.3507 52.3956 27.147 52.5071 28.3345L52.1846 28.1969C51.5936 27.3381 51.1721 25.1115 50.9316 24.0215Z" fill="#9B4F00"/>
<path d="M108.285 29.9639C108.636 31.3594 106.208 32.785 105.184 33.3301C105.18 33.2987 105.173 33.2676 105.171 33.2359C105.146 32.7029 107.763 30.4268 108.285 29.9639Z" fill="#9B4F00"/>
<path d="M97.7008 85.001C98.7208 85.2015 100.145 86.5365 100.3 87.574C99.3353 87.34 97.6393 86.1195 97.7008 85.001Z" fill="#D46C00"/>
<path d="M67.3181 11.5791C68.0911 12.1223 67.0091 14.4435 66.4846 15.0496C66.3436 14.9938 66.2986 14.9473 66.1761 14.8593C65.9611 14.0135 66.8986 12.3248 67.3181 11.5791Z" fill="#9B4F00"/>
<path d="M102.602 36.7979C104.299 36.0499 105.326 35.0567 106.459 34.5439C105.894 35.3329 104.754 36.8476 103.961 37.4337C103.935 37.2426 103.859 37.1177 103.776 36.9446C103.445 36.6809 103.042 36.7707 102.602 36.7979Z" fill="#D46C00"/>
<path d="M99.5189 24.46L99.6544 24.516L99.6899 24.76C99.1194 25.9569 98.4029 26.7186 97.3389 27.4606L97.2489 27.4496C96.7164 26.7743 98.9644 24.9016 99.5189 24.46Z" fill="#9B4F00"/>
<path d="M100.18 45.7444C100.327 45.7266 100.425 45.7516 100.573 45.7705L100.615 45.9859C100.237 46.692 99.2819 47.2296 98.5994 47.6094C98.3184 47.542 98.2849 47.5305 98.1084 47.3035L98.1604 47.0409C98.6544 46.3289 99.3879 45.9947 100.18 45.7444Z" fill="#D46C00"/>
<path d="M88.6201 76.9764C89.9031 76.8629 90.9776 78.0334 91.6116 79.0304C90.5221 79.1129 89.2231 77.8014 88.6201 76.9764Z" fill="#D46C00"/>
<path d="M33.7262 87.1426C33.899 87.4401 33.8756 87.3036 33.802 87.6566C33.2121 88.3156 32.4639 88.7751 31.6869 89.1841L31.5461 89.0156C31.4551 87.9496 32.8823 87.3821 33.7262 87.1426Z" fill="#D46C00"/>
<path d="M71.2895 20.3838C71.645 20.4564 71.527 20.3847 71.7515 20.6358C71.9335 21.7603 71.756 22.264 71.4675 23.3381L71.281 23.3738C70.507 22.7577 70.993 21.1697 71.2895 20.3838Z" fill="#9B4F00"/>
<path d="M96.0495 22.4551C96.183 22.5428 96.1535 22.5404 96.2515 22.6835C95.9075 23.4863 93.904 25.1117 93.1635 25.67L93.0205 25.5209C93.1195 24.941 95.4715 22.9911 96.0495 22.4551Z" fill="black"/>
<path d="M17.8705 83.0674C18.1332 83.1439 18.0277 83.0699 18.1858 83.3104C18.0432 83.9154 16.5011 85.0989 15.9537 85.5589C15.8977 85.5684 15.7358 85.5434 15.6693 85.5354L15.6689 85.2934C16.1734 84.3634 17.0522 83.7134 17.8705 83.0674Z" fill="#9B4F00"/>
<path d="M69.9453 108.795C70.8478 108.998 71.4193 111.821 71.4858 112.64C70.8903 112.617 70.1038 109.416 69.9453 108.795Z" fill="black"/>
<path d="M42.6027 102.06L42.7992 102.182C42.8776 103.033 41.8812 104.327 41.3023 104.922L41.1192 104.781C40.9827 104.18 42.1805 102.519 42.6027 102.06Z" fill="#9B4F00"/>
<path d="M74.866 14.4189L75.0415 14.4916L75.1235 14.7408C74.962 15.6189 74.578 16.3646 74.1465 17.136C73.254 16.2561 74.233 15.1925 74.866 14.4189Z" fill="#D46C00"/>
<path d="M46.1445 23.9297L46.5539 23.9728C47.3842 24.4888 47.8958 25.5524 48.2295 26.4411C47.352 26.2077 46.487 24.7336 46.1445 23.9297Z" fill="#9B4F00"/>
<path d="M44.8926 17.5371C45.8683 17.7954 46.0523 19.1178 46.0952 19.9589C45.1678 19.785 44.8992 18.3232 44.8926 17.5371Z" fill="#9B4F00"/>
<path d="M23.0146 45.5059C23.7188 45.7055 25.1893 46.2671 25.1584 47.0835C24.3746 47.0533 23.0261 46.4143 23.0146 45.5059Z" fill="#D46C00"/>
<path d="M105.337 80.1123C106.24 81.0468 106.856 81.7418 107.602 82.8153C107.193 82.4948 104.932 80.7438 104.73 80.4568L105.337 80.1123Z" fill="black"/>
<path d="M65.6609 9.73866L66.4219 9.63281C66.2749 10.14 66.0304 11.2326 65.6299 11.5087C65.3484 11.1242 65.5789 10.2081 65.6609 9.73866Z" fill="#421A00"/>
<path d="M26.6289 10.0156C27.3321 10.2686 28.7823 11.0107 29.2698 11.5723L28.9581 11.9587C28.068 11.2921 27.4116 10.8213 26.6289 10.0156Z" fill="black"/>
<path d="M103.424 67.9884C104.181 67.9149 105.36 68.4294 105.529 69.2204C104.689 69.1394 103.955 68.6179 103.424 67.9884Z" fill="#9B4F00"/>
<path d="M48.8643 93.8408L49.0501 94.0813C49.0575 94.8003 48.8265 95.0628 48.3657 95.6158C47.4572 95.1658 48.47 94.2343 48.8643 93.8408Z" fill="#D46C00"/>
<path d="M69.1807 99.1895C69.8647 99.3805 70.2067 100.077 70.1257 100.756C69.4447 100.608 69.2702 99.7695 69.1807 99.1895Z" fill="black"/>
<path d="M89.9453 29.6192C90.3628 29.1546 90.8078 28.5671 91.3668 28.3262L91.4508 28.3728C91.2243 28.9223 90.9028 29.2131 90.4863 29.6253L89.9453 29.6192Z" fill="black"/>
<path d="M66.5822 103.556C66.4777 103.151 66.3057 102.68 66.4257 102.294L66.5752 102.231C66.8117 102.501 66.8527 102.768 66.9527 103.116L66.5822 103.556Z" fill="black"/>
<path d="M33.9736 70.6815C34.4435 70.382 34.8998 70.0685 35.4134 69.8525C34.9545 70.367 34.5201 70.861 34.03 71.3475C34.0353 71.051 34.0334 70.9715 33.9736 70.6815Z" fill="black"/>
<defs>
<linearGradient id="paint0_linear_2051_27214" x1="41.3564" y1="82.7449" x2="39.6498" y2="81.1024" gradientUnits="userSpaceOnUse">
<stop stop-color="#FD6C00"/>
<stop offset="1" stop-color="#ED8100"/>
</linearGradient>
</defs>
</svg>
