<svg width="72" height="72" viewBox="0 0 72 72" fill="none" xmlns="http://www.w3.org/2000/svg">
<path d="M34.5579 9.37119C35.0052 8.98677 36.9651 9.05205 37.4841 9.45021C37.8105 9.96507 38.9811 11.7181 39.1545 12.164C39.3855 12.3326 39.7701 12.3867 40.0596 12.4499L40.0296 11.9897L40.1511 11.8252C40.7055 11.7763 43.8129 12.6677 44.373 12.9556C49.8717 14.9281 54.7206 19.1062 57.4395 24.3324C57.4569 24.366 57.4707 24.4055 57.4839 24.441C57.8124 24.9001 58.35 26.2265 58.5585 26.7853C60.0372 30.6835 60.453 34.9048 59.7627 39.0166C59.6154 39.9067 59.4522 40.714 59.1573 41.5711C58.9533 41.6854 58.6971 41.7901 58.6098 41.9908C58.6257 42.2311 58.6536 42.2749 58.7559 42.4813C59.3061 43.1242 60.1299 44.662 60.4872 45.4723C60.0525 46.483 59.6673 47.281 59.0805 48.2245C58.4652 48.5389 56.7072 48.6913 55.9539 48.7798C55.6311 48.9202 55.5747 49.2931 55.3074 49.5868C53.5929 52.0087 49.8957 55.3756 47.1312 56.5162C44.2554 58.2694 39.1461 59.4007 35.8332 59.29C35.4291 59.2765 34.3293 59.2849 33.9954 59.2183C33.1464 59.1385 32.4174 59.0311 31.5759 58.8991C25.4017 57.4993 20.8432 54.8356 16.9225 49.7878L16.6516 49.3522C16.391 48.4855 15.104 48.6517 14.2993 48.5188C13.7302 48.4684 13.3195 48.4996 12.9093 48.1027C12.5641 47.5423 12.3334 47.0911 12.0404 46.5046C11.9027 46.2127 11.8186 46.0369 11.6439 45.7678C11.4984 45.0355 12.8867 42.7885 13.4835 42.3169C13.4681 42.1732 13.4323 42.0364 13.4001 41.8951C13.1935 41.6965 13.2583 41.7547 12.9591 41.6779C12.6024 41.248 12.4303 39.9382 12.3361 39.3691C11.8088 36.1855 11.8342 33.0205 12.6057 29.8764C12.6955 29.4316 12.7749 29.1652 12.9134 28.7353C13.2698 27.3368 13.9389 25.7914 14.6067 24.5096C17.5806 18.8302 22.6774 14.5553 28.7879 12.6155C29.0701 12.438 31.2726 11.9366 31.686 11.8642C31.9065 11.9438 31.8489 11.9501 31.9839 12.2332C32.22 12.3203 32.61 12.4846 32.8542 12.4013C32.8059 11.8034 34.1712 9.93513 34.5579 9.37119Z" fill="#060607"/>
<path d="M51.9447 48.3576C52.1166 48.0978 52.041 48.1227 52.2822 48.0645C52.8669 48.3264 55.0029 49.2426 55.3068 49.587C53.5923 52.0089 49.8951 55.3758 47.1306 56.5163C44.2548 58.2696 39.1455 59.4009 35.8326 59.2902C35.4285 59.2767 34.3287 59.2851 33.9948 59.2185C33.1458 59.1387 32.4168 59.0313 31.5753 58.8993C25.4011 57.4995 20.8425 54.8358 16.9219 49.788C16.9635 49.5792 16.9202 49.6422 17.0642 49.5174C17.4186 49.5858 17.3735 50.0181 17.8665 50.1237C18.4656 50.2518 20.0615 49.2138 20.5422 48.8562L20.5871 48.9312C22.4721 50.688 23.3133 51.6312 25.6473 52.9956C26.7203 53.6145 27.8452 54.1386 29.0092 54.5622C29.5982 54.7806 31.0599 55.1853 31.4133 55.6263C31.6935 56.0205 32.3367 57.1305 32.5971 57.3444C34.8411 57.2676 37.0818 57.5148 39.4125 57.3027C39.8478 56.7897 40.2468 55.8627 40.7244 55.4754C41.022 55.3005 41.5875 55.1163 41.9292 54.9924L42.24 54.9702C42.996 54.6 44.0292 54.2751 44.8626 53.8767C47.8575 52.4451 49.7688 50.7624 51.9447 48.3576Z" fill="#213446"/>
<path d="M51.9448 48.3576C52.1167 48.0978 52.0411 48.1227 52.2823 48.0645C52.867 48.3264 55.003 49.2426 55.3069 49.587C53.5924 52.0089 49.8952 55.3758 47.1307 56.5163C44.2549 58.2696 39.1456 59.4009 35.8327 59.2902C35.4286 59.2767 34.3288 59.2851 33.9949 59.2185C34.1836 59.1771 34.1818 59.1153 34.3327 58.9401C34.768 59.0088 36.4168 59.1447 36.8233 59.1024C38.449 58.9329 40.0312 58.9818 41.5702 58.4136L40.6582 58.5183C40.9492 58.3764 42.6919 57.9501 43.1977 57.7719C44.8453 57.192 46.3672 56.517 47.8963 55.6716C50.2267 54.2604 52.5325 52.3956 54.2164 50.2497C53.8222 50.0472 52.4461 49.0098 52.117 48.6747C52.0894 48.5037 52.0651 48.4848 51.9448 48.3576Z" fill="#132832"/>
<path d="M39.4128 57.3026C39.8481 56.7896 40.2471 55.8626 40.7247 55.4753C41.0292 55.7876 41.3841 55.6841 41.7765 55.541C41.8272 55.6526 41.8698 55.6832 41.8131 55.781C41.361 56.5634 40.8243 57.7049 40.152 58.2692C38.1366 58.3877 36.1605 58.667 34.1208 58.5059C33.1572 58.4297 33.0015 58.1288 32.5974 57.3443C34.8414 57.2675 37.0821 57.5147 39.4128 57.3026Z" fill="#132832"/>
<path d="M51.945 48.3574C52.0653 48.4846 52.0896 48.5035 52.1172 48.6745C49.9278 51.6322 45.8094 54.2308 42.3543 55.3606L42.216 55.324C42.198 55.1563 42.1956 55.132 42.2403 54.97C42.9963 54.5998 44.0295 54.2749 44.8629 53.8765C47.8578 52.4449 49.7691 50.7622 51.945 48.3574Z" fill="url(#paint0_linear_1_2274)"/>
<path d="M20.5875 48.9312C22.4725 50.688 23.3137 51.6312 25.6477 52.9956C26.7207 53.6145 27.8456 54.1386 29.0096 54.5622C29.5986 54.7806 31.0603 55.1853 31.4137 55.6263L31.2607 55.716C30.8173 55.6623 30.2173 55.434 29.777 55.2822C27.2961 54.4401 24.9818 53.1702 22.9389 51.5298C22.4867 51.1641 20.4757 49.4859 20.4304 49.0593L20.5875 48.9312Z" fill="url(#paint1_linear_1_2274)"/>
<path d="M31.5757 58.8988C32.1157 58.7683 33.8992 58.6468 34.333 58.9396C34.1821 59.1148 34.1839 59.1766 33.9952 59.218C33.1462 59.1382 32.4172 59.0308 31.5757 58.8988Z" fill="#132832"/>
<path d="M28.7874 12.6153C29.0696 12.4379 31.2721 11.9365 31.6855 11.864C31.906 11.9437 31.8484 11.95 31.9834 12.233L31.9387 12.3159C31.9345 13.1666 31.9051 14.1992 31.9438 15.0342C27.825 15.9579 25.0297 17.3252 21.8517 20.1731C21.2568 20.1634 20.6387 20.1431 20.0468 20.1792C18.0597 21.8054 15.8926 25.8302 15.0937 28.2771C15.3286 28.745 15.5716 29.2089 15.8226 29.6684C15.0213 32.5845 14.7206 37.1967 15.7791 40.0353C14.9001 40.5159 14.0963 40.9614 13.2446 41.4873L12.9586 41.6778C12.6019 41.2479 12.4298 39.9381 12.3356 39.369C11.8084 36.1854 11.8337 33.0204 12.6052 29.8763C12.695 29.4315 12.7744 29.1651 12.9129 28.7352C13.2693 27.3367 13.9384 25.7912 14.6062 24.5095C17.5801 18.83 22.677 14.5551 28.7874 12.6153Z" fill="url(#paint2_linear_1_2274)"/>
<path d="M12.9134 28.7351C13.2698 27.3366 13.9389 25.7911 14.6067 24.5094C17.5806 18.8299 22.6775 14.555 28.7879 12.6152L28.9623 13.0639C23.2068 14.7496 17.8892 19.2541 15.0762 24.513C14.2356 26.0846 13.9806 27.0533 13.3839 28.6406C13.2568 29.1204 13.1064 29.7705 12.9605 30.23L12.8346 30.2672C12.6921 30.7673 12.5656 31.4795 12.4549 32.0021C12.3026 31.3505 12.8397 30.7217 12.6057 29.8762C12.6955 29.4314 12.7749 29.165 12.9134 28.7351Z" fill="url(#paint3_linear_1_2274)"/>
<path d="M12.9134 28.7354L12.999 28.8742C13.2573 28.4374 13.555 26.9624 13.7972 26.854L13.8611 26.9616C13.6294 27.43 13.4685 27.9833 13.308 28.4848C13.3416 28.5831 13.3232 28.5852 13.3839 28.6409C13.2568 29.1207 13.1064 29.7708 12.9605 30.2303L12.8346 30.2675C12.6921 30.7676 12.5656 31.4798 12.4549 32.0024C12.3026 31.3508 12.8397 30.722 12.6057 29.8764C12.6955 29.4317 12.7749 29.1653 12.9134 28.7354Z" fill="#8ABCCC"/>
<path d="M12.6052 29.8765C12.8392 30.722 12.3021 31.3508 12.4544 32.0024C12.5651 31.4798 12.6916 30.7676 12.8341 30.2675L12.96 30.2303C12.8595 31.0334 12.6419 31.9526 12.5534 32.7209C12.2888 35.0177 12.5217 39.2933 13.2446 41.4875L12.9586 41.678C12.6019 41.2481 12.4298 39.9383 12.3356 39.3692C11.8084 36.1856 11.8337 33.0206 12.6052 29.8765Z" fill="url(#paint4_linear_1_2274)"/>
<path d="M28.7876 12.6153C29.0698 12.4379 31.2723 11.9365 31.6857 11.864C31.9062 11.9437 31.8486 11.95 31.9836 12.233L31.9389 12.3159C31.3107 12.4438 29.4904 12.8351 28.962 13.064L28.7876 12.6153Z" fill="#76E0ED"/>
<path d="M40.0295 11.9894L40.151 11.8249C40.7054 11.776 43.8128 12.6674 44.3729 12.9553C49.8716 14.9277 54.7205 19.1058 57.4394 24.3321C57.4568 24.3657 57.4706 24.4052 57.4838 24.4407C57.8123 24.8998 58.3499 26.2262 58.5584 26.7849C60.0371 30.6832 60.4529 34.9045 59.7626 39.0163C59.6153 39.9064 59.4521 40.7137 59.1572 41.5708C58.8542 41.3092 56.8922 40.27 56.4677 40.0696C56.3927 39.8542 56.5025 39.3703 56.5529 39.1366C56.9732 37.1878 56.9939 35.1685 56.8241 33.1885C56.7545 32.3794 56.5511 31.4878 56.5343 30.6781L56.5334 30.6064L56.693 30.5743C56.8052 30.4651 56.9096 30.3478 57.0056 30.2239C57.5219 29.5563 57.0932 29.0758 56.9825 28.2006C56.2571 25.7539 53.9744 21.9289 52.0811 20.2442L50.2895 20.1975C47.375 17.6211 44.591 16.0552 40.7831 15.1332C40.8386 14.3613 40.6409 13.1649 40.8782 12.4897C40.3553 12.3492 40.2458 12.4978 40.0295 11.9894Z" fill="url(#paint5_linear_1_2274)"/>
<path d="M44.3726 12.9556C49.8713 14.928 54.7202 19.1061 57.4391 24.3323C57.4565 24.3659 57.4703 24.4054 57.4835 24.4409L57.3632 24.4593C57.0464 23.9915 56.8322 23.4575 56.51 22.9628C55.5431 21.4774 54.4559 20.0157 53.1689 18.7965C53.1353 19.1953 53.303 18.9217 53.3918 19.3211C51.3269 17.5253 49.9892 16.1171 47.4461 14.7803C46.6568 14.3655 45.5279 13.9399 44.864 13.5666L44.8355 13.5501C44.8871 13.3922 44.8841 13.4702 44.8424 13.3079C44.5901 13.1933 44.5349 13.1782 44.3726 12.9556Z" fill="url(#paint6_linear_1_2274)"/>
<path d="M56.6929 30.5742C56.7058 30.585 56.8453 30.7008 56.8453 30.7008C57.3391 33.3699 57.4942 36.0837 57.046 38.7726C56.9872 39.1254 56.8969 39.6666 56.7031 39.9765C56.6053 40.0224 56.5741 40.044 56.4676 40.0695C56.3926 39.8541 56.5024 39.3702 56.5528 39.1365C56.9731 37.1877 56.9938 35.1684 56.824 33.1884C56.7544 32.3793 56.551 31.4877 56.5342 30.678L56.5333 30.6063L56.6929 30.5742Z" fill="url(#paint7_linear_1_2274)"/>
<path d="M40.0295 11.9894L40.151 11.8249C40.7054 11.776 43.8128 12.6674 44.3729 12.9553C44.5352 13.178 44.5904 13.193 44.8427 13.3077C44.8844 13.47 44.8874 13.392 44.8358 13.5499C43.5557 13.098 42.2261 12.6734 40.8782 12.4897C40.3553 12.3492 40.2458 12.4978 40.0295 11.9894Z" fill="#8ABCCC"/>
<path d="M55.5992 40.8515C55.9877 40.7231 58.0637 42.0452 58.4129 42.371L58.7558 42.4811C59.306 43.124 60.1298 44.6618 60.4871 45.4721C60.0524 46.4828 59.6672 47.2808 59.0804 48.2243C58.4651 48.5387 56.707 48.6911 55.9537 48.7796L56.1332 48.4199C55.3667 48.3704 54.8062 48.0119 54.1738 47.7917C52.1224 47.0777 52.1846 46.5947 51.2996 44.7641C51.191 44.5391 51.0908 44.2043 50.9062 44.0366C51.1136 43.9214 51.1547 43.8869 51.3314 43.733C51.6491 43.0361 51.9137 42.4853 52.2797 41.8079C53.2694 41.5043 54.586 41.5577 55.6486 41.3333C55.6768 41.207 55.703 41.0798 55.727 40.9523L55.5992 40.8515Z" fill="#060607"/>
<path d="M58.4129 42.3708L58.7558 42.481C59.306 43.1239 60.1298 44.6617 60.4871 45.472C60.0524 46.4827 59.6672 47.2807 59.0804 48.2242C58.4651 48.5386 56.707 48.6909 55.9537 48.7794L56.1332 48.4197C55.3667 48.3702 54.8062 48.0117 54.1738 47.7915C52.1224 47.0775 52.1846 46.5946 51.2996 44.764C51.191 44.539 51.0908 44.2042 50.9062 44.0365C51.1136 43.9213 51.1547 43.8867 51.3314 43.7328C52.2671 44.8938 52.5791 46.3999 54.026 47.0701C54.6767 47.3713 55.3313 47.7249 55.9889 48.0318C58.8836 47.4561 58.2965 48.2749 59.8673 45.43C59.5196 44.6515 59.069 43.7241 58.5593 43.0392C58.6706 42.7962 58.5236 42.5832 58.4129 42.3708Z" fill="url(#paint8_linear_1_2274)"/>
<path d="M55.5991 40.8515C55.9876 40.7231 58.0636 42.0452 58.4128 42.371C58.5235 42.5834 58.6705 42.7964 58.5592 43.0394C57.7621 42.4763 56.4661 41.9783 55.6486 41.3333C55.6768 41.207 55.7029 41.0798 55.7269 40.9523L55.5991 40.8515Z" fill="#436F82"/>
<path d="M52.3569 43.1121C52.5993 43.1946 53.8746 43.9641 54.1848 44.1429C55.4736 44.8857 56.7921 45.6231 58.068 46.3893C58.3482 46.5576 58.476 46.6227 58.5357 46.8933C58.4553 47.097 58.302 47.1477 58.1079 47.2467C57.4209 47.3718 56.6769 47.4597 55.9815 47.5545C53.5854 46.1796 53.3892 46.4355 52.0413 43.7799C52.0437 43.5378 52.2201 43.3209 52.3569 43.1121Z" fill="#CE611C"/>
<path d="M52.9356 42.8293C52.7349 42.6565 52.7664 42.7303 52.7085 42.5239C53.0493 42.0919 55.2009 41.8666 55.6452 42.0262C57.9033 43.3936 58.0086 43.0435 59.3277 45.421L58.9134 46.1527C58.2579 45.7936 53.1732 42.871 52.9356 42.8293Z" fill="#CE611C"/>
<path d="M52.9356 42.8293C52.7349 42.6565 52.7664 42.7303 52.7085 42.5239C53.0493 42.0919 55.2009 41.8666 55.6452 42.0262C55.0029 42.9127 53.7195 42.3127 52.9356 42.8293Z" fill="#E3852E"/>
<path d="M13.4835 42.3166C14.2927 42.0304 15.8085 40.8868 16.5282 40.8616C16.6089 41.0593 16.6439 41.1136 16.5973 41.3293C17.2482 41.5366 18.5903 41.5381 19.4596 41.7175C19.7765 41.9065 20.3819 43.2799 20.5941 43.7191C20.7104 43.8376 20.8075 43.9597 20.9566 44.0248C20.5654 44.2417 19.7025 46.5289 18.9165 47.092C17.9784 47.7637 17.2183 47.9902 16.2036 48.4735C15.4111 48.4033 15.0921 48.3577 14.2993 48.5185C13.7302 48.4681 13.3195 48.4993 12.9093 48.1024C12.5641 47.542 12.3334 47.0908 12.0404 46.5043C11.9027 46.2124 11.8186 46.0366 11.6439 45.7675C11.4984 45.0352 12.8867 42.7882 13.4835 42.3166Z" fill="#060607"/>
<path d="M20.5936 43.7192C20.7099 43.8377 20.807 43.9598 20.956 44.0249C20.5648 44.2418 19.7019 46.529 18.9159 47.0921C17.9779 47.7638 17.2177 47.9903 16.2031 48.4736C15.4105 48.4034 15.0916 48.3578 14.2987 48.5186C13.7296 48.4682 13.3189 48.4994 12.9087 48.1025C13.2378 47.9135 13.1788 48.0062 13.3427 47.7011C13.649 47.7968 15.6457 47.9852 16.0864 48.0323C16.8214 47.6744 17.841 47.1998 18.5132 46.7675C19.3765 46.2128 19.9597 44.5943 20.5936 43.7192Z" fill="#0F3A4A"/>
<path d="M13.4835 42.3166C14.2927 42.0304 15.8085 40.8868 16.5282 40.8616C16.6089 41.0593 16.6439 41.1136 16.5973 41.3293C16.2115 41.2876 14.0551 42.6931 13.6302 42.988C13.1223 43.3405 12.516 44.5774 12.1903 45.181C12.0335 45.3754 11.8473 45.6349 11.6439 45.7675C11.4984 45.0352 12.8867 42.7882 13.4835 42.3166Z" fill="url(#paint9_linear_1_2274)"/>
<path d="M12.1902 45.1812C12.2274 45.4458 12.2447 45.6284 12.3343 45.8822C12.7079 46.4924 12.9911 47.1144 13.3431 47.7012C13.1792 48.0063 13.2382 47.9135 12.9091 48.1025C12.564 47.5421 12.3332 47.091 12.0403 46.5045C11.9026 46.2126 11.8185 46.0368 11.6438 45.7677C11.8472 45.6351 12.0334 45.3756 12.1902 45.1812Z" fill="#125166"/>
<path d="M12.1902 45.1812C12.2274 45.4458 12.2447 45.6284 12.3343 45.8822C12.285 46.1657 12.3067 46.3107 12.0403 46.5045C11.9026 46.2126 11.8185 46.0368 11.6438 45.7677C11.8472 45.6351 12.0334 45.3756 12.1902 45.1812Z" fill="#436F82"/>
<path d="M16.2076 42.1657C16.7842 41.8324 18.4828 42.1111 19.203 42.1906C19.3833 42.4009 19.3596 42.3142 19.3631 42.5332C19.098 42.856 13.4642 46.1095 13.0862 46.1641C12.8983 46.0603 12.8283 45.8779 12.7291 45.6874C12.6326 45.3286 13.2084 44.542 13.4265 44.2255C14.0838 43.1755 15.0963 42.7048 16.2076 42.1657Z" fill="#CE611C"/>
<path d="M16.2079 42.1657C16.7844 41.8324 18.4831 42.1111 19.2033 42.1906L19.1432 42.4978C19.0212 42.5563 16.9802 42.4003 16.6837 42.3838C16.0608 42.7102 15.3869 43.0474 14.7775 43.3903C14.4554 43.6531 14.0701 44.023 13.8774 44.395C13.7748 44.4316 13.7128 44.4247 13.6056 44.4259L13.4268 44.2255C14.0841 43.1755 15.0966 42.7048 16.2079 42.1657Z" fill="#E3852E"/>
<path d="M16.2079 42.1658L16.289 42.2519C15.9475 42.4649 14.9294 42.9926 14.7565 43.1873L14.7775 43.3904C14.4554 43.6532 14.0701 44.0231 13.8774 44.3951C13.7748 44.4317 13.7128 44.4248 13.6056 44.426L13.4268 44.2256C14.0841 43.1756 15.0966 42.7049 16.2079 42.1658Z" fill="#E7943A"/>
<path d="M12.7291 45.688C12.6326 45.3292 13.2084 44.5426 13.4265 44.2261L13.6053 44.4265C13.7125 44.4253 13.7746 44.4322 13.8771 44.3956C13.5658 44.92 13.3148 45.4849 12.7291 45.688Z" fill="#E3852E"/>
<path d="M13.5035 46.6913C13.6622 46.5617 14.6984 45.9491 14.8431 45.8924C15.5836 45.6017 19.2501 43.1525 19.8487 43.2062C19.9574 43.5569 19.9928 43.6754 19.837 44.0081C19.508 44.7107 18.9449 45.7073 18.3361 46.1828L18.2951 46.2152C18.2707 46.2329 18.2462 46.2506 18.2218 46.2683C17.7983 46.5275 16.17 47.5838 15.7827 47.5085C15.1457 47.4452 14.5813 47.4476 13.8898 47.3636C13.697 47.1965 13.4543 47.039 13.4155 46.7993L13.5035 46.6913Z" fill="#CE611C"/>
<path d="M13.5034 46.6913C13.6622 46.5617 14.6983 45.9491 14.8431 45.8924C15.5835 45.6017 19.25 43.1525 19.8487 43.2062C19.8204 43.3502 19.8181 43.5851 19.6889 43.6505C17.8029 44.6033 15.9965 45.7139 14.1675 46.7687C14.019 46.8545 13.6469 46.7837 13.5034 46.6913Z" fill="#E3852E"/>
<path d="M15.7827 47.5081C16.4462 46.8913 17.243 46.048 18.2218 46.2679C17.7984 46.5271 16.1701 47.5834 15.7827 47.5081Z" fill="#A51B1B"/>
<path d="M34.558 9.37119C35.0053 8.98677 36.9652 9.05205 37.4842 9.45021C37.8106 9.96507 38.9812 11.7181 39.1546 12.164C39.0493 13.1059 39.0907 14.0284 39.0496 14.9655C38.9929 16.257 37.6909 17.5499 36.9796 18.6302C36.2182 18.6541 35.5714 18.6708 34.807 18.6412C34.243 17.7963 33.6631 16.962 33.0679 16.1388C32.6554 15.2124 33.1594 13.1326 32.8543 12.4013C32.806 11.8034 34.1713 9.93513 34.558 9.37119Z" fill="#060607"/>
<path d="M32.8543 12.401C32.806 11.803 34.1713 9.93479 34.558 9.37085C34.849 9.45167 34.8826 9.40526 35.02 9.59915L35.0104 9.69467C34.4926 10.198 33.8218 11.4 33.43 12.0554C33.4666 13.2794 33.4504 14.5699 33.4537 15.799C34.0249 16.5026 34.6024 17.6593 35.3278 17.9689L35.3722 17.9875C35.7163 18.1335 36.3343 18.0745 36.7282 18.0625C37.2502 17.4979 38.0893 16.2579 38.5357 15.6111C38.5372 14.4872 38.5315 13.3692 38.5822 12.2459C38.1082 11.2833 37.5733 10.6561 37.0564 9.77336C37.3177 9.70289 37.27 9.68279 37.4842 9.44987C37.8106 9.96473 38.9812 11.7178 39.1546 12.1637C39.0493 13.1055 39.0907 14.028 39.0496 14.9652C38.9929 16.2566 37.6909 17.5495 36.9796 18.6299C36.2182 18.6538 35.5714 18.6705 34.807 18.6409C34.243 17.796 33.6631 16.9617 33.0679 16.1385C32.6554 15.2121 33.1594 13.1322 32.8543 12.401Z" fill="url(#paint10_linear_1_2274)"/>
<path d="M32.8543 12.401C32.806 11.803 34.1713 9.93479 34.558 9.37085C34.849 9.45167 34.8826 9.40526 35.02 9.59915L35.0104 9.69467C34.4926 10.198 33.8218 11.4 33.43 12.0554C33.1111 13.1361 33.7012 15.6042 33.0679 16.1385C32.6554 15.2121 33.1594 13.1322 32.8543 12.401Z" fill="#8ABCCC"/>
<path d="M34.5574 9.37119C35.0047 8.98677 36.9646 9.05205 37.4836 9.45021C37.2694 9.68313 37.3171 9.70323 37.0558 9.7737C36.4417 9.64782 35.6572 9.81123 35.0098 9.69501L35.0194 9.59949C34.882 9.4056 34.8484 9.45201 34.5574 9.37119Z" fill="#76E0ED"/>
<path d="M36.2492 16.864C36.2702 16.0128 36.149 10.3321 36.518 10.2468C36.6254 10.2909 36.7235 10.3531 36.8006 10.4387C38.3615 12.1768 38.0633 13.2966 38.0213 15.3728C37.7672 15.8206 36.9266 17.1461 36.4727 17.3246L36.3338 17.2853C36.2687 17.0969 36.2594 17.0627 36.2492 16.864Z" fill="#E3852E"/>
<path d="M36.249 16.8644C36.4068 16.954 36.5442 16.6467 36.6342 16.5359C37.1226 15.9337 37.221 15.5474 38.0211 15.3733C37.767 15.8211 36.9264 17.1465 36.4725 17.325L36.3336 17.2857C36.2685 17.0974 36.2592 17.0632 36.249 16.8644Z" fill="#CE611C"/>
<path d="M35.4225 10.166L35.5605 10.2505C35.7627 10.5903 35.7498 17.2079 35.5392 17.4309C35.3259 17.3597 35.1903 17.141 35.0415 16.955C34.6488 16.4459 34.3863 16.0715 34.0404 15.5291C33.9921 13.2417 33.6324 11.8913 35.4225 10.166Z" fill="#E3852E"/>
<path d="M16.6511 49.3519C17.2957 49.3912 18.9255 48.4093 19.8409 48.1177C20.1024 48.349 20.3664 48.5539 20.5423 48.8557C20.0616 49.2133 18.4656 50.2513 17.8666 50.1232C17.3736 50.0176 17.4187 49.5853 17.0643 49.5169C16.9203 49.6417 16.9635 49.5787 16.922 49.7875L16.6511 49.3519Z" fill="#132832"/>
<path d="M52.0809 41.2986C53.0619 41.1 54.5856 40.9584 55.599 40.8516L55.7268 40.9524C55.7028 41.0799 55.6767 41.2071 55.6485 41.3334C54.5859 41.5578 53.2692 41.5044 52.2795 41.808C51.9135 42.4854 51.6489 43.0362 51.3312 43.7331C51.1545 43.887 51.1134 43.9215 50.9061 44.0367C50.7909 43.9353 50.7975 43.9371 50.73 43.7967C50.8059 43.2312 51.7329 41.8455 52.0809 41.2986Z" fill="url(#paint11_linear_1_2274)"/>
<path d="M40.0295 11.9895C40.2458 12.4979 40.3553 12.3493 40.8782 12.4898C40.6409 13.165 40.8386 14.3614 40.7831 15.1333C39.7034 15.0087 40.1492 14.2073 40.0961 13.402C40.0754 13.0878 40.1315 12.7619 40.0595 12.4496L40.0295 11.9895Z" fill="#0F3A4A"/>
<path d="M16.5281 40.8616C17.353 40.9711 19.6424 41.0164 20.1093 41.5201C19.8388 41.7184 19.8353 41.6938 19.4595 41.7175C18.5902 41.5381 17.248 41.5366 16.5972 41.3293C16.6438 41.1136 16.6088 41.0593 16.5281 40.8616Z" fill="#8ABCCC"/>
<path d="M20.1092 41.52L20.1243 41.5515C20.427 42.1665 20.8847 42.7437 21.1449 43.3866C21.307 43.7871 21.2618 43.791 20.9564 44.0247C20.8074 43.9596 20.7103 43.8375 20.594 43.719C20.3817 43.2798 19.7764 41.9064 19.4595 41.7174C19.8352 41.6937 19.8387 41.7183 20.1092 41.52Z" fill="#125166"/>
<path d="M56.9824 28.2007C57.0931 29.0759 57.5218 29.5564 57.0055 30.224C56.9095 30.3479 56.8051 30.4652 56.6929 30.5744L56.5333 30.6065C56.4364 30.3338 56.3668 29.8904 56.311 29.5945C56.6038 29.169 56.9656 28.7146 56.9824 28.2007Z" fill="#132832"/>
<path d="M20.3421 21.1661C21.394 21.1844 26.0304 21.0761 26.7645 21.2711C27.2388 21.9126 29.7459 24.4758 29.8639 25.0325L29.7852 25.096L29.5814 25.0473C27.1546 25.2323 24.0281 25.0157 21.5453 25.056C21.3495 25.3679 20.0106 27.7004 19.976 27.9018L21.6077 30.7179C21.8463 31.1247 22.3824 31.9938 22.5585 32.4096C22.8995 33.0981 22.9773 32.9391 23.507 33.3309C24.3267 33.6354 26.7732 34.5885 27.2074 35.2329C27.6332 35.7759 28.3886 37.1337 28.766 37.797C29.4276 38.9598 30.3521 40.3953 30.9188 41.5845C31.0028 41.6808 31.1834 41.8974 31.1822 42.0096C31.1729 43.0683 31.166 45.5112 30.8642 46.4346C31.7516 47.7705 33.3803 50.3145 34.1594 51.7071C34.2581 51.8685 34.5323 52.3476 34.6499 52.4544C35.2103 52.3884 36.9155 52.3848 37.481 52.431C38.6942 50.4558 39.9179 48.4872 41.1518 46.5249C40.9649 45.6783 40.8347 43.1949 40.7264 42.1392C41.6867 40.2624 43.3823 37.4907 44.5022 35.6463C45.0941 34.3473 48.0086 33.9957 48.9539 33.1224C50.015 32.1423 51.2627 29.0999 52.2047 28.092L52.2377 28.0573C52.2326 27.6684 50.9006 25.7309 50.5769 25.0667C48.7715 24.8654 44.0726 25.4553 42.7943 24.8668C42.5822 24.9921 42.5447 25.0166 42.2996 25.0755L42.2015 25.0012C42.3596 24.5001 45.0041 21.8075 45.5621 21.2156C46.3688 21.2287 51.6122 21.1402 51.8639 21.3386C52.3304 21.9179 52.7936 22.4024 53.2553 23.0171C54.4541 24.6124 55.1498 26.147 55.9907 27.9183C56.0246 28.1416 54.0869 31.1436 53.8589 31.5711C53.6192 32.0211 52.7945 33.3933 52.4432 33.8214C51.0824 34.4796 49.3634 34.8435 48.0221 35.5653C47.8667 35.6487 47.6057 35.9685 47.507 36.1305C46.7279 37.4121 45.8996 38.7552 45.1577 40.0539C44.5559 41.1072 43.6343 42.4083 43.1027 43.4343C43.2335 44.7357 43.4696 46.4181 43.6898 47.7156C43.8176 48.1143 43.7945 48.3447 43.5716 48.7086C42.0176 51.2466 40.5221 54.0264 38.7923 56.4441C37.1417 56.55 35.0741 56.5743 33.4235 56.4579C33.1898 56.4414 32.8817 56.0586 32.7842 55.8909C32.1005 54.714 28.6238 49.4943 28.3329 48.525C28.4736 47.1315 28.7122 44.9439 28.9823 43.6131C28.9004 42.9819 25.4097 37.5255 24.8551 36.3798C24.7913 36.3372 24.3732 35.6478 24.2886 35.5194C23.3086 35.0532 20.0003 34.2111 19.4858 33.4902C18.6219 32.28 17.5254 30.3141 16.7189 28.9847C16.5576 28.7189 16.2168 28.2032 16.2969 27.9046C17.415 24.9958 18.3347 23.5471 20.3421 21.1661Z" fill="#A51B1B"/>
<path d="M43.6895 47.7158C43.8173 48.1145 43.7942 48.3449 43.5713 48.7088C42.0173 51.2468 40.5218 54.0266 38.792 56.4443C37.1414 56.5502 35.0738 56.5745 33.4232 56.4581C33.1895 56.4416 32.8814 56.0588 32.7839 55.8911C32.1002 54.7142 28.6235 49.4945 28.3325 48.5252L28.5927 48.4394C29.0523 48.6122 29.9567 50.2988 30.2618 50.7914C31.2881 52.4495 32.2676 54.1262 33.335 55.7606C34.8215 55.6343 36.9194 55.7648 38.5325 55.7168C38.8427 55.2965 39.1448 54.8381 39.4133 54.3902C40.6421 52.3412 42.0002 50.2934 43.1516 48.2033C43.2527 47.9477 43.3523 47.8964 43.5647 47.8037L43.6034 47.8682L43.6895 47.7158Z" fill="#5B0D11"/>
<path d="M55.9902 27.9187C56.0241 28.142 54.0864 31.144 53.8584 31.5715C53.6187 32.0215 52.794 33.3937 52.4427 33.8218C51.0819 34.48 49.3629 34.8439 48.0216 35.5657C47.8662 35.6491 47.6052 35.9689 47.5065 36.1309C46.7274 37.4125 45.8991 38.7556 45.1572 40.0543C44.5554 41.1076 43.6338 42.4087 43.1022 43.4347C43.233 44.7361 43.4691 46.4185 43.6893 47.716L43.6032 47.8684L43.5645 47.8039C43.3521 47.8966 43.2525 47.9479 43.1514 48.2035C43.1316 48.1216 43.113 48.0391 43.0959 47.9566C42.8784 46.9204 42.4461 44.2945 42.6579 43.3312C42.7518 42.9046 46.9422 35.9326 47.5335 35.0287C48.8202 34.4608 50.1564 34.1329 51.4557 33.6199C52.3548 33.2647 52.9167 31.9768 53.3907 31.1746C54.0243 30.1018 54.6054 28.9936 55.2933 27.9475C55.614 27.8274 55.4481 28.0688 55.8588 28.0795L55.9902 27.9187Z" fill="url(#paint12_linear_1_2274)"/>
<path d="M44.502 35.6463C44.6088 35.5716 44.7246 35.4966 44.823 35.4123L44.8866 35.4297L45.0534 35.2563C45.0546 35.4171 44.8734 35.4333 44.9199 35.6358C44.1507 36.9945 43.3623 38.3421 42.5541 39.6783C42.192 40.2834 41.4072 41.523 41.1471 42.1374C41.2197 43.4844 41.4777 45.2724 41.5929 46.7274C40.4061 48.8223 38.9523 50.8833 37.7241 52.9389C37.1265 52.9506 34.4511 53.0949 34.1643 52.8318L34.1802 52.7016C34.3734 52.5537 34.4262 52.5387 34.6497 52.4544C35.2101 52.3884 36.9153 52.3848 37.4808 52.431C38.694 50.4558 39.9177 48.4872 41.1516 46.5249C40.9647 45.6783 40.8345 43.1949 40.7262 42.1392C41.6865 40.2624 43.3821 37.4907 44.502 35.6463Z" fill="url(#paint13_linear_1_2274)"/>
<path d="M24.2886 35.5196C23.3086 35.0534 20.0003 34.2113 19.4858 33.4904C18.6219 32.2802 17.5254 30.3143 16.7189 28.9849C16.5576 28.7191 16.2168 28.2033 16.2969 27.9048C16.4177 27.9405 16.5802 27.9945 16.6992 28.02C17.1616 28.1699 19.4762 32.5463 20.0553 33.3389C21.6115 33.9374 23.2462 34.4822 24.7784 35.0924L25.0979 35.7941L25.0462 35.9093L24.9302 35.7539L24.777 35.7509C24.6444 36.0617 24.9017 36.0056 24.8551 36.38C24.7913 36.3374 24.3732 35.648 24.2886 35.5196Z" fill="#5B0D11"/>
<path d="M20.3419 21.1661C21.3938 21.1844 26.0301 21.0761 26.7642 21.2711C26.4671 21.6105 26.3203 21.6807 25.8467 21.689C24.1317 21.7189 22.3801 21.697 20.6656 21.6886C19.4906 22.8689 18.5384 24.3676 17.7824 25.8499C17.4677 26.467 17.095 27.5016 16.6989 28.0198C16.5799 27.9944 16.4174 27.9404 16.2966 27.9046C17.4148 24.9958 18.3344 23.5471 20.3419 21.1661Z" fill="#ED6147"/>
<path d="M52.4604 28.0113L52.7769 27.7417L52.8618 27.7854C52.7874 28.4406 50.3688 31.8845 49.9473 32.7788C49.3431 34.0616 46.083 34.6856 44.9199 35.6357C44.8734 35.4332 45.0546 35.417 45.0534 35.2562L44.8866 35.4296L44.823 35.4122C44.7246 35.4965 44.6088 35.5715 44.502 35.6462C45.0939 34.3472 48.0084 33.9956 48.9537 33.1223C50.0148 32.1422 51.2625 29.0999 52.2045 28.0919L52.2375 28.0572L52.4604 28.0113Z" fill="url(#paint14_linear_1_2274)"/>
<path d="M45.5623 21.2162C46.369 21.2292 51.6124 21.1408 51.8641 21.3392C51.5527 21.6952 51.361 21.72 50.8615 21.7371C49.192 21.794 47.4475 21.7047 45.7798 21.7514C44.9761 22.6077 43.9897 23.6091 43.2304 24.4945L42.7945 24.8674C42.5824 24.9926 42.5449 25.0172 42.2998 25.0761L42.2017 25.0018C42.3598 24.5007 45.0043 21.8081 45.5623 21.2162Z" fill="#ED6147"/>
<path d="M20.9397 24.7996C20.9953 24.6935 21.0376 24.552 21.1821 24.5406C23.0457 24.3926 24.9583 24.5465 26.8342 24.5127C27.4841 24.501 28.633 24.5181 29.1973 24.8178C29.3286 24.8885 29.4566 24.9651 29.581 25.0472C27.1543 25.2323 24.0278 25.0157 21.545 25.056C21.4125 24.9311 21.4041 25.0392 21.3047 24.8346L21.3611 24.8276L21.3463 24.6654C21.1392 24.5803 21.217 24.8197 20.9397 24.7996Z" fill="#5B0D11"/>
<path d="M24.8548 36.3801C24.9013 36.0057 24.6441 36.0618 24.7767 35.751L24.9298 35.754L25.0458 35.9094L25.0975 35.7942C26.1693 37.5387 28.1631 41.0508 29.305 42.9633C29.2925 43.0239 29.2816 43.0764 29.2725 43.1208L29.184 43.1823C29.0745 43.3497 29.0223 43.4112 28.9819 43.6134C28.9 42.9822 25.4094 37.5258 24.8548 36.3801Z" fill="#8E1416"/>
<path d="M43.2298 24.4939C43.7236 24.6083 45.091 24.5403 45.6922 24.5358L49.6516 24.5268C49.9525 24.5267 50.7427 24.4563 50.9281 24.6721C50.8552 24.9506 50.8762 24.8676 50.5765 25.0667C48.7711 24.8654 44.0722 25.4553 42.7939 24.8668L43.2298 24.4939Z" fill="#5B0D11"/>
<path d="M30.4365 46.8257C30.5787 46.6166 30.6249 46.5125 30.864 46.4351C31.7514 47.771 33.3801 50.315 34.1592 51.7076C34.098 51.7133 33.8322 51.734 33.81 51.7145C32.8503 50.8763 31.0344 47.7497 30.4365 46.8257Z" fill="#8E1416"/>
<path d="M30.9188 41.5845C31.0028 41.6808 31.1834 41.8974 31.1822 42.0096C31.1729 43.0683 31.166 45.5112 30.8642 46.4346C30.6251 46.512 30.5789 46.6161 30.4367 46.8252C30.4139 46.7529 30.3962 46.6788 30.3833 46.6041C30.302 46.1394 30.6446 42.7371 30.6983 42.0708C30.7097 41.9277 30.8312 41.7108 30.9188 41.5845Z" fill="#5B0D11"/>
<path d="M19.5891 28.3415C19.7663 28.0391 19.7129 28.0145 19.9757 27.9023L21.6074 30.7184C21.846 31.1252 22.3821 31.9943 22.5582 32.4101C22.5082 32.4158 22.3184 32.4755 22.2322 32.4935C21.9074 32.2316 19.8193 28.8507 19.5891 28.3415Z" fill="#8E1416"/>
<path d="M29.184 43.1824C29.4777 43.5334 29.3792 43.9276 29.3228 44.3953C29.2439 45.0478 28.9696 47.9899 28.752 48.3856L28.5927 48.4396L28.3325 48.5254C28.4732 47.1319 28.7119 44.9443 28.9819 43.6135C29.0223 43.4113 29.0745 43.3498 29.184 43.1824Z" fill="#ED6147"/>
<path d="M20.9399 24.8C21.2173 24.8201 21.1394 24.5807 21.3466 24.6659L21.3614 24.828L21.305 24.835C21.4043 25.0396 21.4127 24.9315 21.5452 25.0564C21.3494 25.3683 20.0105 27.7007 19.9759 27.9022C19.7131 28.0144 19.7665 28.0389 19.5893 28.3414C19.537 28.2703 19.311 27.9437 19.3198 27.8967C19.4239 27.3408 20.6747 25.1475 20.9399 24.8Z" fill="#5B0D11"/>
<path d="M50.9285 24.6726C51.329 25.2394 52.5497 27.3642 52.4606 28.0119L52.2377 28.0578C52.2326 27.6689 50.9006 25.7314 50.5769 25.0672C50.8766 24.8681 50.8556 24.9512 50.9285 24.6726Z" fill="#5B0D11"/>
<path d="M23.5067 33.3311C24.3263 33.6356 26.7729 34.5887 27.2071 35.2331L27.0039 35.2802C25.9587 34.9883 24.7698 34.3145 23.7791 33.8273C23.6804 33.779 23.6894 33.6602 23.6638 33.5219L23.4141 33.3812L23.5067 33.3311Z" fill="#ED6147"/>
<path d="M26.9302 22.3196C27.3905 22.4493 28.7343 24.0161 28.8456 24.4621C28.0392 23.8034 27.4898 23.1963 26.9302 22.3196Z" fill="#8E1416"/>
<path d="M23.6156 26.8546C23.6039 26.447 23.7637 26.1882 24.185 26.1555C25.26 26.0721 26.351 26.1224 27.4297 26.1402C29.0877 26.1652 30.746 26.1782 32.4041 26.1793L41.9915 26.164C43.829 26.1541 45.6785 26.1233 47.5157 26.1503C47.8142 26.1547 48.0635 26.1705 48.3047 26.3537C48.3914 26.5575 48.4889 26.7546 48.3917 26.9609C47.8079 28.1994 47.0003 29.4023 46.3028 30.577L42.8453 36.4918C41.2811 39.1288 39.7457 41.7826 38.24 44.4532C37.7534 45.2971 37.2488 46.2907 36.7466 47.104C36.5423 47.4349 36.3005 47.7412 36.026 48.0166L35.8991 47.9983L35.8397 47.9161C35.4413 47.4721 34.4768 45.7276 34.136 45.1396L31.0628 39.856L26.7007 32.4571C25.751 30.8812 24.7772 29.3061 23.8451 27.7189C23.7061 27.4822 23.659 27.13 23.6156 26.8546Z" fill="#125166"/>
<path d="M23.6156 26.8546C23.6039 26.447 23.7637 26.1882 24.185 26.1555C25.26 26.0721 26.351 26.1224 27.4297 26.1402C29.0877 26.1652 30.746 26.1782 32.4041 26.1793L41.9915 26.164C43.829 26.1541 45.6785 26.1233 47.5157 26.1503C47.8142 26.1547 48.0635 26.1705 48.3047 26.3537L48.2954 26.641C45.2429 26.5504 42.1535 26.7496 39.0983 26.7064C38.8061 26.7023 38.4842 26.7002 38.1926 26.7114C35.6003 26.6485 32.9927 26.7238 30.3914 26.6949C28.356 26.6723 26.2368 26.5517 24.2009 26.6562C24.068 26.6631 23.9277 26.9931 23.8207 27.0746L23.6156 26.8546Z" fill="#409DAF"/>
<path d="M48.3044 26.353C48.3911 26.5568 48.4886 26.7539 48.3914 26.9602C47.8076 28.1987 47 29.4015 46.3025 30.5762L42.845 36.491C41.2808 39.128 39.7454 41.7818 38.2397 44.4524C37.7531 45.2963 37.2485 46.2899 36.7463 47.1032C36.542 47.4341 36.3002 47.7404 36.0257 48.0159L35.8988 47.9975L35.8394 47.9153C36.0815 47.5946 35.8973 47.5172 35.9885 47.3387C36.7028 45.941 37.7435 44.6288 38.363 43.1795C38.4686 42.8834 39.4622 41.3135 39.6698 40.967L42.2681 36.5651L45.7505 30.5846C46.1801 29.849 46.6187 29.1174 47.0081 28.3592C47.2187 27.9493 47.8178 27.4496 47.7239 26.9683L47.4872 26.9182L47.4524 26.8066C47.5931 26.6027 47.9321 26.8632 48.2951 26.6402L48.3044 26.353Z" fill="#132832"/>
<path d="M23.6157 26.854L23.8208 27.074C24.723 27.9377 26.728 31.5937 27.4695 32.8615L32.6899 41.7415C33.6691 43.4104 34.8166 45.5011 35.8777 47.0818C36.1762 46.8961 37.9213 43.51 38.3635 43.1797C37.744 44.629 36.7033 45.9412 35.989 47.3389C35.8978 47.5174 36.082 47.5948 35.8399 47.9155C35.4415 47.4715 34.477 45.727 34.1362 45.139L31.063 39.8554L26.7009 32.4565C25.7512 30.8806 24.7773 29.3055 23.8452 27.7183C23.7062 27.4816 23.6591 27.1294 23.6157 26.854Z" fill="#0F3A4A"/>
<path d="M48.2955 26.6406C47.9325 26.8636 47.5935 26.6031 47.4528 26.807L47.4876 26.9185C45.9306 26.8253 44.4042 26.9641 42.8535 26.9889C40.4889 26.9903 38.1171 27.009 35.7525 26.9888C34.119 26.9749 32.118 27.0236 30.501 26.8284C31.236 26.7462 31.9488 26.796 32.6793 26.7749C34.446 26.7237 36.4557 26.8428 38.1927 26.711C38.4843 26.6998 38.8062 26.7019 39.0984 26.706C42.1536 26.7492 45.243 26.55 48.2955 26.6406Z" fill="#213446"/>
<path d="M27.1727 27.7843C28.4054 27.7277 29.7924 27.7966 31.0404 27.8128C33.0258 27.8306 35.0112 27.8362 36.9966 27.8296C38.4207 27.8284 39.8448 27.8186 41.2689 27.8002C42.4818 27.7756 43.62 27.6757 44.8272 27.8284C45.1656 28.1103 45.438 28.3236 45.5913 28.7399C45.669 29.0016 45.6522 29.0628 45.4929 29.3411C44.2152 31.5733 42.8808 33.7744 41.5926 36.0016C40.6014 37.7236 39.5955 39.4375 38.5758 41.1427C38.2035 41.7688 37.098 43.8931 36.3999 44.3815C36.2787 44.4664 35.8014 44.4202 35.6172 44.3299L35.5233 44.1772L35.5542 44.0854C34.7334 42.9301 33.8451 41.3254 33.1236 40.081L29.4948 33.8011C28.9598 32.8765 28.0316 31.2082 27.4232 30.3718C27.4148 30.3754 27.2298 30.5263 27.174 30.5629C26.9311 30.3115 26.7088 29.8064 26.8602 29.4674C26.8176 29.3509 26.4901 28.7954 26.4099 28.6538C26.6449 28.1803 26.7379 28.095 27.1727 27.7843Z" fill="#0F3A4A"/>
<path d="M45.5917 28.7397C45.6694 29.0014 45.6526 29.0626 45.4933 29.3409C44.2156 31.5731 42.8812 33.7742 41.593 36.0014C40.6018 37.7234 39.5959 39.4373 38.5762 41.1425C38.2039 41.7686 37.0984 43.8929 36.4003 44.3813C36.2791 44.4662 35.8018 44.42 35.6176 44.3297L35.5237 44.177L35.5546 44.0852C35.8105 44.156 35.8873 44.1698 36.1522 44.1896C36.79 44.0345 38.7568 40.322 39.1591 39.626L43.5595 32.078C43.9465 31.4183 45.1768 29.2278 45.5917 28.7397Z" fill="#409DAF"/>
<path d="M27.4237 30.3717C27.4154 30.3753 27.2303 30.5262 27.1745 30.5628C26.9316 30.3114 26.7094 29.8063 26.8607 29.4673C27.0162 29.7045 27.314 30.1311 27.4237 30.3717Z" fill="#436F82"/>
<path d="M35.5918 28.687C36.754 28.6894 43.3729 28.6287 44.0884 28.8712C44.1139 28.9057 44.1973 29.0068 44.1928 29.0326C44.0734 29.7176 42.9916 31.3827 42.6874 31.9065L40.0849 36.3849L37.7581 40.3794C37.3048 41.1504 36.7426 42.1527 36.2314 42.8565C36.1534 42.9591 36.0991 42.9861 35.9941 43.0569L35.821 42.9909C35.5912 42.7644 33.8851 39.7554 33.6205 39.3L29.0967 31.4199C28.7122 30.7479 28.0797 29.8923 27.8459 29.1321C27.8149 29.0312 27.9047 28.9446 27.9642 28.8658C28.6069 28.5994 34.4359 28.6901 35.5918 28.687Z" fill="#76E0ED"/>
<path d="M28.3354 29.1248C29.1935 29.0669 30.2806 29.0999 31.1629 29.0981C33.0142 29.083 34.8655 29.0933 36.7162 29.1291C39.0376 29.1625 41.4646 29.0976 43.7974 29.0713C43.5232 29.9335 42.0361 32.443 41.5528 33.247C40.6603 34.735 39.7813 36.2314 38.9158 37.7353C38.4742 38.4862 36.5392 42.0466 36.0481 42.4529L35.9062 42.4064C35.4304 41.9561 32.9245 37.513 32.5303 36.76C31.8343 35.4301 28.3966 30.1129 28.3354 29.1248Z" fill="#50D0E4"/>
<path d="M35.7487 39.4931L35.6632 39.4361C35.5894 39.5393 35.5768 39.5612 35.4754 39.6467C35.2927 39.5144 35.1073 39.386 34.9195 39.2609L35.1082 39.1787C35.143 39.0215 34.0339 38.3159 33.8548 38.0972C33.226 37.3283 31.1236 34.1441 31.348 33.3443C31.6249 33.4634 31.5469 33.6566 31.9342 33.9515C32.692 34.0661 32.4295 33.1277 33.0265 32.8331C33.049 32.9492 33.0502 33.0347 33.1309 33.1178L33.202 32.9723C33.1786 32.6657 33.2272 32.6972 33.0685 32.4857C33.0949 32.372 33.1012 32.3765 33.0739 32.2646C32.8573 32.2505 32.5087 32.4416 32.2954 32.5403L32.2579 32.4752C32.3413 32.3642 32.5774 32.129 32.6839 32.0174C32.7829 31.5752 31.9222 30.806 31.8793 30.3755C32.0455 30.4091 32.8345 31.049 33.1048 31.2242C33.5008 31.0397 33.8917 30.845 34.2772 30.6401C34.5832 30.4784 34.633 30.4784 34.7329 30.1433L34.7488 30.0896C35.3266 29.8357 36.8887 29.809 37.4746 30.0659C37.6084 30.3047 37.1305 30.2147 37.051 30.5234C37.426 30.7181 37.8196 30.6131 38.2042 30.6128C38.4619 30.6125 38.4988 31.1429 38.9401 31.1354C39.0928 30.9746 39.1744 30.9671 39.3823 30.9113C39.5221 30.8603 39.6433 30.683 39.745 30.5615L39.8035 30.7592C39.6745 30.8558 39.6427 30.8441 39.6031 30.9665C39.0331 32.1083 38.4304 32.1542 38.8123 33.7817C38.8285 33.7331 38.8462 33.6464 38.8786 33.6242C38.9152 33.8435 38.8861 33.8981 39.0202 34.0409C39.2422 33.7583 39.1711 33.608 39.397 33.503C39.6673 33.743 39.6589 34.0106 39.6517 34.3451C39.7573 34.067 39.7063 34.0814 39.9088 33.914L40.0849 33.9656C40.4413 34.9484 38.0185 38.8346 36.661 38.7416C36.5461 38.7338 36.3313 38.834 36.2503 38.9246C36.1342 39.2264 36.1474 39.446 36.1411 39.7655L36.0181 39.3671L35.9806 39.3278L35.7487 39.4931Z" fill="#BCEEEC"/>
<path d="M35.7487 39.4931L35.6632 39.4361C35.5894 39.5393 35.5768 39.5612 35.4754 39.6467C35.2927 39.5144 35.1073 39.386 34.9195 39.2609L35.1082 39.1787C35.143 39.0215 34.0339 38.3159 33.8548 38.0972C33.226 37.3283 31.1236 34.1441 31.348 33.3443C31.6249 33.4634 31.5469 33.6566 31.9342 33.9515C32.692 34.0661 32.4295 33.1277 33.0265 32.8331C33.049 32.9492 33.0502 33.0347 33.1309 33.1178L33.202 32.9723C33.1786 32.6657 33.2272 32.6972 33.0685 32.4857C33.0949 32.372 33.1012 32.3765 33.0739 32.2646C32.8573 32.2505 32.5087 32.4416 32.2954 32.5403L32.2579 32.4752C32.3413 32.3642 32.5774 32.129 32.6839 32.0174C32.7829 31.5752 31.9222 30.806 31.8793 30.3755C32.0455 30.4091 32.8345 31.049 33.1048 31.2242C33.5008 31.0397 33.8917 30.845 34.2772 30.6401C34.5832 30.4784 34.633 30.4784 34.7329 30.1433L34.7488 30.0896C35.3266 29.8357 36.8887 29.809 37.4746 30.0659C37.6084 30.3047 37.1305 30.2147 37.051 30.5234C37.426 30.7181 37.8196 30.6131 38.2042 30.6128C38.4619 30.6125 38.4988 31.1429 38.9401 31.1354C39.0928 30.9746 39.1744 30.9671 39.3823 30.9113C38.9995 31.4231 38.5012 31.7105 37.9648 32.0381C36.3256 30.2888 35.3497 31.1858 33.6703 31.9007C33.349 31.6811 33.0472 31.4753 32.7373 31.2386C32.8675 31.5023 33.5911 32.54 33.6022 32.6279C33.6916 33.3365 33.3412 34.1324 33.5131 34.9586C33.6946 35.8295 34.2283 35.7956 34.1365 36.5669L34.2298 36.7019C34.4758 36.5882 34.2253 36.4832 34.5838 36.6026C36.0898 37.1042 35.9533 37.9637 35.9806 39.3278L35.7487 39.4931Z" fill="#76E0ED"/>
<path d="M36.018 39.3674C36.1278 38.3936 35.595 37.2533 37.0527 37.0658C37.4481 37.2251 38.8224 35.9228 38.571 35.6396C38.1072 35.1167 38.6991 34.5533 38.6001 33.9986C38.2881 32.2481 38.0244 32.1992 39.603 30.9668C39.033 32.1086 38.4303 32.1545 38.8122 33.782C38.8284 33.7334 38.8461 33.6467 38.8785 33.6245C38.9151 33.8438 38.886 33.8984 39.0201 34.0412C39.2421 33.7586 39.171 33.6083 39.3969 33.5033C39.6672 33.7433 39.6588 34.0109 39.6516 34.3454C39.7572 34.0673 39.7062 34.0817 39.9087 33.9143L40.0848 33.9659C40.4412 34.9487 38.0184 38.8349 36.6609 38.7419C36.546 38.7341 36.3312 38.8343 36.2502 38.9249C36.1341 39.2267 36.1473 39.4463 36.141 39.7658L36.018 39.3674Z" fill="#76E0ED"/>
<path d="M39.7446 30.5619C39.8925 30.3207 40.3038 30.054 40.5459 29.8752C40.3353 30.1692 40.0908 30.5517 39.8031 30.7596L39.7446 30.5619Z" fill="#76E0ED"/>
<path d="M54.7918 32.0977C54.8128 33.0286 55.0234 33.7447 54.9793 34.723C54.9676 36.7489 54.9259 38.0155 54.283 39.9973C53.5807 40.1533 51.9133 40.4317 51.373 40.6294C50.9482 41.236 49.903 43.0639 49.6057 43.7566C49.9099 44.4313 50.5369 45.8683 50.9404 46.4689C49.5334 48.5077 46.5844 51.1318 44.2477 52.0213C43.5493 52.4233 42.8872 52.6525 42.136 52.9204C42.7369 51.9448 44.2834 49.5307 44.6662 48.5965C44.5885 47.8564 44.4799 47.0773 44.3884 46.3354L48.3463 39.6328C48.7732 38.902 50.4901 35.7967 50.9566 35.3398C53.761 34.5373 53.0728 34.3483 54.7918 32.0977Z" fill="#8E1416"/>
<path d="M54.7918 32.0977C54.8128 33.0286 55.0234 33.7447 54.9793 34.723C54.5068 34.9198 54.1567 35.8021 53.7409 36.1534C53.1358 36.6649 52.1833 36.5197 51.5938 37.0549C50.7949 37.7803 45.9928 45.9226 45.4225 47.2804C45.4993 47.9809 45.6334 48.6184 45.625 49.3336C45.616 50.1016 44.2375 51.5803 44.2477 52.0213C43.5493 52.4233 42.8872 52.6525 42.136 52.9204C42.7369 51.9448 44.2834 49.5307 44.6662 48.5965C44.5885 47.8564 44.4799 47.0773 44.3884 46.3354L48.3463 39.6328C48.7732 38.902 50.4901 35.7967 50.9566 35.3398C53.761 34.5373 53.0728 34.3483 54.7918 32.0977Z" fill="#5B0D11"/>
<path d="M17.3516 32.2576C17.6445 32.6116 18.0557 33.1891 18.258 33.5971C18.3845 33.7828 18.6757 34.1863 18.7696 34.3663C18.9555 34.5658 19.1476 34.7965 19.3814 34.9309C20.5175 34.9726 21.4408 35.4877 21.8867 36.5635C22.5462 37.5046 23.129 38.4673 23.6999 39.4648C24.9746 41.6914 26.3283 43.8754 27.5192 46.1485C27.4675 46.9888 27.3967 47.8276 27.3068 48.6646C27.928 49.9135 29.007 51.619 29.752 52.8469C26.7454 51.829 24.0719 50.0131 22.0177 47.5933C21.71 47.2759 21.3674 46.8061 21.0907 46.4467C21.3306 45.9658 22.1669 44.2033 22.4416 43.8937C22.2218 43.2496 21.2625 41.743 20.9052 41.0662C20.5132 40.3234 19.3672 40.2514 18.5096 40.0783C18.3489 40.0624 17.8625 40.0078 17.8005 39.8578C16.8421 37.5409 17.094 34.6342 17.3516 32.2576Z" fill="#8E1416"/>
<path d="M17.3516 32.2576C17.6445 32.6116 18.0557 33.1891 18.258 33.5971C18.3845 33.7828 18.6757 34.1863 18.7696 34.3663C18.5659 34.5184 18.3981 34.6609 18.1606 34.7533C18.1296 35.8753 18.12 36.6343 18.2397 37.768C18.2991 38.3305 18.526 39.6067 18.5096 40.0783C18.3489 40.0624 17.8625 40.0078 17.8005 39.8578C16.8421 37.5409 17.094 34.6342 17.3516 32.2576Z" fill="#5B0D11"/>
<path d="M18.1607 34.7534C18.3812 34.0649 17.951 34.0547 18.2581 33.5972C18.3845 33.7829 18.6757 34.1864 18.7696 34.3664C18.5659 34.5185 18.3982 34.661 18.1607 34.7534Z" fill="#8E1416"/>
<path d="M22.4413 43.8938C22.6928 44.183 22.8893 44.411 23.1157 44.7236C22.9553 45.2306 22.3176 47.2919 22.0174 47.5934C21.7097 47.276 21.3671 46.8062 21.0903 46.4468C21.3302 45.9659 22.1666 44.2034 22.4413 43.8938Z" fill="#5B0D11"/>
<path d="M19.3811 34.9312C20.5171 34.9729 21.4405 35.488 21.8864 36.5638C21.5135 36.7378 20.8597 36.4918 20.4423 36.3826C20.0046 35.9461 19.6367 35.4979 19.3811 34.9312Z" fill="#5B0D11"/>
<path d="M33.6204 20.9314C34.3896 20.9789 38.2011 20.8874 38.5725 21.126C38.9247 21.4416 40.5987 22.9547 40.749 23.223C41.2161 23.2989 41.9343 23.2559 42.4251 23.233L41.8851 23.8218C41.4615 24.3291 41.0889 24.7452 40.5939 25.1824C38.3319 25.3103 36.0102 25.2197 33.7416 25.252C32.9133 25.2637 32.0394 25.2646 31.2147 25.2032C30.8391 24.78 30.4074 24.2 30.0507 23.7471C29.8765 23.6159 29.6668 23.3917 29.5078 23.2319L31.1649 23.3203C32.007 22.6078 32.7822 21.7046 33.6204 20.9314Z" fill="#A51B1B"/>
<path d="M33.6204 20.9314C34.3896 20.9789 38.2011 20.8874 38.5725 21.126L38.3343 21.5285C37.0431 21.4967 34.9983 21.452 33.7422 21.5382C32.9079 22.2782 32.2473 23.1275 31.4244 23.8554C31.0509 23.8114 30.4005 23.7153 30.0507 23.7471C29.8765 23.6159 29.6668 23.3917 29.5078 23.2319L31.1649 23.3203C32.007 22.6078 32.7822 21.7046 33.6204 20.9314Z" fill="#ED6147"/>
<path d="M38.5727 21.1265C38.9249 21.4421 40.5989 22.9551 40.7492 23.2235L40.4921 23.4254C40.055 23.2114 38.7362 21.5997 38.3345 21.5289L38.5727 21.1265Z" fill="#A51B1B"/>
<path d="M40.7488 23.2231C41.2159 23.299 41.9341 23.256 42.4249 23.2331L41.8849 23.8219C41.4337 23.7572 41.3044 23.8535 40.8421 23.8724C40.585 23.7401 40.6606 23.7779 40.5097 23.4746L40.4917 23.425L40.7488 23.2231Z" fill="#ED6147"/>
<path d="M38.3345 21.5286C38.7362 21.5994 40.055 23.211 40.4921 23.425L40.5101 23.4746L40.4051 23.5686C39.956 23.3197 38.4584 21.9916 38.3345 21.5286Z" fill="#5B0D11"/>
<path d="M32.2594 16.9177C32.6023 17.2991 32.8264 17.5816 33.1324 17.994C33.5032 18.4518 33.85 18.9343 34.2259 19.3854C34.384 19.5754 34.54 19.5836 34.7773 19.5762L35.2234 19.7088L34.7821 19.854L35.1088 19.9512C34.4149 19.9598 33.7213 19.9864 33.0289 20.0309C32.1757 20.7241 31.477 21.5637 30.6652 22.2431L28.8691 22.2563C28.313 21.695 27.6243 20.8066 27.1343 20.3518C26.4872 20.2287 25.704 20.2411 25.0493 20.2612C26.7142 18.6207 30.0355 17.5078 32.2594 16.9177Z" fill="#A51B1B"/>
<path d="M32.2594 16.9177C32.6023 17.2991 32.8264 17.5816 33.1324 17.994C32.7847 18.1992 32.0251 18.3881 31.597 18.4965C30.5686 18.7568 27.7645 19.58 27.1343 20.3518C26.4872 20.2287 25.704 20.2411 25.0493 20.2612C26.7142 18.6207 30.0355 17.5078 32.2594 16.9177Z" fill="#8E1416"/>
<path d="M40.7918 17.186C43.2713 17.8064 45.1466 18.7204 47.1974 20.2555C46.5068 20.2489 45.815 20.2371 45.125 20.2586C44.4212 20.8654 43.7882 21.668 43.1591 22.203C42.5285 22.2675 41.8025 22.286 41.1731 22.2077C40.5026 21.5656 39.4343 20.3874 38.7158 19.9824C38.7374 19.9026 40.3937 18.1495 40.7918 17.186Z" fill="#A51B1B"/>
<path d="M49.0254 36.01L49.131 36.0256L49.1859 36.1447C48.9258 36.7372 48.3972 37.6021 48.0594 38.1853C47.3928 39.3397 46.719 40.4896 46.0374 41.635C45.4581 42.6133 44.6643 44.1484 44.1054 45.0247C43.9152 44.7106 43.8537 44.1133 43.7883 43.7236C43.8183 43.6603 43.8498 43.5976 43.8828 43.5355C44.9565 41.5264 47.0652 38.3284 48.3039 36.3061C48.3657 36.2053 48.8685 36.0586 49.0254 36.01Z" fill="#5B0D11"/>
<path d="M22.6909 35.741C22.9357 35.7581 23.6207 35.9906 23.7624 36.1871C24.4205 37.1009 25.0127 38.1527 25.5788 39.1331C26.3818 40.5236 27.3866 41.9168 28.1079 43.3391C28.0772 43.7807 28.0558 44.2232 28.0439 44.666C28.0082 44.6699 27.9046 44.6462 27.8627 44.6384L24.7252 39.3656C24.1531 38.4035 23.1143 36.725 22.6909 35.741Z" fill="#8E1416"/>
<path d="M37.7487 47.3455C37.9302 46.8079 39.5871 43.6873 39.8811 43.4272L40.0143 43.4416L40.0221 43.6057C40.044 44.3752 40.0944 45.6913 40.1586 46.4407C39.6861 47.2969 38.2212 49.6294 37.6506 50.4154C37.6656 50.0008 37.6899 47.5051 37.7487 47.3455Z" fill="#132832"/>
<path d="M37.7485 47.3455C37.93 46.8079 39.5869 43.6873 39.8809 43.4272L40.0141 43.4416L40.0219 43.6057C39.9592 44.1826 38.3179 46.7191 37.9162 47.5285L37.8226 47.5126L37.7485 47.3455Z" fill="#0F3A4A"/>
<path d="M31.8767 43.3635C32.3159 43.5195 32.5997 44.3649 32.8889 44.739C34.502 46.8264 34.0622 47.6769 34.1921 50.058L34.049 50.04C33.6911 49.5768 31.8041 46.6782 31.7906 46.1766C31.7801 45.8034 31.9151 44.0565 31.8767 43.3635Z" fill="#132832"/>
<path d="M46.0212 33.5042C45.7935 33.6467 45.8175 33.6782 45.5811 33.6917C45.5097 33.3146 46.8723 31.3403 47.1489 31.007C47.4081 30.6947 49.9515 29.375 50.2521 29.3684L50.2944 29.4943L50.1531 29.6996C49.1067 31.1789 49.032 32.3537 47.1309 33.0593C46.8054 33.1799 46.3719 33.425 46.0212 33.5042Z" fill="#132832"/>
<path d="M46.0212 33.5042C45.7935 33.6467 45.8175 33.6782 45.5811 33.6917C45.5097 33.3146 46.8723 31.3403 47.1489 31.007C47.4081 30.6947 49.9515 29.375 50.2521 29.3684L50.2944 29.4943L50.1531 29.6996L50.0943 29.7401C48.8358 30.5927 47.415 30.6335 46.6512 32.2232C46.458 32.6252 46.2234 33.0734 46.0212 33.5042Z" fill="#125166"/>
<path d="M21.7793 29.3186C22.4763 29.5572 24.2966 30.5395 24.8103 31.0378C25.3501 31.5613 26.0787 32.9227 26.4112 33.6349C26.2927 33.613 26.2596 33.6034 26.1508 33.5578C24.3586 32.8057 23.4263 32.5675 22.5299 30.7162C22.3325 30.3085 21.9924 29.8213 21.7793 29.3186Z" fill="#0F3A4A"/>
<path d="M34.8796 48.2771C35.3107 48.4604 35.4427 49.121 36.1333 49.6766C36.4198 49.2923 36.5869 48.8726 36.9505 48.5456L37.0624 48.5546C37.1479 48.9116 37.0816 49.8167 37.0669 50.2286C37.0867 50.6255 37.06 51.1316 37.0486 51.5381C36.3538 51.5327 35.659 51.539 34.9645 51.557C34.9669 50.4632 34.9387 49.3694 34.8796 48.2771Z" fill="#132832"/>
<path d="M39.8285 16.9319C40.1417 17.0003 40.4804 17.1011 40.7918 17.1866C40.3937 18.1501 38.7374 19.9032 38.7158 19.983C38.1569 20.0413 35.6951 19.9979 35.1086 19.9516L34.7819 19.8544L35.2232 19.7092L34.7771 19.5766C38.7314 19.4906 37.2713 19.7966 39.8285 16.9319Z" fill="#5B0D11"/>
<path d="M49.8246 26.062C50.2137 26.3171 50.8128 27.4708 51.0687 27.9235C50.487 28.3368 49.3596 28.9036 48.687 29.2586C48.4491 29.3844 48.0375 29.6568 47.7954 29.8067C48.4725 28.5397 49.0881 27.2986 49.8246 26.062Z" fill="#132832"/>
<path d="M20.696 47.4644C20.8945 47.5268 23.0211 49.8008 23.5341 50.2184C24.8306 51.2738 26.4521 52.2884 27.9632 52.9625C28.7876 53.33 30.3497 53.7335 30.6509 54.2963C30.2891 54.2849 29.4395 53.966 29.0549 53.8181C26.2573 52.7618 23.7338 51.0887 21.6718 48.923C21.3566 48.5918 20.6842 47.9192 20.696 47.4644Z" fill="#A51B1B"/>
<path d="M51.1962 47.5208C51.2979 47.5646 51.2952 47.5796 51.3744 47.6615C51.3771 48.0206 50.3484 49.0166 50.0739 49.2929C47.6481 51.734 44.943 53.2853 41.6376 54.1952L41.5593 54.1937L41.5476 54.1046C41.6205 54.0272 41.7531 53.9078 41.853 53.8748C44.577 52.979 47.1681 51.5201 49.2798 49.574C49.9515 48.9551 50.5872 48.2033 51.1962 47.5208Z" fill="#8E1416"/>
<path d="M22.033 26.0483C22.2547 26.1097 23.9045 29.2008 23.8996 29.3877C23.6975 29.4309 23.6018 29.3344 23.3751 29.2302C22.5614 28.8418 21.8279 28.3802 20.9836 28.0047C21.3456 27.3546 21.7066 26.7176 22.033 26.0483Z" fill="#132832"/>
<path d="M55.512 30.7993L55.6527 30.8998C56.5059 32.8738 56.2308 37.8661 55.5486 39.9661C55.365 39.9148 55.431 39.9538 55.2972 39.8161C55.2717 39.1387 55.7304 37.5745 55.7385 36.7735C55.7493 35.6578 55.7592 34.5127 55.6959 33.3883C55.6566 32.6854 55.4379 31.7419 55.3944 31.0174C55.4409 30.931 55.4802 30.8581 55.512 30.7993Z" fill="#5B0D11"/>
<path d="M31.3848 15.9184C31.6482 15.8853 31.5519 15.8633 31.7619 15.978L31.7337 16.0471L31.7892 16.0502C31.5678 16.2991 30.192 16.6252 29.7705 16.7486C27.3006 17.4715 25.5612 18.7993 23.4621 20.1759L23.2653 20.2245L23.1697 20.1573C23.1759 20.1349 23.2015 20.0537 23.2137 20.0423C25.3236 18.0799 28.6187 16.5037 31.3848 15.9184Z" fill="#5B0D11"/>
<path d="M16.4375 30.835L16.5972 30.8887C16.8701 31.2295 16.4886 32.4016 16.4221 32.9152C16.2176 34.4938 16.1897 36.148 16.4533 37.7194C16.5444 38.2624 16.8161 39.4702 16.8008 39.9166C16.7249 39.8743 16.622 39.7987 16.5475 39.7471C15.4835 37.7302 15.9048 33.0991 16.4375 30.835Z" fill="#5B0D11"/>
<path d="M40.4795 15.8882C41.6777 15.9554 44.0633 17.0287 45.149 17.5519C45.7598 17.8463 48.8867 19.7365 48.938 20.3204C48.0338 20.1068 45.773 18.0537 44.4938 17.589C43.2209 17.1266 41.8922 16.6055 40.5929 16.1801C40.4921 16.1471 40.496 15.9864 40.4795 15.8882Z" fill="#5B0D11"/>
<defs>
<linearGradient id="paint0_linear_1_2274" x1="46.8199" y1="51.3147" x2="47.5908" y2="52.736" gradientUnits="userSpaceOnUse">
<stop stop-color="#45747E"/>
<stop offset="1" stop-color="#609FB8"/>
</linearGradient>
<linearGradient id="paint1_linear_1_2274" x1="26.296" y1="50.7666" x2="25.3793" y2="53.9339" gradientUnits="userSpaceOnUse">
<stop stop-color="#304E5F"/>
<stop offset="1" stop-color="#537D94"/>
</linearGradient>
<linearGradient id="paint2_linear_1_2274" x1="26.309" y1="32.1091" x2="17.4973" y2="19.9759" gradientUnits="userSpaceOnUse">
<stop stop-color="#2A3E51"/>
<stop offset="1" stop-color="#47768F"/>
</linearGradient>
<linearGradient id="paint3_linear_1_2274" x1="21.7465" y1="20.4381" x2="19.7206" y2="17.9217" gradientUnits="userSpaceOnUse">
<stop stop-color="#A0D3E1"/>
<stop offset="1" stop-color="#C7F6FE"/>
</linearGradient>
<linearGradient id="paint4_linear_1_2274" x1="14.2357" y1="35.9111" x2="11.039" y2="37.4392" gradientUnits="userSpaceOnUse">
<stop stop-color="#62A1AF"/>
<stop offset="1" stop-color="#3B5672"/>
</linearGradient>
<linearGradient id="paint5_linear_1_2274" x1="62.4156" y1="30.7749" x2="37.6903" y2="22.9009" gradientUnits="userSpaceOnUse">
<stop stop-color="#253548"/>
<stop offset="1" stop-color="#3D637A"/>
</linearGradient>
<linearGradient id="paint6_linear_1_2274" x1="51.1023" y1="15.0704" x2="47.1474" y2="17.1797" gradientUnits="userSpaceOnUse">
<stop stop-color="#387389"/>
<stop offset="1" stop-color="#7CA2B7"/>
</linearGradient>
<linearGradient id="paint7_linear_1_2274" x1="55.5244" y1="34.941" x2="57.7723" y2="35.5313" gradientUnits="userSpaceOnUse">
<stop stop-color="#294555"/>
<stop offset="1" stop-color="#4F6A80"/>
</linearGradient>
<linearGradient id="paint8_linear_1_2274" x1="56.4386" y1="48.6552" x2="55.384" y2="43.2054" gradientUnits="userSpaceOnUse">
<stop stop-color="#243845"/>
<stop offset="1" stop-color="#2F5061"/>
</linearGradient>
<linearGradient id="paint9_linear_1_2274" x1="14.0007" y1="45.4374" x2="13.9758" y2="41.1117" gradientUnits="userSpaceOnUse">
<stop stop-color="#6CB0C0"/>
<stop offset="1" stop-color="#9DCDDE"/>
</linearGradient>
<linearGradient id="paint10_linear_1_2274" x1="38.1751" y1="17.5061" x2="34.8521" y2="12.0559" gradientUnits="userSpaceOnUse">
<stop stop-color="#375E75"/>
<stop offset="1" stop-color="#538395"/>
</linearGradient>
<linearGradient id="paint11_linear_1_2274" x1="53.3379" y1="43.2921" x2="52.9594" y2="41.2482" gradientUnits="userSpaceOnUse">
<stop stop-color="#56899A"/>
<stop offset="1" stop-color="#7DB0C1"/>
</linearGradient>
<linearGradient id="paint12_linear_1_2274" x1="47.0804" y1="35.4094" x2="51.5022" y2="40.378" gradientUnits="userSpaceOnUse">
<stop stop-color="#460A0C"/>
<stop offset="1" stop-color="#7C0D13"/>
</linearGradient>
<linearGradient id="paint13_linear_1_2274" x1="43.0598" y1="48.9179" x2="37.253" y2="40.5517" gradientUnits="userSpaceOnUse">
<stop stop-color="#ED4036"/>
<stop offset="1" stop-color="#F67C55"/>
</linearGradient>
<linearGradient id="paint14_linear_1_2274" x1="52.9114" y1="31.0584" x2="44.7499" y2="32.1745" gradientUnits="userSpaceOnUse">
<stop stop-color="#EA4D3B"/>
<stop offset="1" stop-color="#EF7C54"/>
</linearGradient>
</defs>
</svg>
